G04 #@! TF.GenerationSoftware,KiCad,Pcbnew,(6.0.5)*
G04 #@! TF.CreationDate,2022-06-17T10:27:33-05:00*
G04 #@! TF.ProjectId,model_cell,6d6f6465-6c5f-4636-956c-6c2e6b696361,rev?*
G04 #@! TF.SameCoordinates,Original*
G04 #@! TF.FileFunction,Legend,Top*
G04 #@! TF.FilePolarity,Positive*
%FSLAX46Y46*%
G04 Gerber Fmt 4.6, Leading zero omitted, Abs format (unit mm)*
G04 Created by KiCad (PCBNEW (6.0.5)) date 2022-06-17 10:27:33*
%MOMM*%
%LPD*%
G01*
G04 APERTURE LIST*
G04 Aperture macros list*
%AMRoundRect*
0 Rectangle with rounded corners*
0 $1 Rounding radius*
0 $2 $3 $4 $5 $6 $7 $8 $9 X,Y pos of 4 corners*
0 Add a 4 corners polygon primitive as box body*
4,1,4,$2,$3,$4,$5,$6,$7,$8,$9,$2,$3,0*
0 Add four circle primitives for the rounded corners*
1,1,$1+$1,$2,$3*
1,1,$1+$1,$4,$5*
1,1,$1+$1,$6,$7*
1,1,$1+$1,$8,$9*
0 Add four rect primitives between the rounded corners*
20,1,$1+$1,$2,$3,$4,$5,0*
20,1,$1+$1,$4,$5,$6,$7,0*
20,1,$1+$1,$6,$7,$8,$9,0*
20,1,$1+$1,$8,$9,$2,$3,0*%
G04 Aperture macros list end*
%ADD10C,0.150000*%
%ADD11C,0.200000*%
%ADD12C,0.120000*%
%ADD13C,5.701600*%
%ADD14C,5.701599*%
%ADD15RoundRect,0.300800X0.312500X0.625000X-0.312500X0.625000X-0.312500X-0.625000X0.312500X-0.625000X0*%
%ADD16RoundRect,0.050800X-0.850000X0.850000X-0.850000X-0.850000X0.850000X-0.850000X0.850000X0.850000X0*%
%ADD17RoundRect,0.300800X0.650000X-0.325000X0.650000X0.325000X-0.650000X0.325000X-0.650000X-0.325000X0*%
%ADD18RoundRect,0.050800X-0.850000X-0.850000X0.850000X-0.850000X0.850000X0.850000X-0.850000X0.850000X0*%
%ADD19O,1.801600X1.801600*%
%ADD20RoundRect,0.300800X0.625000X-0.312500X0.625000X0.312500X-0.625000X0.312500X-0.625000X-0.312500X0*%
%ADD21RoundRect,0.300800X-0.312500X-0.625000X0.312500X-0.625000X0.312500X0.625000X-0.312500X0.625000X0*%
%ADD22RoundRect,0.050800X0.850000X-0.850000X0.850000X0.850000X-0.850000X0.850000X-0.850000X-0.850000X0*%
%ADD23RoundRect,0.300800X-0.625000X0.312500X-0.625000X-0.312500X0.625000X-0.312500X0.625000X0.312500X0*%
%ADD24RoundRect,0.050800X0.850000X0.850000X-0.850000X0.850000X-0.850000X-0.850000X0.850000X-0.850000X0*%
G04 APERTURE END LIST*
D10*
X4563333Y37783333D02*
X4563333Y38483333D01*
X4830000Y38483333D01*
X4896666Y38450000D01*
X4930000Y38416666D01*
X4963333Y38350000D01*
X4963333Y38250000D01*
X4930000Y38183333D01*
X4896666Y38150000D01*
X4830000Y38116666D01*
X4563333Y38116666D01*
X5230000Y38416666D02*
X5263333Y38450000D01*
X5330000Y38483333D01*
X5496666Y38483333D01*
X5563333Y38450000D01*
X5596666Y38416666D01*
X5630000Y38350000D01*
X5630000Y38283333D01*
X5596666Y38183333D01*
X5196666Y37783333D01*
X5630000Y37783333D01*
D11*
X29679047Y13122619D02*
X29679047Y12313095D01*
X29726666Y12217857D01*
X29774285Y12170238D01*
X29869523Y12122619D01*
X30060000Y12122619D01*
X30155238Y12170238D01*
X30202857Y12217857D01*
X30250476Y12313095D01*
X30250476Y13122619D01*
X30679047Y12170238D02*
X30821904Y12122619D01*
X31060000Y12122619D01*
X31155238Y12170238D01*
X31202857Y12217857D01*
X31250476Y12313095D01*
X31250476Y12408333D01*
X31202857Y12503571D01*
X31155238Y12551190D01*
X31060000Y12598809D01*
X30869523Y12646428D01*
X30774285Y12694047D01*
X30726666Y12741666D01*
X30679047Y12836904D01*
X30679047Y12932142D01*
X30726666Y13027380D01*
X30774285Y13075000D01*
X30869523Y13122619D01*
X31107619Y13122619D01*
X31250476Y13075000D01*
X31536190Y13122619D02*
X32107619Y13122619D01*
X31821904Y12122619D02*
X31821904Y13122619D01*
X33202857Y12646428D02*
X33536190Y12646428D01*
X33679047Y12122619D02*
X33202857Y12122619D01*
X33202857Y13122619D01*
X33679047Y13122619D01*
X34107619Y12789285D02*
X34107619Y12122619D01*
X34107619Y12694047D02*
X34155238Y12741666D01*
X34250476Y12789285D01*
X34393333Y12789285D01*
X34488571Y12741666D01*
X34536190Y12646428D01*
X34536190Y12122619D01*
X35440952Y12789285D02*
X35440952Y11979761D01*
X35393333Y11884523D01*
X35345714Y11836904D01*
X35250476Y11789285D01*
X35107619Y11789285D01*
X35012380Y11836904D01*
X35440952Y12170238D02*
X35345714Y12122619D01*
X35155238Y12122619D01*
X35060000Y12170238D01*
X35012380Y12217857D01*
X34964761Y12313095D01*
X34964761Y12598809D01*
X35012380Y12694047D01*
X35060000Y12741666D01*
X35155238Y12789285D01*
X35345714Y12789285D01*
X35440952Y12741666D01*
X35917142Y12122619D02*
X35917142Y12789285D01*
X35917142Y13122619D02*
X35869523Y13075000D01*
X35917142Y13027380D01*
X35964761Y13075000D01*
X35917142Y13122619D01*
X35917142Y13027380D01*
X36393333Y12789285D02*
X36393333Y12122619D01*
X36393333Y12694047D02*
X36440952Y12741666D01*
X36536190Y12789285D01*
X36679047Y12789285D01*
X36774285Y12741666D01*
X36821904Y12646428D01*
X36821904Y12122619D01*
X37679047Y12170238D02*
X37583809Y12122619D01*
X37393333Y12122619D01*
X37298095Y12170238D01*
X37250476Y12265476D01*
X37250476Y12646428D01*
X37298095Y12741666D01*
X37393333Y12789285D01*
X37583809Y12789285D01*
X37679047Y12741666D01*
X37726666Y12646428D01*
X37726666Y12551190D01*
X37250476Y12455952D01*
X38536190Y12170238D02*
X38440952Y12122619D01*
X38250476Y12122619D01*
X38155238Y12170238D01*
X38107619Y12265476D01*
X38107619Y12646428D01*
X38155238Y12741666D01*
X38250476Y12789285D01*
X38440952Y12789285D01*
X38536190Y12741666D01*
X38583809Y12646428D01*
X38583809Y12551190D01*
X38107619Y12455952D01*
X39012380Y12122619D02*
X39012380Y12789285D01*
X39012380Y12598809D02*
X39060000Y12694047D01*
X39107619Y12741666D01*
X39202857Y12789285D01*
X39298095Y12789285D01*
X39631428Y12122619D02*
X39631428Y12789285D01*
X39631428Y13122619D02*
X39583809Y13075000D01*
X39631428Y13027380D01*
X39679047Y13075000D01*
X39631428Y13122619D01*
X39631428Y13027380D01*
X40107619Y12789285D02*
X40107619Y12122619D01*
X40107619Y12694047D02*
X40155238Y12741666D01*
X40250476Y12789285D01*
X40393333Y12789285D01*
X40488571Y12741666D01*
X40536190Y12646428D01*
X40536190Y12122619D01*
X41440952Y12789285D02*
X41440952Y11979761D01*
X41393333Y11884523D01*
X41345714Y11836904D01*
X41250476Y11789285D01*
X41107619Y11789285D01*
X41012380Y11836904D01*
X41440952Y12170238D02*
X41345714Y12122619D01*
X41155238Y12122619D01*
X41060000Y12170238D01*
X41012380Y12217857D01*
X40964761Y12313095D01*
X40964761Y12598809D01*
X41012380Y12694047D01*
X41060000Y12741666D01*
X41155238Y12789285D01*
X41345714Y12789285D01*
X41440952Y12741666D01*
X32083809Y11512619D02*
X32083809Y10798333D01*
X32036190Y10655476D01*
X31940952Y10560238D01*
X31798095Y10512619D01*
X31702857Y10512619D01*
X32988571Y11179285D02*
X32988571Y10512619D01*
X32560000Y11179285D02*
X32560000Y10655476D01*
X32607619Y10560238D01*
X32702857Y10512619D01*
X32845714Y10512619D01*
X32940952Y10560238D01*
X32988571Y10607857D01*
X33464761Y11179285D02*
X33464761Y10512619D01*
X33464761Y11084047D02*
X33512380Y11131666D01*
X33607619Y11179285D01*
X33750476Y11179285D01*
X33845714Y11131666D01*
X33893333Y11036428D01*
X33893333Y10512619D01*
X34750476Y10560238D02*
X34655238Y10512619D01*
X34464761Y10512619D01*
X34369523Y10560238D01*
X34321904Y10655476D01*
X34321904Y11036428D01*
X34369523Y11131666D01*
X34464761Y11179285D01*
X34655238Y11179285D01*
X34750476Y11131666D01*
X34798095Y11036428D01*
X34798095Y10941190D01*
X34321904Y10845952D01*
X35940952Y11417380D02*
X35988571Y11465000D01*
X36083809Y11512619D01*
X36321904Y11512619D01*
X36417142Y11465000D01*
X36464761Y11417380D01*
X36512380Y11322142D01*
X36512380Y11226904D01*
X36464761Y11084047D01*
X35893333Y10512619D01*
X36512380Y10512619D01*
X37131428Y11512619D02*
X37226666Y11512619D01*
X37321904Y11465000D01*
X37369523Y11417380D01*
X37417142Y11322142D01*
X37464761Y11131666D01*
X37464761Y10893571D01*
X37417142Y10703095D01*
X37369523Y10607857D01*
X37321904Y10560238D01*
X37226666Y10512619D01*
X37131428Y10512619D01*
X37036190Y10560238D01*
X36988571Y10607857D01*
X36940952Y10703095D01*
X36893333Y10893571D01*
X36893333Y11131666D01*
X36940952Y11322142D01*
X36988571Y11417380D01*
X37036190Y11465000D01*
X37131428Y11512619D01*
X37845714Y11417380D02*
X37893333Y11465000D01*
X37988571Y11512619D01*
X38226666Y11512619D01*
X38321904Y11465000D01*
X38369523Y11417380D01*
X38417142Y11322142D01*
X38417142Y11226904D01*
X38369523Y11084047D01*
X37798095Y10512619D01*
X38417142Y10512619D01*
X38798095Y11417380D02*
X38845714Y11465000D01*
X38940952Y11512619D01*
X39179047Y11512619D01*
X39274285Y11465000D01*
X39321904Y11417380D01*
X39369523Y11322142D01*
X39369523Y11226904D01*
X39321904Y11084047D01*
X38750476Y10512619D01*
X39369523Y10512619D01*
X30036190Y8997857D02*
X29988571Y8950238D01*
X29845714Y8902619D01*
X29750476Y8902619D01*
X29607619Y8950238D01*
X29512380Y9045476D01*
X29464761Y9140714D01*
X29417142Y9331190D01*
X29417142Y9474047D01*
X29464761Y9664523D01*
X29512380Y9759761D01*
X29607619Y9855000D01*
X29750476Y9902619D01*
X29845714Y9902619D01*
X29988571Y9855000D01*
X30036190Y9807380D01*
X30655238Y9902619D02*
X30845714Y9902619D01*
X30940952Y9855000D01*
X31036190Y9759761D01*
X31083809Y9569285D01*
X31083809Y9235952D01*
X31036190Y9045476D01*
X30940952Y8950238D01*
X30845714Y8902619D01*
X30655238Y8902619D01*
X30559999Y8950238D01*
X30464761Y9045476D01*
X30417142Y9235952D01*
X30417142Y9569285D01*
X30464761Y9759761D01*
X30559999Y9855000D01*
X30655238Y9902619D01*
X31369523Y9902619D02*
X31702857Y8902619D01*
X32036190Y9902619D01*
X32893333Y9855000D02*
X32798095Y9902619D01*
X32655238Y9902619D01*
X32512380Y9855000D01*
X32417142Y9759761D01*
X32369523Y9664523D01*
X32321904Y9474047D01*
X32321904Y9331190D01*
X32369523Y9140714D01*
X32417142Y9045476D01*
X32512380Y8950238D01*
X32655238Y8902619D01*
X32750476Y8902619D01*
X32893333Y8950238D01*
X32940952Y8997857D01*
X32940952Y9331190D01*
X32750476Y9331190D01*
X34131428Y8902619D02*
X34131428Y9902619D01*
X34464761Y9188333D01*
X34798095Y9902619D01*
X34798095Y8902619D01*
X35417142Y8902619D02*
X35321904Y8950238D01*
X35274285Y8997857D01*
X35226666Y9093095D01*
X35226666Y9378809D01*
X35274285Y9474047D01*
X35321904Y9521666D01*
X35417142Y9569285D01*
X35560000Y9569285D01*
X35655238Y9521666D01*
X35702857Y9474047D01*
X35750476Y9378809D01*
X35750476Y9093095D01*
X35702857Y8997857D01*
X35655238Y8950238D01*
X35560000Y8902619D01*
X35417142Y8902619D01*
X36607619Y8902619D02*
X36607619Y9902619D01*
X36607619Y8950238D02*
X36512380Y8902619D01*
X36321904Y8902619D01*
X36226666Y8950238D01*
X36179047Y8997857D01*
X36131428Y9093095D01*
X36131428Y9378809D01*
X36179047Y9474047D01*
X36226666Y9521666D01*
X36321904Y9569285D01*
X36512380Y9569285D01*
X36607619Y9521666D01*
X37464761Y8950238D02*
X37369523Y8902619D01*
X37179047Y8902619D01*
X37083809Y8950238D01*
X37036190Y9045476D01*
X37036190Y9426428D01*
X37083809Y9521666D01*
X37179047Y9569285D01*
X37369523Y9569285D01*
X37464761Y9521666D01*
X37512380Y9426428D01*
X37512380Y9331190D01*
X37036190Y9235952D01*
X38083809Y8902619D02*
X37988571Y8950238D01*
X37940952Y9045476D01*
X37940952Y9902619D01*
X39798095Y8997857D02*
X39750476Y8950238D01*
X39607619Y8902619D01*
X39512380Y8902619D01*
X39369523Y8950238D01*
X39274285Y9045476D01*
X39226666Y9140714D01*
X39179047Y9331190D01*
X39179047Y9474047D01*
X39226666Y9664523D01*
X39274285Y9759761D01*
X39369523Y9855000D01*
X39512380Y9902619D01*
X39607619Y9902619D01*
X39750476Y9855000D01*
X39798095Y9807380D01*
X40607619Y8950238D02*
X40512380Y8902619D01*
X40321904Y8902619D01*
X40226666Y8950238D01*
X40179047Y9045476D01*
X40179047Y9426428D01*
X40226666Y9521666D01*
X40321904Y9569285D01*
X40512380Y9569285D01*
X40607619Y9521666D01*
X40655238Y9426428D01*
X40655238Y9331190D01*
X40179047Y9235952D01*
X41226666Y8902619D02*
X41131428Y8950238D01*
X41083809Y9045476D01*
X41083809Y9902619D01*
X41750476Y8902619D02*
X41655238Y8950238D01*
X41607619Y9045476D01*
X41607619Y9902619D01*
X33583809Y7292619D02*
X33583809Y7959285D01*
X33583809Y7768809D02*
X33631428Y7864047D01*
X33679047Y7911666D01*
X33774285Y7959285D01*
X33869523Y7959285D01*
X34583809Y7340238D02*
X34488571Y7292619D01*
X34298095Y7292619D01*
X34202857Y7340238D01*
X34155238Y7435476D01*
X34155238Y7816428D01*
X34202857Y7911666D01*
X34298095Y7959285D01*
X34488571Y7959285D01*
X34583809Y7911666D01*
X34631428Y7816428D01*
X34631428Y7721190D01*
X34155238Y7625952D01*
X34964761Y7959285D02*
X35202857Y7292619D01*
X35440952Y7959285D01*
X35821904Y7387857D02*
X35869523Y7340238D01*
X35821904Y7292619D01*
X35774285Y7340238D01*
X35821904Y7387857D01*
X35821904Y7292619D01*
X37583809Y7292619D02*
X37012380Y7292619D01*
X37298095Y7292619D02*
X37298095Y8292619D01*
X37202857Y8149761D01*
X37107619Y8054523D01*
X37012380Y8006904D01*
D10*
X4946666Y32668370D02*
X4913333Y32635036D01*
X4813333Y32601703D01*
X4746666Y32601703D01*
X4646666Y32635036D01*
X4580000Y32701703D01*
X4546666Y32768370D01*
X4513333Y32901703D01*
X4513333Y33001703D01*
X4546666Y33135036D01*
X4580000Y33201703D01*
X4646666Y33268370D01*
X4746666Y33301703D01*
X4813333Y33301703D01*
X4913333Y33268370D01*
X4946666Y33235036D01*
X5646666Y32668370D02*
X5613333Y32635036D01*
X5513333Y32601703D01*
X5446666Y32601703D01*
X5346666Y32635036D01*
X5280000Y32701703D01*
X5246666Y32768370D01*
X5213333Y32901703D01*
X5213333Y33001703D01*
X5246666Y33135036D01*
X5280000Y33201703D01*
X5346666Y33268370D01*
X5446666Y33301703D01*
X5513333Y33301703D01*
X5613333Y33268370D01*
X5646666Y33235036D01*
X4563333Y35243333D02*
X4563333Y35943333D01*
X4830000Y35943333D01*
X4896666Y35910000D01*
X4930000Y35876666D01*
X4963333Y35810000D01*
X4963333Y35710000D01*
X4930000Y35643333D01*
X4896666Y35610000D01*
X4830000Y35576666D01*
X4563333Y35576666D01*
X5630000Y35243333D02*
X5230000Y35243333D01*
X5430000Y35243333D02*
X5430000Y35943333D01*
X5363333Y35843333D01*
X5296666Y35776666D01*
X5230000Y35743333D01*
X18252437Y42788804D02*
X18252437Y43488804D01*
X18519104Y43488804D01*
X18585770Y43455471D01*
X18619104Y43422137D01*
X18652437Y43355471D01*
X18652437Y43255471D01*
X18619104Y43188804D01*
X18585770Y43155471D01*
X18519104Y43122137D01*
X18252437Y43122137D01*
X19319104Y42788804D02*
X18919104Y42788804D01*
X19119104Y42788804D02*
X19119104Y43488804D01*
X19052437Y43388804D01*
X18985770Y43322137D01*
X18919104Y43288804D01*
X4584946Y29970014D02*
X4551612Y29903348D01*
X4551612Y29803348D01*
X4584946Y29703348D01*
X4651612Y29636681D01*
X4718279Y29603348D01*
X4851612Y29570014D01*
X4951612Y29570014D01*
X5084946Y29603348D01*
X5151612Y29636681D01*
X5218279Y29703348D01*
X5251612Y29803348D01*
X5251612Y29870014D01*
X5218279Y29970014D01*
X5184946Y30003348D01*
X4951612Y30003348D01*
X4951612Y29870014D01*
X5251612Y30303348D02*
X4551612Y30303348D01*
X5251612Y30703348D01*
X4551612Y30703348D01*
X5251612Y31036681D02*
X4551612Y31036681D01*
X4551612Y31203348D01*
X4584946Y31303348D01*
X4651612Y31370014D01*
X4718279Y31403348D01*
X4851612Y31436681D01*
X4951612Y31436681D01*
X5084946Y31403348D01*
X5151612Y31370014D01*
X5218279Y31303348D01*
X5251612Y31203348D01*
X5251612Y31036681D01*
X15652022Y42788804D02*
X15652022Y43488804D01*
X15918689Y43488804D01*
X15985355Y43455471D01*
X16018689Y43422137D01*
X16052022Y43355471D01*
X16052022Y43255471D01*
X16018689Y43188804D01*
X15985355Y43155471D01*
X15918689Y43122137D01*
X15652022Y43122137D01*
X16318689Y43422137D02*
X16352022Y43455471D01*
X16418689Y43488804D01*
X16585355Y43488804D01*
X16652022Y43455471D01*
X16685355Y43422137D01*
X16718689Y43355471D01*
X16718689Y43288804D01*
X16685355Y43188804D01*
X16285355Y42788804D01*
X16718689Y42788804D01*
X29837142Y267619D02*
X29503809Y743809D01*
X29265714Y267619D02*
X29265714Y1267619D01*
X29646666Y1267619D01*
X29741904Y1220000D01*
X29789523Y1172380D01*
X29837142Y1077142D01*
X29837142Y934285D01*
X29789523Y839047D01*
X29741904Y791428D01*
X29646666Y743809D01*
X29265714Y743809D01*
X30741904Y1267619D02*
X30265714Y1267619D01*
X30218095Y791428D01*
X30265714Y839047D01*
X30360952Y886666D01*
X30599047Y886666D01*
X30694285Y839047D01*
X30741904Y791428D01*
X30789523Y696190D01*
X30789523Y458095D01*
X30741904Y362857D01*
X30694285Y315238D01*
X30599047Y267619D01*
X30360952Y267619D01*
X30265714Y315238D01*
X30218095Y362857D01*
X31741904Y267619D02*
X31170476Y267619D01*
X31456190Y267619D02*
X31456190Y1267619D01*
X31360952Y1124761D01*
X31265714Y1029523D01*
X31170476Y981904D01*
X20928663Y12249507D02*
X20595330Y12725697D01*
X20357234Y12249507D02*
X20357234Y13249507D01*
X20738187Y13249507D01*
X20833425Y13201888D01*
X20881044Y13154268D01*
X20928663Y13059030D01*
X20928663Y12916173D01*
X20881044Y12820935D01*
X20833425Y12773316D01*
X20738187Y12725697D01*
X20357234Y12725697D01*
X21309615Y12297126D02*
X21404853Y12249507D01*
X21595330Y12249507D01*
X21690568Y12297126D01*
X21738187Y12392364D01*
X21738187Y12439983D01*
X21690568Y12535221D01*
X21595330Y12582840D01*
X21452473Y12582840D01*
X21357234Y12630459D01*
X21309615Y12725697D01*
X21309615Y12773316D01*
X21357234Y12868554D01*
X21452473Y12916173D01*
X21595330Y12916173D01*
X21690568Y12868554D01*
X22595330Y12249507D02*
X22595330Y12773316D01*
X22547711Y12868554D01*
X22452473Y12916173D01*
X22261996Y12916173D01*
X22166758Y12868554D01*
X22595330Y12297126D02*
X22500092Y12249507D01*
X22261996Y12249507D01*
X22166758Y12297126D01*
X22119139Y12392364D01*
X22119139Y12487602D01*
X22166758Y12582840D01*
X22261996Y12630459D01*
X22500092Y12630459D01*
X22595330Y12678078D01*
X22976282Y13249507D02*
X23595330Y13249507D01*
X23261996Y12868554D01*
X23404853Y12868554D01*
X23500092Y12820935D01*
X23547711Y12773316D01*
X23595330Y12678078D01*
X23595330Y12439983D01*
X23547711Y12344745D01*
X23500092Y12297126D01*
X23404853Y12249507D01*
X23119139Y12249507D01*
X23023901Y12297126D01*
X22976282Y12344745D01*
X20928663Y9711039D02*
X20595330Y10187229D01*
X20357234Y9711039D02*
X20357234Y10711039D01*
X20738187Y10711039D01*
X20833425Y10663420D01*
X20881044Y10615800D01*
X20928663Y10520562D01*
X20928663Y10377705D01*
X20881044Y10282467D01*
X20833425Y10234848D01*
X20738187Y10187229D01*
X20357234Y10187229D01*
X21309615Y9758658D02*
X21404853Y9711039D01*
X21595330Y9711039D01*
X21690568Y9758658D01*
X21738187Y9853896D01*
X21738187Y9901515D01*
X21690568Y9996753D01*
X21595330Y10044372D01*
X21452473Y10044372D01*
X21357234Y10091991D01*
X21309615Y10187229D01*
X21309615Y10234848D01*
X21357234Y10330086D01*
X21452473Y10377705D01*
X21595330Y10377705D01*
X21690568Y10330086D01*
X22595330Y9711039D02*
X22595330Y10234848D01*
X22547711Y10330086D01*
X22452473Y10377705D01*
X22261996Y10377705D01*
X22166758Y10330086D01*
X22595330Y9758658D02*
X22500092Y9711039D01*
X22261996Y9711039D01*
X22166758Y9758658D01*
X22119139Y9853896D01*
X22119139Y9949134D01*
X22166758Y10044372D01*
X22261996Y10091991D01*
X22500092Y10091991D01*
X22595330Y10139610D01*
X23500092Y10377705D02*
X23500092Y9711039D01*
X23261996Y10758658D02*
X23023901Y10044372D01*
X23642949Y10044372D01*
X24690000Y1301904D02*
X24642380Y1206666D01*
X24642380Y1063809D01*
X24690000Y920952D01*
X24785238Y825714D01*
X24880476Y778095D01*
X25070952Y730476D01*
X25213809Y730476D01*
X25404285Y778095D01*
X25499523Y825714D01*
X25594761Y920952D01*
X25642380Y1063809D01*
X25642380Y1159047D01*
X25594761Y1301904D01*
X25547142Y1349523D01*
X25213809Y1349523D01*
X25213809Y1159047D01*
X25642380Y1778095D02*
X24642380Y1778095D01*
X25642380Y2349523D01*
X24642380Y2349523D01*
X25642380Y2825714D02*
X24642380Y2825714D01*
X24642380Y3063809D01*
X24690000Y3206666D01*
X24785238Y3301904D01*
X24880476Y3349523D01*
X25070952Y3397142D01*
X25213809Y3397142D01*
X25404285Y3349523D01*
X25499523Y3301904D01*
X25594761Y3206666D01*
X25642380Y3063809D01*
X25642380Y2825714D01*
X25642380Y4349523D02*
X25642380Y3778095D01*
X25642380Y4063809D02*
X24642380Y4063809D01*
X24785238Y3968571D01*
X24880476Y3873333D01*
X24928095Y3778095D01*
X20928663Y14758111D02*
X20595330Y15234301D01*
X20357234Y14758111D02*
X20357234Y15758111D01*
X20738187Y15758111D01*
X20833425Y15710492D01*
X20881044Y15662872D01*
X20928663Y15567634D01*
X20928663Y15424777D01*
X20881044Y15329539D01*
X20833425Y15281920D01*
X20738187Y15234301D01*
X20357234Y15234301D01*
X21309615Y14805730D02*
X21404853Y14758111D01*
X21595330Y14758111D01*
X21690568Y14805730D01*
X21738187Y14900968D01*
X21738187Y14948587D01*
X21690568Y15043825D01*
X21595330Y15091444D01*
X21452473Y15091444D01*
X21357234Y15139063D01*
X21309615Y15234301D01*
X21309615Y15281920D01*
X21357234Y15377158D01*
X21452473Y15424777D01*
X21595330Y15424777D01*
X21690568Y15377158D01*
X22595330Y14758111D02*
X22595330Y15281920D01*
X22547711Y15377158D01*
X22452473Y15424777D01*
X22261996Y15424777D01*
X22166758Y15377158D01*
X22595330Y14805730D02*
X22500092Y14758111D01*
X22261996Y14758111D01*
X22166758Y14805730D01*
X22119139Y14900968D01*
X22119139Y14996206D01*
X22166758Y15091444D01*
X22261996Y15139063D01*
X22500092Y15139063D01*
X22595330Y15186682D01*
X23023901Y15662872D02*
X23071520Y15710492D01*
X23166758Y15758111D01*
X23404853Y15758111D01*
X23500092Y15710492D01*
X23547711Y15662872D01*
X23595330Y15567634D01*
X23595330Y15472396D01*
X23547711Y15329539D01*
X22976282Y14758111D01*
X23595330Y14758111D01*
X35086205Y15108647D02*
X35133824Y15061028D01*
X35181443Y14918171D01*
X35181443Y14822933D01*
X35133824Y14680076D01*
X35038586Y14584838D01*
X34943348Y14537219D01*
X34752872Y14489600D01*
X34610015Y14489600D01*
X34419539Y14537219D01*
X34324301Y14584838D01*
X34229063Y14680076D01*
X34181443Y14822933D01*
X34181443Y14918171D01*
X34229063Y15061028D01*
X34276682Y15108647D01*
X35181443Y15537219D02*
X34514777Y15537219D01*
X34610015Y15537219D02*
X34562396Y15584838D01*
X34514777Y15680076D01*
X34514777Y15822933D01*
X34562396Y15918171D01*
X34657634Y15965790D01*
X35181443Y15965790D01*
X34657634Y15965790D02*
X34562396Y16013409D01*
X34514777Y16108647D01*
X34514777Y16251504D01*
X34562396Y16346742D01*
X34657634Y16394362D01*
X35181443Y16394362D01*
X35181443Y17299123D02*
X34657634Y17299123D01*
X34562396Y17251504D01*
X34514777Y17156266D01*
X34514777Y16965790D01*
X34562396Y16870552D01*
X35133824Y17299123D02*
X35181443Y17203885D01*
X35181443Y16965790D01*
X35133824Y16870552D01*
X35038586Y16822933D01*
X34943348Y16822933D01*
X34848110Y16870552D01*
X34800491Y16965790D01*
X34800491Y17203885D01*
X34752872Y17299123D01*
X35181443Y18299123D02*
X35181443Y17727695D01*
X35181443Y18013409D02*
X34181443Y18013409D01*
X34324301Y17918171D01*
X34419539Y17822933D01*
X34467158Y17727695D01*
X22566666Y37437619D02*
X22566666Y38437619D01*
X22566666Y37961428D02*
X23138095Y37961428D01*
X23138095Y37437619D02*
X23138095Y38437619D01*
X23995238Y37485238D02*
X23900000Y37437619D01*
X23709523Y37437619D01*
X23614285Y37485238D01*
X23566666Y37580476D01*
X23566666Y37961428D01*
X23614285Y38056666D01*
X23709523Y38104285D01*
X23900000Y38104285D01*
X23995238Y38056666D01*
X24042857Y37961428D01*
X24042857Y37866190D01*
X23566666Y37770952D01*
X24900000Y37437619D02*
X24900000Y37961428D01*
X24852380Y38056666D01*
X24757142Y38104285D01*
X24566666Y38104285D01*
X24471428Y38056666D01*
X24900000Y37485238D02*
X24804761Y37437619D01*
X24566666Y37437619D01*
X24471428Y37485238D01*
X24423809Y37580476D01*
X24423809Y37675714D01*
X24471428Y37770952D01*
X24566666Y37818571D01*
X24804761Y37818571D01*
X24900000Y37866190D01*
X25804761Y37437619D02*
X25804761Y38437619D01*
X25804761Y37485238D02*
X25709523Y37437619D01*
X25519047Y37437619D01*
X25423809Y37485238D01*
X25376190Y37532857D01*
X25328571Y37628095D01*
X25328571Y37913809D01*
X25376190Y38009047D01*
X25423809Y38056666D01*
X25519047Y38104285D01*
X25709523Y38104285D01*
X25804761Y38056666D01*
X26661904Y37485238D02*
X26566666Y37437619D01*
X26376190Y37437619D01*
X26280952Y37485238D01*
X26233333Y37580476D01*
X26233333Y37961428D01*
X26280952Y38056666D01*
X26376190Y38104285D01*
X26566666Y38104285D01*
X26661904Y38056666D01*
X26709523Y37961428D01*
X26709523Y37866190D01*
X26233333Y37770952D01*
X27138095Y37437619D02*
X27138095Y38104285D01*
X27138095Y37913809D02*
X27185714Y38009047D01*
X27233333Y38056666D01*
X27328571Y38104285D01*
X27423809Y38104285D01*
X28280952Y37437619D02*
X27709523Y37437619D01*
X27995238Y37437619D02*
X27995238Y38437619D01*
X27900000Y38294761D01*
X27804761Y38199523D01*
X27709523Y38151904D01*
X30970926Y28399834D02*
X30494736Y28066501D01*
X30970926Y27828406D02*
X29970926Y27828406D01*
X29970926Y28209358D01*
X30018546Y28304596D01*
X30066165Y28352215D01*
X30161403Y28399834D01*
X30304260Y28399834D01*
X30399498Y28352215D01*
X30447117Y28304596D01*
X30494736Y28209358D01*
X30494736Y27828406D01*
X30970926Y29352215D02*
X30970926Y28780787D01*
X30970926Y29066501D02*
X29970926Y29066501D01*
X30113784Y28971263D01*
X30209022Y28876025D01*
X30256641Y28780787D01*
X30304260Y30209358D02*
X30970926Y30209358D01*
X29923307Y29971263D02*
X30637593Y29733168D01*
X30637593Y30352215D01*
X4846803Y24950846D02*
X4513470Y25427036D01*
X4275375Y24950846D02*
X4275375Y25950846D01*
X4656327Y25950846D01*
X4751565Y25903227D01*
X4799184Y25855607D01*
X4846803Y25760369D01*
X4846803Y25617512D01*
X4799184Y25522274D01*
X4751565Y25474655D01*
X4656327Y25427036D01*
X4275375Y25427036D01*
X5275375Y24950846D02*
X5275375Y25950846D01*
X5656327Y25950846D01*
X5751565Y25903227D01*
X5799184Y25855607D01*
X5846803Y25760369D01*
X5846803Y25617512D01*
X5799184Y25522274D01*
X5751565Y25474655D01*
X5656327Y25427036D01*
X5275375Y25427036D01*
X6132518Y25950846D02*
X6465851Y24950846D01*
X6799184Y25950846D01*
X7656327Y24950846D02*
X7084899Y24950846D01*
X7370613Y24950846D02*
X7370613Y25950846D01*
X7275375Y25807988D01*
X7180137Y25712750D01*
X7084899Y25665131D01*
X25428563Y13960799D02*
X25333325Y14008418D01*
X25190468Y14008418D01*
X25047611Y13960799D01*
X24952373Y13865560D01*
X24904754Y13770322D01*
X24857135Y13579846D01*
X24857135Y13436989D01*
X24904754Y13246513D01*
X24952373Y13151275D01*
X25047611Y13056037D01*
X25190468Y13008418D01*
X25285706Y13008418D01*
X25428563Y13056037D01*
X25476182Y13103656D01*
X25476182Y13436989D01*
X25285706Y13436989D01*
X25904754Y13008418D02*
X25904754Y14008418D01*
X26476182Y13008418D01*
X26476182Y14008418D01*
X26952373Y13008418D02*
X26952373Y14008418D01*
X27190468Y14008418D01*
X27333325Y13960799D01*
X27428563Y13865560D01*
X27476182Y13770322D01*
X27523801Y13579846D01*
X27523801Y13436989D01*
X27476182Y13246513D01*
X27428563Y13151275D01*
X27333325Y13056037D01*
X27190468Y13008418D01*
X26952373Y13008418D01*
X27857135Y14008418D02*
X28476182Y14008418D01*
X28142849Y13627465D01*
X28285706Y13627465D01*
X28380944Y13579846D01*
X28428563Y13532227D01*
X28476182Y13436989D01*
X28476182Y13198894D01*
X28428563Y13103656D01*
X28380944Y13056037D01*
X28285706Y13008418D01*
X27999992Y13008418D01*
X27904754Y13056037D01*
X27857135Y13103656D01*
X33965307Y39436201D02*
X33489117Y39102867D01*
X33965307Y38864772D02*
X32965307Y38864772D01*
X32965307Y39245724D01*
X33012927Y39340963D01*
X33060546Y39388582D01*
X33155784Y39436201D01*
X33298641Y39436201D01*
X33393879Y39388582D01*
X33441498Y39340963D01*
X33489117Y39245724D01*
X33489117Y38864772D01*
X33965307Y40388582D02*
X33965307Y39817153D01*
X33965307Y40102867D02*
X32965307Y40102867D01*
X33108165Y40007629D01*
X33203403Y39912391D01*
X33251022Y39817153D01*
X33679593Y40769534D02*
X33679593Y41245724D01*
X33965307Y40674296D02*
X32965307Y41007629D01*
X33965307Y41340963D01*
X33965307Y42102867D02*
X32965307Y42102867D01*
X33917688Y42102867D02*
X33965307Y42007629D01*
X33965307Y41817153D01*
X33917688Y41721915D01*
X33870069Y41674296D01*
X33774831Y41626677D01*
X33489117Y41626677D01*
X33393879Y41674296D01*
X33346260Y41721915D01*
X33298641Y41817153D01*
X33298641Y42007629D01*
X33346260Y42102867D01*
X33298641Y42579058D02*
X34155784Y42579058D01*
X34251022Y42531439D01*
X34298641Y42436201D01*
X34298641Y42388582D01*
X32965307Y42579058D02*
X33012927Y42531439D01*
X33060546Y42579058D01*
X33012927Y42626677D01*
X32965307Y42579058D01*
X33060546Y42579058D01*
X33298641Y43483820D02*
X33965307Y43483820D01*
X33298641Y43055248D02*
X33822450Y43055248D01*
X33917688Y43102867D01*
X33965307Y43198105D01*
X33965307Y43340963D01*
X33917688Y43436201D01*
X33870069Y43483820D01*
X33917688Y43912391D02*
X33965307Y44007629D01*
X33965307Y44198105D01*
X33917688Y44293343D01*
X33822450Y44340963D01*
X33774831Y44340963D01*
X33679593Y44293343D01*
X33631974Y44198105D01*
X33631974Y44055248D01*
X33584355Y43960010D01*
X33489117Y43912391D01*
X33441498Y43912391D01*
X33346260Y43960010D01*
X33298641Y44055248D01*
X33298641Y44198105D01*
X33346260Y44293343D01*
X33298641Y44626677D02*
X33298641Y45007629D01*
X32965307Y44769534D02*
X33822450Y44769534D01*
X33917688Y44817153D01*
X33965307Y44912391D01*
X33965307Y45007629D01*
X33965307Y45864772D02*
X33965307Y45293343D01*
X33965307Y45579058D02*
X32965307Y45579058D01*
X33108165Y45483820D01*
X33203403Y45388582D01*
X33251022Y45293343D01*
X35281202Y25373723D02*
X35185964Y25421342D01*
X35043107Y25421342D01*
X34900250Y25373723D01*
X34805012Y25278484D01*
X34757393Y25183246D01*
X34709774Y24992770D01*
X34709774Y24849913D01*
X34757393Y24659437D01*
X34805012Y24564199D01*
X34900250Y24468961D01*
X35043107Y24421342D01*
X35138345Y24421342D01*
X35281202Y24468961D01*
X35328821Y24516580D01*
X35328821Y24849913D01*
X35138345Y24849913D01*
X35757393Y24421342D02*
X35757393Y25421342D01*
X36328821Y24421342D01*
X36328821Y25421342D01*
X36805012Y24421342D02*
X36805012Y25421342D01*
X37043107Y25421342D01*
X37185964Y25373723D01*
X37281202Y25278484D01*
X37328821Y25183246D01*
X37376440Y24992770D01*
X37376440Y24849913D01*
X37328821Y24659437D01*
X37281202Y24564199D01*
X37185964Y24468961D01*
X37043107Y24421342D01*
X36805012Y24421342D01*
X37757393Y25326103D02*
X37805012Y25373723D01*
X37900250Y25421342D01*
X38138345Y25421342D01*
X38233583Y25373723D01*
X38281202Y25326103D01*
X38328821Y25230865D01*
X38328821Y25135627D01*
X38281202Y24992770D01*
X37709774Y24421342D01*
X38328821Y24421342D01*
X36001269Y28307108D02*
X35525079Y27973775D01*
X36001269Y27735680D02*
X35001269Y27735680D01*
X35001269Y28116632D01*
X35048889Y28211870D01*
X35096508Y28259489D01*
X35191746Y28307108D01*
X35334603Y28307108D01*
X35429841Y28259489D01*
X35477460Y28211870D01*
X35525079Y28116632D01*
X35525079Y27735680D01*
X36001269Y29259489D02*
X36001269Y28688061D01*
X36001269Y28973775D02*
X35001269Y28973775D01*
X35144127Y28878537D01*
X35239365Y28783299D01*
X35286984Y28688061D01*
X35096508Y29640442D02*
X35048889Y29688061D01*
X35001269Y29783299D01*
X35001269Y30021394D01*
X35048889Y30116632D01*
X35096508Y30164251D01*
X35191746Y30211870D01*
X35286984Y30211870D01*
X35429841Y30164251D01*
X36001269Y29592823D01*
X36001269Y30211870D01*
X33474507Y28307108D02*
X32998317Y27973775D01*
X33474507Y27735680D02*
X32474507Y27735680D01*
X32474507Y28116632D01*
X32522127Y28211870D01*
X32569746Y28259489D01*
X32664984Y28307108D01*
X32807841Y28307108D01*
X32903079Y28259489D01*
X32950698Y28211870D01*
X32998317Y28116632D01*
X32998317Y27735680D01*
X33474507Y29259489D02*
X33474507Y28688061D01*
X33474507Y28973775D02*
X32474507Y28973775D01*
X32617365Y28878537D01*
X32712603Y28783299D01*
X32760222Y28688061D01*
X32474507Y29592823D02*
X32474507Y30211870D01*
X32855460Y29878537D01*
X32855460Y30021394D01*
X32903079Y30116632D01*
X32950698Y30164251D01*
X33045936Y30211870D01*
X33284031Y30211870D01*
X33379269Y30164251D01*
X33426888Y30116632D01*
X33474507Y30021394D01*
X33474507Y29735680D01*
X33426888Y29640442D01*
X33379269Y29592823D01*
X14264235Y44220387D02*
X13264235Y44220387D01*
X13264235Y44458483D01*
X13311855Y44601340D01*
X13407093Y44696578D01*
X13502331Y44744197D01*
X13692807Y44791816D01*
X13835664Y44791816D01*
X14026140Y44744197D01*
X14121378Y44696578D01*
X14216616Y44601340D01*
X14264235Y44458483D01*
X14264235Y44220387D01*
X14168997Y45791816D02*
X14216616Y45744197D01*
X14264235Y45601340D01*
X14264235Y45506102D01*
X14216616Y45363244D01*
X14121378Y45268006D01*
X14026140Y45220387D01*
X13835664Y45172768D01*
X13692807Y45172768D01*
X13502331Y45220387D01*
X13407093Y45268006D01*
X13311855Y45363244D01*
X13264235Y45506102D01*
X13264235Y45601340D01*
X13311855Y45744197D01*
X13359474Y45791816D01*
X13359474Y46172768D02*
X13311855Y46220387D01*
X13264235Y46315625D01*
X13264235Y46553721D01*
X13311855Y46648959D01*
X13359474Y46696578D01*
X13454712Y46744197D01*
X13549950Y46744197D01*
X13692807Y46696578D01*
X14264235Y46125149D01*
X14264235Y46744197D01*
X5580476Y39977619D02*
X5247142Y40453809D01*
X5009047Y39977619D02*
X5009047Y40977619D01*
X5390000Y40977619D01*
X5485238Y40930000D01*
X5532857Y40882380D01*
X5580476Y40787142D01*
X5580476Y40644285D01*
X5532857Y40549047D01*
X5485238Y40501428D01*
X5390000Y40453809D01*
X5009047Y40453809D01*
X6009047Y40644285D02*
X6009047Y39644285D01*
X6009047Y40596666D02*
X6104285Y40644285D01*
X6294761Y40644285D01*
X6390000Y40596666D01*
X6437619Y40549047D01*
X6485238Y40453809D01*
X6485238Y40168095D01*
X6437619Y40072857D01*
X6390000Y40025238D01*
X6294761Y39977619D01*
X6104285Y39977619D01*
X6009047Y40025238D01*
X7342380Y40025238D02*
X7247142Y39977619D01*
X7056666Y39977619D01*
X6961428Y40025238D01*
X6913809Y40072857D01*
X6866190Y40168095D01*
X6866190Y40453809D01*
X6913809Y40549047D01*
X6961428Y40596666D01*
X7056666Y40644285D01*
X7247142Y40644285D01*
X7342380Y40596666D01*
X7723333Y40263333D02*
X8199523Y40263333D01*
X7628095Y39977619D02*
X7961428Y40977619D01*
X8294761Y39977619D01*
X9056666Y39977619D02*
X9056666Y40977619D01*
X9056666Y40025238D02*
X8961428Y39977619D01*
X8770952Y39977619D01*
X8675714Y40025238D01*
X8628095Y40072857D01*
X8580476Y40168095D01*
X8580476Y40453809D01*
X8628095Y40549047D01*
X8675714Y40596666D01*
X8770952Y40644285D01*
X8961428Y40644285D01*
X9056666Y40596666D01*
X9532857Y40644285D02*
X9532857Y39787142D01*
X9485238Y39691904D01*
X9390000Y39644285D01*
X9342380Y39644285D01*
X9532857Y40977619D02*
X9485238Y40930000D01*
X9532857Y40882380D01*
X9580476Y40930000D01*
X9532857Y40977619D01*
X9532857Y40882380D01*
X10437619Y40644285D02*
X10437619Y39977619D01*
X10009047Y40644285D02*
X10009047Y40120476D01*
X10056666Y40025238D01*
X10151904Y39977619D01*
X10294761Y39977619D01*
X10390000Y40025238D01*
X10437619Y40072857D01*
X10866190Y40025238D02*
X10961428Y39977619D01*
X11151904Y39977619D01*
X11247142Y40025238D01*
X11294761Y40120476D01*
X11294761Y40168095D01*
X11247142Y40263333D01*
X11151904Y40310952D01*
X11009047Y40310952D01*
X10913809Y40358571D01*
X10866190Y40453809D01*
X10866190Y40501428D01*
X10913809Y40596666D01*
X11009047Y40644285D01*
X11151904Y40644285D01*
X11247142Y40596666D01*
X11580476Y40644285D02*
X11961428Y40644285D01*
X11723333Y40977619D02*
X11723333Y40120476D01*
X11770952Y40025238D01*
X11866190Y39977619D01*
X11961428Y39977619D01*
X12818571Y39977619D02*
X12247142Y39977619D01*
X12532857Y39977619D02*
X12532857Y40977619D01*
X12437619Y40834761D01*
X12342380Y40739523D01*
X12247142Y40691904D01*
X20928663Y17326444D02*
X20595330Y17802634D01*
X20357234Y17326444D02*
X20357234Y18326444D01*
X20738187Y18326444D01*
X20833425Y18278825D01*
X20881044Y18231205D01*
X20928663Y18135967D01*
X20928663Y17993110D01*
X20881044Y17897872D01*
X20833425Y17850253D01*
X20738187Y17802634D01*
X20357234Y17802634D01*
X21309615Y17374063D02*
X21404853Y17326444D01*
X21595330Y17326444D01*
X21690568Y17374063D01*
X21738187Y17469301D01*
X21738187Y17516920D01*
X21690568Y17612158D01*
X21595330Y17659777D01*
X21452473Y17659777D01*
X21357234Y17707396D01*
X21309615Y17802634D01*
X21309615Y17850253D01*
X21357234Y17945491D01*
X21452473Y17993110D01*
X21595330Y17993110D01*
X21690568Y17945491D01*
X22595330Y17326444D02*
X22595330Y17850253D01*
X22547711Y17945491D01*
X22452473Y17993110D01*
X22261996Y17993110D01*
X22166758Y17945491D01*
X22595330Y17374063D02*
X22500092Y17326444D01*
X22261996Y17326444D01*
X22166758Y17374063D01*
X22119139Y17469301D01*
X22119139Y17564539D01*
X22166758Y17659777D01*
X22261996Y17707396D01*
X22500092Y17707396D01*
X22595330Y17755015D01*
X23595330Y17326444D02*
X23023901Y17326444D01*
X23309615Y17326444D02*
X23309615Y18326444D01*
X23214377Y18183586D01*
X23119139Y18088348D01*
X23023901Y18040729D01*
X29558345Y25421342D02*
X30129774Y25421342D01*
X29844059Y24421342D02*
X29844059Y25421342D01*
X30844059Y24468961D02*
X30748821Y24421342D01*
X30558345Y24421342D01*
X30463107Y24468961D01*
X30415488Y24564199D01*
X30415488Y24945151D01*
X30463107Y25040389D01*
X30558345Y25088008D01*
X30748821Y25088008D01*
X30844059Y25040389D01*
X30891678Y24945151D01*
X30891678Y24849913D01*
X30415488Y24754675D01*
X31272631Y24468961D02*
X31367869Y24421342D01*
X31558345Y24421342D01*
X31653583Y24468961D01*
X31701202Y24564199D01*
X31701202Y24611818D01*
X31653583Y24707056D01*
X31558345Y24754675D01*
X31415488Y24754675D01*
X31320250Y24802294D01*
X31272631Y24897532D01*
X31272631Y24945151D01*
X31320250Y25040389D01*
X31415488Y25088008D01*
X31558345Y25088008D01*
X31653583Y25040389D01*
X31986917Y25088008D02*
X32367869Y25088008D01*
X32129774Y25421342D02*
X32129774Y24564199D01*
X32177393Y24468961D01*
X32272631Y24421342D01*
X32367869Y24421342D01*
X32605964Y25421342D02*
X33225012Y25421342D01*
X32891678Y25040389D01*
X33034536Y25040389D01*
X33129774Y24992770D01*
X33177393Y24945151D01*
X33225012Y24849913D01*
X33225012Y24611818D01*
X33177393Y24516580D01*
X33129774Y24468961D01*
X33034536Y24421342D01*
X32748821Y24421342D01*
X32653583Y24468961D01*
X32605964Y24516580D01*
X4682650Y22400903D02*
X4349317Y22877093D01*
X4111221Y22400903D02*
X4111221Y23400903D01*
X4492174Y23400903D01*
X4587412Y23353284D01*
X4635031Y23305664D01*
X4682650Y23210426D01*
X4682650Y23067569D01*
X4635031Y22972331D01*
X4587412Y22924712D01*
X4492174Y22877093D01*
X4111221Y22877093D01*
X5682650Y22496141D02*
X5635031Y22448522D01*
X5492174Y22400903D01*
X5396936Y22400903D01*
X5254078Y22448522D01*
X5158840Y22543760D01*
X5111221Y22638998D01*
X5063602Y22829474D01*
X5063602Y22972331D01*
X5111221Y23162807D01*
X5158840Y23258045D01*
X5254078Y23353284D01*
X5396936Y23400903D01*
X5492174Y23400903D01*
X5635031Y23353284D01*
X5682650Y23305664D01*
X6682650Y22496141D02*
X6635031Y22448522D01*
X6492174Y22400903D01*
X6396936Y22400903D01*
X6254078Y22448522D01*
X6158840Y22543760D01*
X6111221Y22638998D01*
X6063602Y22829474D01*
X6063602Y22972331D01*
X6111221Y23162807D01*
X6158840Y23258045D01*
X6254078Y23353284D01*
X6396936Y23400903D01*
X6492174Y23400903D01*
X6635031Y23353284D01*
X6682650Y23305664D01*
X7635031Y22400903D02*
X7063602Y22400903D01*
X7349317Y22400903D02*
X7349317Y23400903D01*
X7254078Y23258045D01*
X7158840Y23162807D01*
X7063602Y23115188D01*
X27672380Y26416190D02*
X27196190Y26082857D01*
X27672380Y25844761D02*
X26672380Y25844761D01*
X26672380Y26225714D01*
X26720000Y26320952D01*
X26767619Y26368571D01*
X26862857Y26416190D01*
X27005714Y26416190D01*
X27100952Y26368571D01*
X27148571Y26320952D01*
X27196190Y26225714D01*
X27196190Y25844761D01*
X27005714Y27273333D02*
X27815238Y27273333D01*
X27910476Y27225714D01*
X27958095Y27178095D01*
X28005714Y27082857D01*
X28005714Y26940000D01*
X27958095Y26844761D01*
X27624761Y27273333D02*
X27672380Y27178095D01*
X27672380Y26987619D01*
X27624761Y26892380D01*
X27577142Y26844761D01*
X27481904Y26797142D01*
X27196190Y26797142D01*
X27100952Y26844761D01*
X27053333Y26892380D01*
X27005714Y26987619D01*
X27005714Y27178095D01*
X27053333Y27273333D01*
X27005714Y27749523D02*
X27672380Y27749523D01*
X27100952Y27749523D02*
X27053333Y27797142D01*
X27005714Y27892380D01*
X27005714Y28035238D01*
X27053333Y28130476D01*
X27148571Y28178095D01*
X27672380Y28178095D01*
X27672380Y29082857D02*
X26672380Y29082857D01*
X27624761Y29082857D02*
X27672380Y28987619D01*
X27672380Y28797142D01*
X27624761Y28701904D01*
X27577142Y28654285D01*
X27481904Y28606666D01*
X27196190Y28606666D01*
X27100952Y28654285D01*
X27053333Y28701904D01*
X27005714Y28797142D01*
X27005714Y28987619D01*
X27053333Y29082857D01*
X27672380Y30082857D02*
X27672380Y29511428D01*
X27672380Y29797142D02*
X26672380Y29797142D01*
X26815238Y29701904D01*
X26910476Y29606666D01*
X26958095Y29511428D01*
X21621904Y25690000D02*
X21526666Y25737619D01*
X21383809Y25737619D01*
X21240952Y25690000D01*
X21145714Y25594761D01*
X21098095Y25499523D01*
X21050476Y25309047D01*
X21050476Y25166190D01*
X21098095Y24975714D01*
X21145714Y24880476D01*
X21240952Y24785238D01*
X21383809Y24737619D01*
X21479047Y24737619D01*
X21621904Y24785238D01*
X21669523Y24832857D01*
X21669523Y25166190D01*
X21479047Y25166190D01*
X22098095Y24737619D02*
X22098095Y25737619D01*
X22669523Y24737619D01*
X22669523Y25737619D01*
X23145714Y24737619D02*
X23145714Y25737619D01*
X23383809Y25737619D01*
X23526666Y25690000D01*
X23621904Y25594761D01*
X23669523Y25499523D01*
X23717142Y25309047D01*
X23717142Y25166190D01*
X23669523Y24975714D01*
X23621904Y24880476D01*
X23526666Y24785238D01*
X23383809Y24737619D01*
X23145714Y24737619D01*
X24621904Y25737619D02*
X24145714Y25737619D01*
X24098095Y25261428D01*
X24145714Y25309047D01*
X24240952Y25356666D01*
X24479047Y25356666D01*
X24574285Y25309047D01*
X24621904Y25261428D01*
X24669523Y25166190D01*
X24669523Y24928095D01*
X24621904Y24832857D01*
X24574285Y24785238D01*
X24479047Y24737619D01*
X24240952Y24737619D01*
X24145714Y24785238D01*
X24098095Y24832857D01*
X1301904Y27697619D02*
X1301904Y28697619D01*
X1540000Y28697619D01*
X1682857Y28650000D01*
X1778095Y28554761D01*
X1825714Y28459523D01*
X1873333Y28269047D01*
X1873333Y28126190D01*
X1825714Y27935714D01*
X1778095Y27840476D01*
X1682857Y27745238D01*
X1540000Y27697619D01*
X1301904Y27697619D01*
X2873333Y27792857D02*
X2825714Y27745238D01*
X2682857Y27697619D01*
X2587619Y27697619D01*
X2444761Y27745238D01*
X2349523Y27840476D01*
X2301904Y27935714D01*
X2254285Y28126190D01*
X2254285Y28269047D01*
X2301904Y28459523D01*
X2349523Y28554761D01*
X2444761Y28650000D01*
X2587619Y28697619D01*
X2682857Y28697619D01*
X2825714Y28650000D01*
X2873333Y28602380D01*
X3825714Y27697619D02*
X3254285Y27697619D01*
X3540000Y27697619D02*
X3540000Y28697619D01*
X3444761Y28554761D01*
X3349523Y28459523D01*
X3254285Y28411904D01*
X15899047Y28277619D02*
X16470476Y28277619D01*
X16184761Y27277619D02*
X16184761Y28277619D01*
X17184761Y27325238D02*
X17089523Y27277619D01*
X16899047Y27277619D01*
X16803809Y27325238D01*
X16756190Y27420476D01*
X16756190Y27801428D01*
X16803809Y27896666D01*
X16899047Y27944285D01*
X17089523Y27944285D01*
X17184761Y27896666D01*
X17232380Y27801428D01*
X17232380Y27706190D01*
X16756190Y27610952D01*
X17613333Y27325238D02*
X17708571Y27277619D01*
X17899047Y27277619D01*
X17994285Y27325238D01*
X18041904Y27420476D01*
X18041904Y27468095D01*
X17994285Y27563333D01*
X17899047Y27610952D01*
X17756190Y27610952D01*
X17660952Y27658571D01*
X17613333Y27753809D01*
X17613333Y27801428D01*
X17660952Y27896666D01*
X17756190Y27944285D01*
X17899047Y27944285D01*
X17994285Y27896666D01*
X18327619Y27944285D02*
X18708571Y27944285D01*
X18470476Y28277619D02*
X18470476Y27420476D01*
X18518095Y27325238D01*
X18613333Y27277619D01*
X18708571Y27277619D01*
X19565714Y27277619D02*
X18994285Y27277619D01*
X19280000Y27277619D02*
X19280000Y28277619D01*
X19184761Y28134761D01*
X19089523Y28039523D01*
X18994285Y27991904D01*
X18424510Y30072600D02*
X18091177Y30548790D01*
X17853081Y30072600D02*
X17853081Y31072600D01*
X18234034Y31072600D01*
X18329272Y31024981D01*
X18376891Y30977361D01*
X18424510Y30882123D01*
X18424510Y30739266D01*
X18376891Y30644028D01*
X18329272Y30596409D01*
X18234034Y30548790D01*
X17853081Y30548790D01*
X18853081Y30072600D02*
X18853081Y31072600D01*
X19234034Y31072600D01*
X19329272Y31024981D01*
X19376891Y30977361D01*
X19424510Y30882123D01*
X19424510Y30739266D01*
X19376891Y30644028D01*
X19329272Y30596409D01*
X19234034Y30548790D01*
X18853081Y30548790D01*
X20424510Y30167838D02*
X20376891Y30120219D01*
X20234034Y30072600D01*
X20138796Y30072600D01*
X19995938Y30120219D01*
X19900700Y30215457D01*
X19853081Y30310695D01*
X19805462Y30501171D01*
X19805462Y30644028D01*
X19853081Y30834504D01*
X19900700Y30929742D01*
X19995938Y31024981D01*
X20138796Y31072600D01*
X20234034Y31072600D01*
X20376891Y31024981D01*
X20424510Y30977361D01*
X21281653Y30739266D02*
X21281653Y30072600D01*
X21043557Y31120219D02*
X20805462Y30405933D01*
X21424510Y30405933D01*
X30131443Y15108647D02*
X29655253Y14775314D01*
X30131443Y14537219D02*
X29131443Y14537219D01*
X29131443Y14918171D01*
X29179063Y15013409D01*
X29226682Y15061028D01*
X29321920Y15108647D01*
X29464777Y15108647D01*
X29560015Y15061028D01*
X29607634Y15013409D01*
X29655253Y14918171D01*
X29655253Y14537219D01*
X30131443Y15537219D02*
X29464777Y15537219D01*
X29560015Y15537219D02*
X29512396Y15584838D01*
X29464777Y15680076D01*
X29464777Y15822933D01*
X29512396Y15918171D01*
X29607634Y15965790D01*
X30131443Y15965790D01*
X29607634Y15965790D02*
X29512396Y16013409D01*
X29464777Y16108647D01*
X29464777Y16251504D01*
X29512396Y16346742D01*
X29607634Y16394362D01*
X30131443Y16394362D01*
X30131443Y17299123D02*
X29607634Y17299123D01*
X29512396Y17251504D01*
X29464777Y17156266D01*
X29464777Y16965790D01*
X29512396Y16870552D01*
X30083824Y17299123D02*
X30131443Y17203885D01*
X30131443Y16965790D01*
X30083824Y16870552D01*
X29988586Y16822933D01*
X29893348Y16822933D01*
X29798110Y16870552D01*
X29750491Y16965790D01*
X29750491Y17203885D01*
X29702872Y17299123D01*
X30131443Y18299123D02*
X30131443Y17727695D01*
X30131443Y18013409D02*
X29131443Y18013409D01*
X29274301Y17918171D01*
X29369539Y17822933D01*
X29417158Y17727695D01*
X18447051Y37669114D02*
X18113718Y38145304D01*
X17875622Y37669114D02*
X17875622Y38669114D01*
X18256575Y38669114D01*
X18351813Y38621495D01*
X18399432Y38573875D01*
X18447051Y38478637D01*
X18447051Y38335780D01*
X18399432Y38240542D01*
X18351813Y38192923D01*
X18256575Y38145304D01*
X17875622Y38145304D01*
X18875622Y37669114D02*
X18875622Y38669114D01*
X19256575Y38669114D01*
X19351813Y38621495D01*
X19399432Y38573875D01*
X19447051Y38478637D01*
X19447051Y38335780D01*
X19399432Y38240542D01*
X19351813Y38192923D01*
X19256575Y38145304D01*
X18875622Y38145304D01*
X20447051Y37764352D02*
X20399432Y37716733D01*
X20256575Y37669114D01*
X20161337Y37669114D01*
X20018479Y37716733D01*
X19923241Y37811971D01*
X19875622Y37907209D01*
X19828003Y38097685D01*
X19828003Y38240542D01*
X19875622Y38431018D01*
X19923241Y38526256D01*
X20018479Y38621495D01*
X20161337Y38669114D01*
X20256575Y38669114D01*
X20399432Y38621495D01*
X20447051Y38573875D01*
X21399432Y37669114D02*
X20828003Y37669114D01*
X21113718Y37669114D02*
X21113718Y38669114D01*
X21018479Y38526256D01*
X20923241Y38431018D01*
X20828003Y38383399D01*
X2663333Y19915238D02*
X2806190Y19867619D01*
X3044285Y19867619D01*
X3139523Y19915238D01*
X3187142Y19962857D01*
X3234761Y20058095D01*
X3234761Y20153333D01*
X3187142Y20248571D01*
X3139523Y20296190D01*
X3044285Y20343809D01*
X2853809Y20391428D01*
X2758571Y20439047D01*
X2710952Y20486666D01*
X2663333Y20581904D01*
X2663333Y20677142D01*
X2710952Y20772380D01*
X2758571Y20820000D01*
X2853809Y20867619D01*
X3091904Y20867619D01*
X3234761Y20820000D01*
X4044285Y19915238D02*
X3949047Y19867619D01*
X3758571Y19867619D01*
X3663333Y19915238D01*
X3615714Y20010476D01*
X3615714Y20391428D01*
X3663333Y20486666D01*
X3758571Y20534285D01*
X3949047Y20534285D01*
X4044285Y20486666D01*
X4091904Y20391428D01*
X4091904Y20296190D01*
X3615714Y20200952D01*
X4520476Y19867619D02*
X4520476Y20534285D01*
X4520476Y20343809D02*
X4568095Y20439047D01*
X4615714Y20486666D01*
X4710952Y20534285D01*
X4806190Y20534285D01*
X5139523Y19867619D02*
X5139523Y20534285D01*
X5139523Y20867619D02*
X5091904Y20820000D01*
X5139523Y20772380D01*
X5187142Y20820000D01*
X5139523Y20867619D01*
X5139523Y20772380D01*
X5996666Y19915238D02*
X5901428Y19867619D01*
X5710952Y19867619D01*
X5615714Y19915238D01*
X5568095Y20010476D01*
X5568095Y20391428D01*
X5615714Y20486666D01*
X5710952Y20534285D01*
X5901428Y20534285D01*
X5996666Y20486666D01*
X6044285Y20391428D01*
X6044285Y20296190D01*
X5568095Y20200952D01*
X6425238Y19915238D02*
X6520476Y19867619D01*
X6710952Y19867619D01*
X6806190Y19915238D01*
X6853809Y20010476D01*
X6853809Y20058095D01*
X6806190Y20153333D01*
X6710952Y20200952D01*
X6568095Y20200952D01*
X6472857Y20248571D01*
X6425238Y20343809D01*
X6425238Y20391428D01*
X6472857Y20486666D01*
X6568095Y20534285D01*
X6710952Y20534285D01*
X6806190Y20486666D01*
X7853809Y19867619D02*
X7520476Y20343809D01*
X7282380Y19867619D02*
X7282380Y20867619D01*
X7663333Y20867619D01*
X7758571Y20820000D01*
X7806190Y20772380D01*
X7853809Y20677142D01*
X7853809Y20534285D01*
X7806190Y20439047D01*
X7758571Y20391428D01*
X7663333Y20343809D01*
X7282380Y20343809D01*
X8663333Y19915238D02*
X8568095Y19867619D01*
X8377619Y19867619D01*
X8282380Y19915238D01*
X8234761Y20010476D01*
X8234761Y20391428D01*
X8282380Y20486666D01*
X8377619Y20534285D01*
X8568095Y20534285D01*
X8663333Y20486666D01*
X8710952Y20391428D01*
X8710952Y20296190D01*
X8234761Y20200952D01*
X9091904Y19915238D02*
X9187142Y19867619D01*
X9377619Y19867619D01*
X9472857Y19915238D01*
X9520476Y20010476D01*
X9520476Y20058095D01*
X9472857Y20153333D01*
X9377619Y20200952D01*
X9234761Y20200952D01*
X9139523Y20248571D01*
X9091904Y20343809D01*
X9091904Y20391428D01*
X9139523Y20486666D01*
X9234761Y20534285D01*
X9377619Y20534285D01*
X9472857Y20486666D01*
X9901428Y20153333D02*
X10377619Y20153333D01*
X9806190Y19867619D02*
X10139523Y20867619D01*
X10472857Y19867619D01*
X11234761Y19867619D02*
X11234761Y20867619D01*
X11234761Y19915238D02*
X11139523Y19867619D01*
X10949047Y19867619D01*
X10853809Y19915238D01*
X10806190Y19962857D01*
X10758571Y20058095D01*
X10758571Y20343809D01*
X10806190Y20439047D01*
X10853809Y20486666D01*
X10949047Y20534285D01*
X11139523Y20534285D01*
X11234761Y20486666D01*
X11710952Y20534285D02*
X11710952Y19677142D01*
X11663333Y19581904D01*
X11568095Y19534285D01*
X11520476Y19534285D01*
X11710952Y20867619D02*
X11663333Y20820000D01*
X11710952Y20772380D01*
X11758571Y20820000D01*
X11710952Y20867619D01*
X11710952Y20772380D01*
X12615714Y20534285D02*
X12615714Y19867619D01*
X12187142Y20534285D02*
X12187142Y20010476D01*
X12234761Y19915238D01*
X12330000Y19867619D01*
X12472857Y19867619D01*
X12568095Y19915238D01*
X12615714Y19962857D01*
X13044285Y19915238D02*
X13139523Y19867619D01*
X13330000Y19867619D01*
X13425238Y19915238D01*
X13472857Y20010476D01*
X13472857Y20058095D01*
X13425238Y20153333D01*
X13330000Y20200952D01*
X13187142Y20200952D01*
X13091904Y20248571D01*
X13044285Y20343809D01*
X13044285Y20391428D01*
X13091904Y20486666D01*
X13187142Y20534285D01*
X13330000Y20534285D01*
X13425238Y20486666D01*
X13758571Y20534285D02*
X14139523Y20534285D01*
X13901428Y20867619D02*
X13901428Y20010476D01*
X13949047Y19915238D01*
X14044285Y19867619D01*
X14139523Y19867619D01*
X14996666Y19867619D02*
X14425238Y19867619D01*
X14710952Y19867619D02*
X14710952Y20867619D01*
X14615714Y20724761D01*
X14520476Y20629523D01*
X14425238Y20581904D01*
X18447051Y32574716D02*
X18113718Y33050906D01*
X17875622Y32574716D02*
X17875622Y33574716D01*
X18256575Y33574716D01*
X18351813Y33527097D01*
X18399432Y33479477D01*
X18447051Y33384239D01*
X18447051Y33241382D01*
X18399432Y33146144D01*
X18351813Y33098525D01*
X18256575Y33050906D01*
X17875622Y33050906D01*
X18875622Y32574716D02*
X18875622Y33574716D01*
X19256575Y33574716D01*
X19351813Y33527097D01*
X19399432Y33479477D01*
X19447051Y33384239D01*
X19447051Y33241382D01*
X19399432Y33146144D01*
X19351813Y33098525D01*
X19256575Y33050906D01*
X18875622Y33050906D01*
X20447051Y32669954D02*
X20399432Y32622335D01*
X20256575Y32574716D01*
X20161337Y32574716D01*
X20018479Y32622335D01*
X19923241Y32717573D01*
X19875622Y32812811D01*
X19828003Y33003287D01*
X19828003Y33146144D01*
X19875622Y33336620D01*
X19923241Y33431858D01*
X20018479Y33527097D01*
X20161337Y33574716D01*
X20256575Y33574716D01*
X20399432Y33527097D01*
X20447051Y33479477D01*
X20780384Y33574716D02*
X21399432Y33574716D01*
X21066098Y33193763D01*
X21208956Y33193763D01*
X21304194Y33146144D01*
X21351813Y33098525D01*
X21399432Y33003287D01*
X21399432Y32765192D01*
X21351813Y32669954D01*
X21304194Y32622335D01*
X21208956Y32574716D01*
X20923241Y32574716D01*
X20828003Y32622335D01*
X20780384Y32669954D01*
X24785706Y19088418D02*
X25357135Y19088418D01*
X25071420Y18088418D02*
X25071420Y19088418D01*
X26071420Y18136037D02*
X25976182Y18088418D01*
X25785706Y18088418D01*
X25690468Y18136037D01*
X25642849Y18231275D01*
X25642849Y18612227D01*
X25690468Y18707465D01*
X25785706Y18755084D01*
X25976182Y18755084D01*
X26071420Y18707465D01*
X26119039Y18612227D01*
X26119039Y18516989D01*
X25642849Y18421751D01*
X26499992Y18136037D02*
X26595230Y18088418D01*
X26785706Y18088418D01*
X26880944Y18136037D01*
X26928563Y18231275D01*
X26928563Y18278894D01*
X26880944Y18374132D01*
X26785706Y18421751D01*
X26642849Y18421751D01*
X26547611Y18469370D01*
X26499992Y18564608D01*
X26499992Y18612227D01*
X26547611Y18707465D01*
X26642849Y18755084D01*
X26785706Y18755084D01*
X26880944Y18707465D01*
X27214278Y18755084D02*
X27595230Y18755084D01*
X27357135Y19088418D02*
X27357135Y18231275D01*
X27404754Y18136037D01*
X27499992Y18088418D01*
X27595230Y18088418D01*
X27880944Y18993179D02*
X27928563Y19040799D01*
X28023801Y19088418D01*
X28261897Y19088418D01*
X28357135Y19040799D01*
X28404754Y18993179D01*
X28452373Y18897941D01*
X28452373Y18802703D01*
X28404754Y18659846D01*
X27833325Y18088418D01*
X28452373Y18088418D01*
X8831110Y43634394D02*
X8354920Y43301060D01*
X8831110Y43062965D02*
X7831110Y43062965D01*
X7831110Y43443917D01*
X7878730Y43539156D01*
X7926349Y43586775D01*
X8021587Y43634394D01*
X8164444Y43634394D01*
X8259682Y43586775D01*
X8307301Y43539156D01*
X8354920Y43443917D01*
X8354920Y43062965D01*
X8831110Y44062965D02*
X7831110Y44062965D01*
X8831110Y45062965D02*
X8831110Y44491536D01*
X8831110Y44777251D02*
X7831110Y44777251D01*
X7973968Y44682013D01*
X8069206Y44586775D01*
X8116825Y44491536D01*
X38504850Y28399834D02*
X38028660Y28066501D01*
X38504850Y27828406D02*
X37504850Y27828406D01*
X37504850Y28209358D01*
X37552470Y28304596D01*
X37600089Y28352215D01*
X37695327Y28399834D01*
X37838184Y28399834D01*
X37933422Y28352215D01*
X37981041Y28304596D01*
X38028660Y28209358D01*
X38028660Y27828406D01*
X38504850Y29352215D02*
X38504850Y28780787D01*
X38504850Y29066501D02*
X37504850Y29066501D01*
X37647708Y28971263D01*
X37742946Y28876025D01*
X37790565Y28780787D01*
X38504850Y30304596D02*
X38504850Y29733168D01*
X38504850Y30018882D02*
X37504850Y30018882D01*
X37647708Y29923644D01*
X37742946Y29828406D01*
X37790565Y29733168D01*
X12057142Y3907619D02*
X11723809Y4383809D01*
X11485714Y3907619D02*
X11485714Y4907619D01*
X11866666Y4907619D01*
X11961904Y4860000D01*
X12009523Y4812380D01*
X12057142Y4717142D01*
X12057142Y4574285D01*
X12009523Y4479047D01*
X11961904Y4431428D01*
X11866666Y4383809D01*
X11485714Y4383809D01*
X12390476Y4907619D02*
X13057142Y4907619D01*
X12628571Y3907619D01*
X13961904Y3907619D02*
X13390476Y3907619D01*
X13676190Y3907619D02*
X13676190Y4907619D01*
X13580952Y4764761D01*
X13485714Y4669523D01*
X13390476Y4621904D01*
X18424510Y35099374D02*
X18091177Y35575564D01*
X17853081Y35099374D02*
X17853081Y36099374D01*
X18234034Y36099374D01*
X18329272Y36051755D01*
X18376891Y36004135D01*
X18424510Y35908897D01*
X18424510Y35766040D01*
X18376891Y35670802D01*
X18329272Y35623183D01*
X18234034Y35575564D01*
X17853081Y35575564D01*
X18853081Y35099374D02*
X18853081Y36099374D01*
X19234034Y36099374D01*
X19329272Y36051755D01*
X19376891Y36004135D01*
X19424510Y35908897D01*
X19424510Y35766040D01*
X19376891Y35670802D01*
X19329272Y35623183D01*
X19234034Y35575564D01*
X18853081Y35575564D01*
X20424510Y35194612D02*
X20376891Y35146993D01*
X20234034Y35099374D01*
X20138796Y35099374D01*
X19995938Y35146993D01*
X19900700Y35242231D01*
X19853081Y35337469D01*
X19805462Y35527945D01*
X19805462Y35670802D01*
X19853081Y35861278D01*
X19900700Y35956516D01*
X19995938Y36051755D01*
X20138796Y36099374D01*
X20234034Y36099374D01*
X20376891Y36051755D01*
X20424510Y36004135D01*
X20805462Y36004135D02*
X20853081Y36051755D01*
X20948319Y36099374D01*
X21186415Y36099374D01*
X21281653Y36051755D01*
X21329272Y36004135D01*
X21376891Y35908897D01*
X21376891Y35813659D01*
X21329272Y35670802D01*
X20757843Y35099374D01*
X21376891Y35099374D01*
D12*
X31207064Y1630000D02*
X29752936Y1630000D01*
X31207064Y3450000D02*
X29752936Y3450000D01*
X18507064Y11790000D02*
X17052936Y11790000D01*
X18507064Y13610000D02*
X17052936Y13610000D01*
X18507064Y9250000D02*
X17052936Y9250000D01*
X18507064Y11070000D02*
X17052936Y11070000D01*
X24190000Y3870000D02*
X24190000Y2540000D01*
X21590000Y3870000D02*
X21530000Y3870000D01*
X21590000Y1210000D02*
X21530000Y1210000D01*
X21590000Y3870000D02*
X21590000Y1210000D01*
X21530000Y3870000D02*
X21530000Y1210000D01*
X22860000Y3870000D02*
X24190000Y3870000D01*
X18507064Y14330000D02*
X17052936Y14330000D01*
X18507064Y16150000D02*
X17052936Y16150000D01*
X35669063Y15683110D02*
X35669063Y17105614D01*
X37489063Y15683110D02*
X37489063Y17105614D01*
X24070000Y36890000D02*
X25400000Y36890000D01*
X24070000Y35560000D02*
X24070000Y36890000D01*
X24070000Y34290000D02*
X26730000Y34290000D01*
X24070000Y34290000D02*
X24070000Y31690000D01*
X24070000Y31690000D02*
X26730000Y31690000D01*
X26730000Y34290000D02*
X26730000Y31690000D01*
X31390000Y32292936D02*
X31390000Y33747064D01*
X29570000Y32292936D02*
X29570000Y33747064D01*
X9432936Y26310000D02*
X10887064Y26310000D01*
X9432936Y24490000D02*
X10887064Y24490000D01*
X25336659Y9860799D02*
X27996659Y9860799D01*
X27996659Y9860799D02*
X27996659Y9800799D01*
X25336659Y9860799D02*
X25336659Y9800799D01*
X25336659Y12460799D02*
X26666659Y12460799D01*
X25336659Y9800799D02*
X27996659Y9800799D01*
X25336659Y11130799D02*
X25336659Y12460799D01*
X32512927Y39740963D02*
X22232927Y39740963D01*
X31182927Y44940963D02*
X32512927Y44940963D01*
X29912927Y42340963D02*
X32512927Y42340963D01*
X22232927Y44940963D02*
X22232927Y39740963D01*
X32512927Y42340963D02*
X32512927Y39740963D01*
X32512927Y44940963D02*
X32512927Y43610963D01*
X29912927Y44940963D02*
X29912927Y42340963D01*
X29912927Y44940963D02*
X22232927Y44940963D01*
X35189298Y21213723D02*
X37849298Y21213723D01*
X35189298Y21273723D02*
X37849298Y21273723D01*
X37849298Y21273723D02*
X37849298Y21213723D01*
X35189298Y21273723D02*
X35189298Y21213723D01*
X35189298Y23873723D02*
X36519298Y23873723D01*
X35189298Y22543723D02*
X35189298Y23873723D01*
X36470000Y32292936D02*
X36470000Y33747064D01*
X34650000Y32292936D02*
X34650000Y33747064D01*
X33930000Y32292936D02*
X33930000Y33747064D01*
X32110000Y32292936D02*
X32110000Y33747064D01*
X16141855Y44128483D02*
X14811855Y44128483D01*
X20011855Y44128483D02*
X20011855Y46788483D01*
X14811855Y44128483D02*
X14811855Y45458483D01*
X17411855Y44128483D02*
X17411855Y46788483D01*
X17411855Y44128483D02*
X20011855Y44128483D01*
X17411855Y46788483D02*
X20011855Y46788483D01*
X6290000Y29150000D02*
X11490000Y29150000D01*
X11490000Y39430000D02*
X11490000Y29150000D01*
X8890000Y39430000D02*
X11490000Y39430000D01*
X6290000Y36830000D02*
X8890000Y36830000D01*
X6290000Y36830000D02*
X6290000Y29150000D01*
X6290000Y38100000D02*
X6290000Y39430000D01*
X6290000Y39430000D02*
X7620000Y39430000D01*
X8890000Y36830000D02*
X8890000Y39430000D01*
X18507064Y18690000D02*
X17052936Y18690000D01*
X18507064Y16870000D02*
X17052936Y16870000D01*
X32769298Y21273723D02*
X32769298Y21213723D01*
X30109298Y23873723D02*
X31439298Y23873723D01*
X30109298Y21213723D02*
X32769298Y21213723D01*
X30109298Y21273723D02*
X30109298Y21213723D01*
X30109298Y22543723D02*
X30109298Y23873723D01*
X30109298Y21273723D02*
X32769298Y21273723D01*
X9432936Y21950000D02*
X10887064Y21950000D01*
X9432936Y23770000D02*
X10887064Y23770000D01*
X26310000Y28667064D02*
X26310000Y27212936D01*
X24490000Y28667064D02*
X24490000Y27212936D01*
X21530000Y21530000D02*
X24190000Y21530000D01*
X21530000Y21590000D02*
X21530000Y21530000D01*
X21530000Y22860000D02*
X21530000Y24190000D01*
X21530000Y21590000D02*
X24190000Y21590000D01*
X21530000Y24190000D02*
X22860000Y24190000D01*
X24190000Y21590000D02*
X24190000Y21530000D01*
X1210000Y31750000D02*
X1210000Y39430000D01*
X3870000Y30480000D02*
X3870000Y29150000D01*
X3870000Y31750000D02*
X3870000Y39430000D01*
X3870000Y29150000D02*
X2540000Y29150000D01*
X3870000Y39430000D02*
X1210000Y39430000D01*
X3870000Y31750000D02*
X1210000Y31750000D01*
X16450000Y24070000D02*
X19110000Y24070000D01*
X16450000Y26730000D02*
X17780000Y26730000D01*
X16450000Y25400000D02*
X16450000Y26730000D01*
X16450000Y24130000D02*
X16450000Y24070000D01*
X19110000Y24130000D02*
X19110000Y24070000D01*
X16450000Y24130000D02*
X19110000Y24130000D01*
X14512936Y29570000D02*
X15967064Y29570000D01*
X14512936Y31390000D02*
X15967064Y31390000D01*
X30589063Y15667298D02*
X30589063Y17121426D01*
X32409063Y15667298D02*
X32409063Y17121426D01*
X14512936Y37190000D02*
X15967064Y37190000D01*
X14512936Y39010000D02*
X15967064Y39010000D01*
X8830000Y16510000D02*
X8830000Y8830000D01*
X11430000Y19110000D02*
X14030000Y19110000D01*
X8830000Y8830000D02*
X14030000Y8830000D01*
X8830000Y19110000D02*
X10160000Y19110000D01*
X14030000Y19110000D02*
X14030000Y8830000D01*
X8830000Y16510000D02*
X11430000Y16510000D01*
X8830000Y17780000D02*
X8830000Y19110000D01*
X11430000Y16510000D02*
X11430000Y19110000D01*
X14512936Y32110000D02*
X15967064Y32110000D01*
X14512936Y33930000D02*
X15967064Y33930000D01*
X25336659Y14940799D02*
X27996659Y14940799D01*
X25336659Y17540799D02*
X26666659Y17540799D01*
X25336659Y14880799D02*
X27996659Y14880799D01*
X25336659Y14940799D02*
X25336659Y14880799D01*
X25336659Y16210799D02*
X25336659Y17540799D01*
X27996659Y14940799D02*
X27996659Y14880799D01*
X10008730Y43312092D02*
X10008730Y44766220D01*
X11828730Y43312092D02*
X11828730Y44766220D01*
X37190000Y32292936D02*
X37190000Y33747064D01*
X39010000Y32292936D02*
X39010000Y33747064D01*
X11972936Y1630000D02*
X13427064Y1630000D01*
X11972936Y3450000D02*
X13427064Y3450000D01*
X14512936Y36470000D02*
X15967064Y36470000D01*
X14512936Y34650000D02*
X15967064Y34650000D01*
%LPC*%
D13*
X39309200Y44000000D03*
D14*
X4000000Y4000000D03*
D13*
X4000000Y44000000D03*
D15*
X31942500Y2540000D03*
X29017500Y2540000D03*
D13*
X39309200Y4000000D03*
D15*
X19242500Y12700000D03*
X16317500Y12700000D03*
X19242500Y10160000D03*
X16317500Y10160000D03*
D16*
X22860000Y2540000D03*
D15*
X19242500Y15240000D03*
X16317500Y15240000D03*
D17*
X36579063Y14919362D03*
X36579063Y17869362D03*
D18*
X25400000Y35560000D03*
D19*
X25400000Y33020000D03*
D20*
X30480000Y31557500D03*
X30480000Y34482500D03*
D21*
X8697500Y25400000D03*
X11622500Y25400000D03*
D18*
X26666659Y11130799D03*
D16*
X31182927Y43610963D03*
D19*
X31182927Y41070963D03*
X28642927Y43610963D03*
X28642927Y41070963D03*
X26102927Y43610963D03*
X26102927Y41070963D03*
X23562927Y43610963D03*
X23562927Y41070963D03*
D18*
X36519298Y22543723D03*
D20*
X35560000Y31557500D03*
X35560000Y34482500D03*
X33020000Y31557500D03*
X33020000Y34482500D03*
D22*
X16141855Y45458483D03*
D19*
X18681855Y45458483D03*
D18*
X7620000Y38100000D03*
D19*
X10160000Y38100000D03*
X7620000Y35560000D03*
X10160000Y35560000D03*
X7620000Y33020000D03*
X10160000Y33020000D03*
X7620000Y30480000D03*
X10160000Y30480000D03*
D15*
X19242500Y17780000D03*
X16317500Y17780000D03*
D18*
X31439298Y22543723D03*
D21*
X8697500Y22860000D03*
X11622500Y22860000D03*
D23*
X25400000Y29402500D03*
X25400000Y26477500D03*
D18*
X22860000Y22860000D03*
D24*
X2540000Y30480000D03*
D19*
X2540000Y33020000D03*
X2540000Y35560000D03*
X2540000Y38100000D03*
D18*
X17780000Y25400000D03*
D21*
X13777500Y30480000D03*
X16702500Y30480000D03*
D20*
X31499063Y14931862D03*
X31499063Y17856862D03*
D21*
X13777500Y38100000D03*
X16702500Y38100000D03*
D18*
X10160000Y17780000D03*
D19*
X12700000Y17780000D03*
X10160000Y15240000D03*
X12700000Y15240000D03*
X10160000Y12700000D03*
X12700000Y12700000D03*
X10160000Y10160000D03*
X12700000Y10160000D03*
D21*
X13777500Y33020000D03*
X16702500Y33020000D03*
D18*
X26666659Y16210799D03*
D20*
X10918730Y42576656D03*
X10918730Y45501656D03*
X38100000Y31557500D03*
X38100000Y34482500D03*
D21*
X11237500Y2540000D03*
X14162500Y2540000D03*
X13777500Y35560000D03*
X16702500Y35560000D03*
M02*
