G04 #@! TF.GenerationSoftware,KiCad,Pcbnew,(6.0.5)*
G04 #@! TF.CreationDate,2022-06-17T10:27:33-05:00*
G04 #@! TF.ProjectId,model_cell,6d6f6465-6c5f-4636-956c-6c2e6b696361,rev?*
G04 #@! TF.SameCoordinates,Original*
G04 #@! TF.FileFunction,Copper,L2,Bot*
G04 #@! TF.FilePolarity,Positive*
%FSLAX46Y46*%
G04 Gerber Fmt 4.6, Leading zero omitted, Abs format (unit mm)*
G04 Created by KiCad (PCBNEW (6.0.5)) date 2022-06-17 10:27:33*
%MOMM*%
%LPD*%
G01*
G04 APERTURE LIST*
G04 #@! TA.AperFunction,ComponentPad*
%ADD10C,5.600000*%
G04 #@! TD*
G04 #@! TA.AperFunction,ComponentPad*
%ADD11C,5.599999*%
G04 #@! TD*
G04 #@! TA.AperFunction,ComponentPad*
%ADD12R,1.700000X1.700000*%
G04 #@! TD*
G04 #@! TA.AperFunction,ComponentPad*
%ADD13O,1.700000X1.700000*%
G04 #@! TD*
G04 #@! TA.AperFunction,Conductor*
%ADD14C,0.152000*%
G04 #@! TD*
G04 #@! TA.AperFunction,Conductor*
%ADD15C,0.152400*%
G04 #@! TD*
G04 APERTURE END LIST*
D10*
X39309200Y44000000D03*
D11*
X4000000Y4000000D03*
D10*
X4000000Y44000000D03*
X39309200Y4000000D03*
D12*
X22860000Y2540000D03*
X25400000Y35560000D03*
D13*
X25400000Y33020000D03*
D12*
X26666659Y11130799D03*
X31182927Y43610963D03*
D13*
X31182927Y41070963D03*
X28642927Y43610963D03*
X28642927Y41070963D03*
X26102927Y43610963D03*
X26102927Y41070963D03*
X23562927Y43610963D03*
X23562927Y41070963D03*
D12*
X36519298Y22543723D03*
X16141855Y45458483D03*
D13*
X18681855Y45458483D03*
D12*
X7620000Y38100000D03*
D13*
X10160000Y38100000D03*
X7620000Y35560000D03*
X10160000Y35560000D03*
X7620000Y33020000D03*
X10160000Y33020000D03*
X7620000Y30480000D03*
X10160000Y30480000D03*
D12*
X31439298Y22543723D03*
X22860000Y22860000D03*
X2540000Y30480000D03*
D13*
X2540000Y33020000D03*
X2540000Y35560000D03*
X2540000Y38100000D03*
D12*
X17780000Y25400000D03*
X10160000Y17780000D03*
D13*
X12700000Y17780000D03*
X10160000Y15240000D03*
X12700000Y15240000D03*
X10160000Y12700000D03*
X12700000Y12700000D03*
X10160000Y10160000D03*
X12700000Y10160000D03*
D12*
X26666659Y16210799D03*
D14*
X22860000Y13935458D02*
X22860000Y22860000D01*
X26666659Y11130799D02*
X25664659Y11130799D01*
X25664659Y11130799D02*
X22860000Y13935458D01*
X2540000Y30480000D02*
X10160000Y22860000D01*
X10160000Y22860000D02*
X22860000Y22860000D01*
D15*
X39219800Y4089400D02*
X39309200Y4000000D01*
M02*
