G04 #@! TF.GenerationSoftware,KiCad,Pcbnew,(6.0.5)*
G04 #@! TF.CreationDate,2022-06-17T10:27:33-05:00*
G04 #@! TF.ProjectId,model_cell,6d6f6465-6c5f-4636-956c-6c2e6b696361,rev?*
G04 #@! TF.SameCoordinates,Original*
G04 #@! TF.FileFunction,Soldermask,Top*
G04 #@! TF.FilePolarity,Negative*
%FSLAX46Y46*%
G04 Gerber Fmt 4.6, Leading zero omitted, Abs format (unit mm)*
G04 Created by KiCad (PCBNEW (6.0.5)) date 2022-06-17 10:27:33*
%MOMM*%
%LPD*%
G01*
G04 APERTURE LIST*
G04 Aperture macros list*
%AMRoundRect*
0 Rectangle with rounded corners*
0 $1 Rounding radius*
0 $2 $3 $4 $5 $6 $7 $8 $9 X,Y pos of 4 corners*
0 Add a 4 corners polygon primitive as box body*
4,1,4,$2,$3,$4,$5,$6,$7,$8,$9,$2,$3,0*
0 Add four circle primitives for the rounded corners*
1,1,$1+$1,$2,$3*
1,1,$1+$1,$4,$5*
1,1,$1+$1,$6,$7*
1,1,$1+$1,$8,$9*
0 Add four rect primitives between the rounded corners*
20,1,$1+$1,$2,$3,$4,$5,0*
20,1,$1+$1,$4,$5,$6,$7,0*
20,1,$1+$1,$6,$7,$8,$9,0*
20,1,$1+$1,$8,$9,$2,$3,0*%
G04 Aperture macros list end*
%ADD10C,5.701600*%
%ADD11C,5.701599*%
%ADD12RoundRect,0.300800X0.312500X0.625000X-0.312500X0.625000X-0.312500X-0.625000X0.312500X-0.625000X0*%
%ADD13RoundRect,0.050800X-0.850000X0.850000X-0.850000X-0.850000X0.850000X-0.850000X0.850000X0.850000X0*%
%ADD14RoundRect,0.300800X0.650000X-0.325000X0.650000X0.325000X-0.650000X0.325000X-0.650000X-0.325000X0*%
%ADD15RoundRect,0.050800X-0.850000X-0.850000X0.850000X-0.850000X0.850000X0.850000X-0.850000X0.850000X0*%
%ADD16O,1.801600X1.801600*%
%ADD17RoundRect,0.300800X0.625000X-0.312500X0.625000X0.312500X-0.625000X0.312500X-0.625000X-0.312500X0*%
%ADD18RoundRect,0.300800X-0.312500X-0.625000X0.312500X-0.625000X0.312500X0.625000X-0.312500X0.625000X0*%
%ADD19RoundRect,0.050800X0.850000X-0.850000X0.850000X0.850000X-0.850000X0.850000X-0.850000X-0.850000X0*%
%ADD20RoundRect,0.300800X-0.625000X0.312500X-0.625000X-0.312500X0.625000X-0.312500X0.625000X0.312500X0*%
%ADD21RoundRect,0.050800X0.850000X0.850000X-0.850000X0.850000X-0.850000X-0.850000X0.850000X-0.850000X0*%
G04 APERTURE END LIST*
D10*
X39309200Y44000000D03*
D11*
X4000000Y4000000D03*
D10*
X4000000Y44000000D03*
D12*
X31942500Y2540000D03*
X29017500Y2540000D03*
D10*
X39309200Y4000000D03*
D12*
X19242500Y12700000D03*
X16317500Y12700000D03*
X19242500Y10160000D03*
X16317500Y10160000D03*
D13*
X22860000Y2540000D03*
D12*
X19242500Y15240000D03*
X16317500Y15240000D03*
D14*
X36579063Y14919362D03*
X36579063Y17869362D03*
D15*
X25400000Y35560000D03*
D16*
X25400000Y33020000D03*
D17*
X30480000Y31557500D03*
X30480000Y34482500D03*
D18*
X8697500Y25400000D03*
X11622500Y25400000D03*
D15*
X26666659Y11130799D03*
D13*
X31182927Y43610963D03*
D16*
X31182927Y41070963D03*
X28642927Y43610963D03*
X28642927Y41070963D03*
X26102927Y43610963D03*
X26102927Y41070963D03*
X23562927Y43610963D03*
X23562927Y41070963D03*
D15*
X36519298Y22543723D03*
D17*
X35560000Y31557500D03*
X35560000Y34482500D03*
X33020000Y31557500D03*
X33020000Y34482500D03*
D19*
X16141855Y45458483D03*
D16*
X18681855Y45458483D03*
D15*
X7620000Y38100000D03*
D16*
X10160000Y38100000D03*
X7620000Y35560000D03*
X10160000Y35560000D03*
X7620000Y33020000D03*
X10160000Y33020000D03*
X7620000Y30480000D03*
X10160000Y30480000D03*
D12*
X19242500Y17780000D03*
X16317500Y17780000D03*
D15*
X31439298Y22543723D03*
D18*
X8697500Y22860000D03*
X11622500Y22860000D03*
D20*
X25400000Y29402500D03*
X25400000Y26477500D03*
D15*
X22860000Y22860000D03*
D21*
X2540000Y30480000D03*
D16*
X2540000Y33020000D03*
X2540000Y35560000D03*
X2540000Y38100000D03*
D15*
X17780000Y25400000D03*
D18*
X13777500Y30480000D03*
X16702500Y30480000D03*
D17*
X31499063Y14931862D03*
X31499063Y17856862D03*
D18*
X13777500Y38100000D03*
X16702500Y38100000D03*
D15*
X10160000Y17780000D03*
D16*
X12700000Y17780000D03*
X10160000Y15240000D03*
X12700000Y15240000D03*
X10160000Y12700000D03*
X12700000Y12700000D03*
X10160000Y10160000D03*
X12700000Y10160000D03*
D18*
X13777500Y33020000D03*
X16702500Y33020000D03*
D15*
X26666659Y16210799D03*
D17*
X10918730Y42576656D03*
X10918730Y45501656D03*
X38100000Y31557500D03*
X38100000Y34482500D03*
D18*
X11237500Y2540000D03*
X14162500Y2540000D03*
X13777500Y35560000D03*
X16702500Y35560000D03*
M02*
