G04 #@! TF.GenerationSoftware,KiCad,Pcbnew,(6.0.5)*
G04 #@! TF.CreationDate,2022-06-17T10:27:33-05:00*
G04 #@! TF.ProjectId,model_cell,6d6f6465-6c5f-4636-956c-6c2e6b696361,rev?*
G04 #@! TF.SameCoordinates,Original*
G04 #@! TF.FileFunction,AssemblyDrawing,Top*
%FSLAX46Y46*%
G04 Gerber Fmt 4.6, Leading zero omitted, Abs format (unit mm)*
G04 Created by KiCad (PCBNEW (6.0.5)) date 2022-06-17 10:27:33*
%MOMM*%
%LPD*%
G01*
G04 APERTURE LIST*
%ADD10C,0.150000*%
%ADD11C,0.120000*%
%ADD12C,0.100000*%
G04 APERTURE END LIST*
D10*
X38285390Y39747619D02*
X38285390Y40747619D01*
X38523485Y40747619D01*
X38666342Y40700000D01*
X38761580Y40604761D01*
X38809200Y40509523D01*
X38856819Y40319047D01*
X38856819Y40176190D01*
X38809200Y39985714D01*
X38761580Y39890476D01*
X38666342Y39795238D01*
X38523485Y39747619D01*
X38285390Y39747619D01*
X39285390Y39747619D02*
X39285390Y40747619D01*
X39856819Y39747619D01*
X39856819Y40747619D01*
X40333009Y39747619D02*
X40333009Y40747619D01*
X38847295Y43547619D02*
X38847295Y44547619D01*
X38847295Y44071428D02*
X39418723Y44071428D01*
X39418723Y43547619D02*
X39418723Y44547619D01*
X39799676Y44547619D02*
X40418723Y44547619D01*
X40085390Y44166666D01*
X40228247Y44166666D01*
X40323485Y44119047D01*
X40371104Y44071428D01*
X40418723Y43976190D01*
X40418723Y43738095D01*
X40371104Y43642857D01*
X40323485Y43595238D01*
X40228247Y43547619D01*
X39942533Y43547619D01*
X39847295Y43595238D01*
X39799676Y43642857D01*
X2976190Y-252380D02*
X2976190Y747619D01*
X3214285Y747619D01*
X3357142Y700000D01*
X3452380Y604761D01*
X3500000Y509523D01*
X3547619Y319047D01*
X3547619Y176190D01*
X3500000Y-14285D01*
X3452380Y-109523D01*
X3357142Y-204761D01*
X3214285Y-252380D01*
X2976190Y-252380D01*
X3976190Y-252380D02*
X3976190Y747619D01*
X4547619Y-252380D01*
X4547619Y747619D01*
X5023809Y-252380D02*
X5023809Y747619D01*
X3538095Y3547619D02*
X3538095Y4547619D01*
X3538095Y4071428D02*
X4109523Y4071428D01*
X4109523Y3547619D02*
X4109523Y4547619D01*
X5061904Y4547619D02*
X4585714Y4547619D01*
X4538095Y4071428D01*
X4585714Y4119047D01*
X4680952Y4166666D01*
X4919047Y4166666D01*
X5014285Y4119047D01*
X5061904Y4071428D01*
X5109523Y3976190D01*
X5109523Y3738095D01*
X5061904Y3642857D01*
X5014285Y3595238D01*
X4919047Y3547619D01*
X4680952Y3547619D01*
X4585714Y3595238D01*
X4538095Y3642857D01*
X2976190Y39747619D02*
X2976190Y40747619D01*
X3214285Y40747619D01*
X3357142Y40700000D01*
X3452380Y40604761D01*
X3500000Y40509523D01*
X3547619Y40319047D01*
X3547619Y40176190D01*
X3500000Y39985714D01*
X3452380Y39890476D01*
X3357142Y39795238D01*
X3214285Y39747619D01*
X2976190Y39747619D01*
X3976190Y39747619D02*
X3976190Y40747619D01*
X4547619Y39747619D01*
X4547619Y40747619D01*
X5023809Y39747619D02*
X5023809Y40747619D01*
X3538095Y43547619D02*
X3538095Y44547619D01*
X3538095Y44071428D02*
X4109523Y44071428D01*
X4109523Y43547619D02*
X4109523Y44547619D01*
X4490476Y44547619D02*
X5157142Y44547619D01*
X4728571Y43547619D01*
X29456190Y3907619D02*
X29456190Y4907619D01*
X29694285Y4907619D01*
X29837142Y4860000D01*
X29932380Y4764761D01*
X29980000Y4669523D01*
X30027619Y4479047D01*
X30027619Y4336190D01*
X29980000Y4145714D01*
X29932380Y4050476D01*
X29837142Y3955238D01*
X29694285Y3907619D01*
X29456190Y3907619D01*
X30456190Y3907619D02*
X30456190Y4907619D01*
X31027619Y3907619D01*
X31027619Y4907619D01*
X31503809Y3907619D02*
X31503809Y4907619D01*
D11*
X29965714Y2178095D02*
X29699047Y2559047D01*
X29508571Y2178095D02*
X29508571Y2978095D01*
X29813333Y2978095D01*
X29889523Y2940000D01*
X29927619Y2901904D01*
X29965714Y2825714D01*
X29965714Y2711428D01*
X29927619Y2635238D01*
X29889523Y2597142D01*
X29813333Y2559047D01*
X29508571Y2559047D01*
X30689523Y2978095D02*
X30308571Y2978095D01*
X30270476Y2597142D01*
X30308571Y2635238D01*
X30384761Y2673333D01*
X30575238Y2673333D01*
X30651428Y2635238D01*
X30689523Y2597142D01*
X30727619Y2520952D01*
X30727619Y2330476D01*
X30689523Y2254285D01*
X30651428Y2216190D01*
X30575238Y2178095D01*
X30384761Y2178095D01*
X30308571Y2216190D01*
X30270476Y2254285D01*
X31489523Y2178095D02*
X31032380Y2178095D01*
X31260952Y2178095D02*
X31260952Y2978095D01*
X31184761Y2863809D01*
X31108571Y2787619D01*
X31032380Y2749523D01*
D10*
X38285390Y-252380D02*
X38285390Y747619D01*
X38523485Y747619D01*
X38666342Y700000D01*
X38761580Y604761D01*
X38809200Y509523D01*
X38856819Y319047D01*
X38856819Y176190D01*
X38809200Y-14285D01*
X38761580Y-109523D01*
X38666342Y-204761D01*
X38523485Y-252380D01*
X38285390Y-252380D01*
X39285390Y-252380D02*
X39285390Y747619D01*
X39856819Y-252380D01*
X39856819Y747619D01*
X40333009Y-252380D02*
X40333009Y747619D01*
X38847295Y3547619D02*
X38847295Y4547619D01*
X38847295Y4071428D02*
X39418723Y4071428D01*
X39418723Y3547619D02*
X39418723Y4547619D01*
X40418723Y3547619D02*
X39847295Y3547619D01*
X40133009Y3547619D02*
X40133009Y4547619D01*
X40037771Y4404761D01*
X39942533Y4309523D01*
X39847295Y4261904D01*
X17018095Y14734285D02*
X17018095Y14067619D01*
X16780000Y15115238D02*
X16541904Y14400952D01*
X17160952Y14400952D01*
X17589523Y14067619D02*
X17780000Y14067619D01*
X17875238Y14115238D01*
X17922857Y14162857D01*
X18018095Y14305714D01*
X18065714Y14496190D01*
X18065714Y14877142D01*
X18018095Y14972380D01*
X17970476Y15020000D01*
X17875238Y15067619D01*
X17684761Y15067619D01*
X17589523Y15020000D01*
X17541904Y14972380D01*
X17494285Y14877142D01*
X17494285Y14639047D01*
X17541904Y14543809D01*
X17589523Y14496190D01*
X17684761Y14448571D01*
X17875238Y14448571D01*
X17970476Y14496190D01*
X18018095Y14543809D01*
X18065714Y14639047D01*
X18541904Y14067619D02*
X18732380Y14067619D01*
X18827619Y14115238D01*
X18875238Y14162857D01*
X18970476Y14305714D01*
X19018095Y14496190D01*
X19018095Y14877142D01*
X18970476Y14972380D01*
X18922857Y15020000D01*
X18827619Y15067619D01*
X18637142Y15067619D01*
X18541904Y15020000D01*
X18494285Y14972380D01*
X18446666Y14877142D01*
X18446666Y14639047D01*
X18494285Y14543809D01*
X18541904Y14496190D01*
X18637142Y14448571D01*
X18827619Y14448571D01*
X18922857Y14496190D01*
X18970476Y14543809D01*
X19018095Y14639047D01*
D11*
X16960952Y12338095D02*
X16694285Y12719047D01*
X16503809Y12338095D02*
X16503809Y13138095D01*
X16808571Y13138095D01*
X16884761Y13100000D01*
X16922857Y13061904D01*
X16960952Y12985714D01*
X16960952Y12871428D01*
X16922857Y12795238D01*
X16884761Y12757142D01*
X16808571Y12719047D01*
X16503809Y12719047D01*
X17265714Y12376190D02*
X17341904Y12338095D01*
X17494285Y12338095D01*
X17570476Y12376190D01*
X17608571Y12452380D01*
X17608571Y12490476D01*
X17570476Y12566666D01*
X17494285Y12604761D01*
X17380000Y12604761D01*
X17303809Y12642857D01*
X17265714Y12719047D01*
X17265714Y12757142D01*
X17303809Y12833333D01*
X17380000Y12871428D01*
X17494285Y12871428D01*
X17570476Y12833333D01*
X18294285Y12338095D02*
X18294285Y12757142D01*
X18256190Y12833333D01*
X18180000Y12871428D01*
X18027619Y12871428D01*
X17951428Y12833333D01*
X18294285Y12376190D02*
X18218095Y12338095D01*
X18027619Y12338095D01*
X17951428Y12376190D01*
X17913333Y12452380D01*
X17913333Y12528571D01*
X17951428Y12604761D01*
X18027619Y12642857D01*
X18218095Y12642857D01*
X18294285Y12680952D01*
X18599047Y13138095D02*
X19094285Y13138095D01*
X18827619Y12833333D01*
X18941904Y12833333D01*
X19018095Y12795238D01*
X19056190Y12757142D01*
X19094285Y12680952D01*
X19094285Y12490476D01*
X19056190Y12414285D01*
X19018095Y12376190D01*
X18941904Y12338095D01*
X18713333Y12338095D01*
X18637142Y12376190D01*
X18599047Y12414285D01*
D10*
X17089523Y12432380D02*
X17137142Y12480000D01*
X17232380Y12527619D01*
X17470476Y12527619D01*
X17565714Y12480000D01*
X17613333Y12432380D01*
X17660952Y12337142D01*
X17660952Y12241904D01*
X17613333Y12099047D01*
X17041904Y11527619D01*
X17660952Y11527619D01*
X18089523Y11527619D02*
X18089523Y12527619D01*
X18184761Y11908571D02*
X18470476Y11527619D01*
X18470476Y12194285D02*
X18089523Y11813333D01*
D11*
X16960952Y9798095D02*
X16694285Y10179047D01*
X16503809Y9798095D02*
X16503809Y10598095D01*
X16808571Y10598095D01*
X16884761Y10560000D01*
X16922857Y10521904D01*
X16960952Y10445714D01*
X16960952Y10331428D01*
X16922857Y10255238D01*
X16884761Y10217142D01*
X16808571Y10179047D01*
X16503809Y10179047D01*
X17265714Y9836190D02*
X17341904Y9798095D01*
X17494285Y9798095D01*
X17570476Y9836190D01*
X17608571Y9912380D01*
X17608571Y9950476D01*
X17570476Y10026666D01*
X17494285Y10064761D01*
X17380000Y10064761D01*
X17303809Y10102857D01*
X17265714Y10179047D01*
X17265714Y10217142D01*
X17303809Y10293333D01*
X17380000Y10331428D01*
X17494285Y10331428D01*
X17570476Y10293333D01*
X18294285Y9798095D02*
X18294285Y10217142D01*
X18256190Y10293333D01*
X18180000Y10331428D01*
X18027619Y10331428D01*
X17951428Y10293333D01*
X18294285Y9836190D02*
X18218095Y9798095D01*
X18027619Y9798095D01*
X17951428Y9836190D01*
X17913333Y9912380D01*
X17913333Y9988571D01*
X17951428Y10064761D01*
X18027619Y10102857D01*
X18218095Y10102857D01*
X18294285Y10140952D01*
X19018095Y10331428D02*
X19018095Y9798095D01*
X18827619Y10636190D02*
X18637142Y10064761D01*
X19132380Y10064761D01*
D10*
X19982380Y-2317142D02*
X19982380Y-1745714D01*
X20982380Y-2031428D02*
X19982380Y-2031428D01*
X20934761Y-1031428D02*
X20982380Y-1126666D01*
X20982380Y-1317142D01*
X20934761Y-1412380D01*
X20839523Y-1460000D01*
X20458571Y-1460000D01*
X20363333Y-1412380D01*
X20315714Y-1317142D01*
X20315714Y-1126666D01*
X20363333Y-1031428D01*
X20458571Y-983809D01*
X20553809Y-983809D01*
X20649047Y-1460000D01*
X20934761Y-602857D02*
X20982380Y-507619D01*
X20982380Y-317142D01*
X20934761Y-221904D01*
X20839523Y-174285D01*
X20791904Y-174285D01*
X20696666Y-221904D01*
X20649047Y-317142D01*
X20649047Y-460000D01*
X20601428Y-555238D01*
X20506190Y-602857D01*
X20458571Y-602857D01*
X20363333Y-555238D01*
X20315714Y-460000D01*
X20315714Y-317142D01*
X20363333Y-221904D01*
X20315714Y111428D02*
X20315714Y492380D01*
X19982380Y254285D02*
X20839523Y254285D01*
X20934761Y301904D01*
X20982380Y397142D01*
X20982380Y492380D01*
X20982380Y825714D02*
X19982380Y825714D01*
X19982380Y1206666D01*
X20030000Y1301904D01*
X20077619Y1349523D01*
X20172857Y1397142D01*
X20315714Y1397142D01*
X20410952Y1349523D01*
X20458571Y1301904D01*
X20506190Y1206666D01*
X20506190Y825714D01*
X20982380Y1968571D02*
X20934761Y1873333D01*
X20887142Y1825714D01*
X20791904Y1778095D01*
X20506190Y1778095D01*
X20410952Y1825714D01*
X20363333Y1873333D01*
X20315714Y1968571D01*
X20315714Y2111428D01*
X20363333Y2206666D01*
X20410952Y2254285D01*
X20506190Y2301904D01*
X20791904Y2301904D01*
X20887142Y2254285D01*
X20934761Y2206666D01*
X20982380Y2111428D01*
X20982380Y1968571D01*
X20982380Y2730476D02*
X20315714Y2730476D01*
X19982380Y2730476D02*
X20030000Y2682857D01*
X20077619Y2730476D01*
X20030000Y2778095D01*
X19982380Y2730476D01*
X20077619Y2730476D01*
X20315714Y3206666D02*
X20982380Y3206666D01*
X20410952Y3206666D02*
X20363333Y3254285D01*
X20315714Y3349523D01*
X20315714Y3492380D01*
X20363333Y3587619D01*
X20458571Y3635238D01*
X20982380Y3635238D01*
X20315714Y3968571D02*
X20315714Y4349523D01*
X19982380Y4111428D02*
X20839523Y4111428D01*
X20934761Y4159047D01*
X20982380Y4254285D01*
X20982380Y4349523D01*
X20030000Y5206666D02*
X19982380Y5111428D01*
X19982380Y4968571D01*
X20030000Y4825714D01*
X20125238Y4730476D01*
X20220476Y4682857D01*
X20410952Y4635238D01*
X20553809Y4635238D01*
X20744285Y4682857D01*
X20839523Y4730476D01*
X20934761Y4825714D01*
X20982380Y4968571D01*
X20982380Y5063809D01*
X20934761Y5206666D01*
X20887142Y5254285D01*
X20553809Y5254285D01*
X20553809Y5063809D01*
X20982380Y5682857D02*
X19982380Y5682857D01*
X20982380Y6254285D01*
X19982380Y6254285D01*
X20982380Y6730476D02*
X19982380Y6730476D01*
X19982380Y6968571D01*
X20030000Y7111428D01*
X20125238Y7206666D01*
X20220476Y7254285D01*
X20410952Y7301904D01*
X20553809Y7301904D01*
X20744285Y7254285D01*
X20839523Y7206666D01*
X20934761Y7111428D01*
X20982380Y6968571D01*
X20982380Y6730476D01*
X21621904Y3040000D02*
X21526666Y3087619D01*
X21383809Y3087619D01*
X21240952Y3040000D01*
X21145714Y2944761D01*
X21098095Y2849523D01*
X21050476Y2659047D01*
X21050476Y2516190D01*
X21098095Y2325714D01*
X21145714Y2230476D01*
X21240952Y2135238D01*
X21383809Y2087619D01*
X21479047Y2087619D01*
X21621904Y2135238D01*
X21669523Y2182857D01*
X21669523Y2516190D01*
X21479047Y2516190D01*
X22098095Y2087619D02*
X22098095Y3087619D01*
X22669523Y2087619D01*
X22669523Y3087619D01*
X23145714Y2087619D02*
X23145714Y3087619D01*
X23383809Y3087619D01*
X23526666Y3040000D01*
X23621904Y2944761D01*
X23669523Y2849523D01*
X23717142Y2659047D01*
X23717142Y2516190D01*
X23669523Y2325714D01*
X23621904Y2230476D01*
X23526666Y2135238D01*
X23383809Y2087619D01*
X23145714Y2087619D01*
X24669523Y2087619D02*
X24098095Y2087619D01*
X24383809Y2087619D02*
X24383809Y3087619D01*
X24288571Y2944761D01*
X24193333Y2849523D01*
X24098095Y2801904D01*
X16494285Y17607619D02*
X17113333Y17607619D01*
X16780000Y17226666D01*
X16922857Y17226666D01*
X17018095Y17179047D01*
X17065714Y17131428D01*
X17113333Y17036190D01*
X17113333Y16798095D01*
X17065714Y16702857D01*
X17018095Y16655238D01*
X16922857Y16607619D01*
X16637142Y16607619D01*
X16541904Y16655238D01*
X16494285Y16702857D01*
X17732380Y17607619D02*
X17827619Y17607619D01*
X17922857Y17560000D01*
X17970476Y17512380D01*
X18018095Y17417142D01*
X18065714Y17226666D01*
X18065714Y16988571D01*
X18018095Y16798095D01*
X17970476Y16702857D01*
X17922857Y16655238D01*
X17827619Y16607619D01*
X17732380Y16607619D01*
X17637142Y16655238D01*
X17589523Y16702857D01*
X17541904Y16798095D01*
X17494285Y16988571D01*
X17494285Y17226666D01*
X17541904Y17417142D01*
X17589523Y17512380D01*
X17637142Y17560000D01*
X17732380Y17607619D01*
X19018095Y16607619D02*
X18446666Y16607619D01*
X18732380Y16607619D02*
X18732380Y17607619D01*
X18637142Y17464761D01*
X18541904Y17369523D01*
X18446666Y17321904D01*
D11*
X16960952Y14878095D02*
X16694285Y15259047D01*
X16503809Y14878095D02*
X16503809Y15678095D01*
X16808571Y15678095D01*
X16884761Y15640000D01*
X16922857Y15601904D01*
X16960952Y15525714D01*
X16960952Y15411428D01*
X16922857Y15335238D01*
X16884761Y15297142D01*
X16808571Y15259047D01*
X16503809Y15259047D01*
X17265714Y14916190D02*
X17341904Y14878095D01*
X17494285Y14878095D01*
X17570476Y14916190D01*
X17608571Y14992380D01*
X17608571Y15030476D01*
X17570476Y15106666D01*
X17494285Y15144761D01*
X17380000Y15144761D01*
X17303809Y15182857D01*
X17265714Y15259047D01*
X17265714Y15297142D01*
X17303809Y15373333D01*
X17380000Y15411428D01*
X17494285Y15411428D01*
X17570476Y15373333D01*
X18294285Y14878095D02*
X18294285Y15297142D01*
X18256190Y15373333D01*
X18180000Y15411428D01*
X18027619Y15411428D01*
X17951428Y15373333D01*
X18294285Y14916190D02*
X18218095Y14878095D01*
X18027619Y14878095D01*
X17951428Y14916190D01*
X17913333Y14992380D01*
X17913333Y15068571D01*
X17951428Y15144761D01*
X18027619Y15182857D01*
X18218095Y15182857D01*
X18294285Y15220952D01*
X18637142Y15601904D02*
X18675238Y15640000D01*
X18751428Y15678095D01*
X18941904Y15678095D01*
X19018095Y15640000D01*
X19056190Y15601904D01*
X19094285Y15525714D01*
X19094285Y15449523D01*
X19056190Y15335238D01*
X18599047Y14878095D01*
X19094285Y14878095D01*
D10*
X37881443Y15132457D02*
X37881443Y15751504D01*
X38262396Y15418171D01*
X38262396Y15561028D01*
X38310015Y15656266D01*
X38357634Y15703885D01*
X38452872Y15751504D01*
X38690967Y15751504D01*
X38786205Y15703885D01*
X38833824Y15656266D01*
X38881443Y15561028D01*
X38881443Y15275314D01*
X38833824Y15180076D01*
X38786205Y15132457D01*
X37881443Y16084838D02*
X37881443Y16703885D01*
X38262396Y16370552D01*
X38262396Y16513409D01*
X38310015Y16608647D01*
X38357634Y16656266D01*
X38452872Y16703885D01*
X38690967Y16703885D01*
X38786205Y16656266D01*
X38833824Y16608647D01*
X38881443Y16513409D01*
X38881443Y16227695D01*
X38833824Y16132457D01*
X38786205Y16084838D01*
X38214777Y17132457D02*
X38881443Y17132457D01*
X38310015Y17132457D02*
X38262396Y17180076D01*
X38214777Y17275314D01*
X38214777Y17418171D01*
X38262396Y17513409D01*
X38357634Y17561028D01*
X38881443Y17561028D01*
D11*
X36864777Y15365790D02*
X36902872Y15327695D01*
X36940967Y15213409D01*
X36940967Y15137219D01*
X36902872Y15022933D01*
X36826682Y14946742D01*
X36750491Y14908647D01*
X36598110Y14870552D01*
X36483824Y14870552D01*
X36331443Y14908647D01*
X36255253Y14946742D01*
X36179063Y15022933D01*
X36140967Y15137219D01*
X36140967Y15213409D01*
X36179063Y15327695D01*
X36217158Y15365790D01*
X36940967Y15708647D02*
X36407634Y15708647D01*
X36483824Y15708647D02*
X36445729Y15746742D01*
X36407634Y15822933D01*
X36407634Y15937219D01*
X36445729Y16013409D01*
X36521920Y16051504D01*
X36940967Y16051504D01*
X36521920Y16051504D02*
X36445729Y16089600D01*
X36407634Y16165790D01*
X36407634Y16280076D01*
X36445729Y16356266D01*
X36521920Y16394362D01*
X36940967Y16394362D01*
X36940967Y17118171D02*
X36521920Y17118171D01*
X36445729Y17080076D01*
X36407634Y17003885D01*
X36407634Y16851504D01*
X36445729Y16775314D01*
X36902872Y17118171D02*
X36940967Y17041981D01*
X36940967Y16851504D01*
X36902872Y16775314D01*
X36826682Y16737219D01*
X36750491Y16737219D01*
X36674301Y16775314D01*
X36636205Y16851504D01*
X36636205Y17041981D01*
X36598110Y17118171D01*
X36940967Y17918171D02*
X36940967Y17461028D01*
X36940967Y17689600D02*
X36140967Y17689600D01*
X36255253Y17613409D01*
X36331443Y17537219D01*
X36369539Y17461028D01*
D10*
X21661904Y30332857D02*
X21614285Y30285238D01*
X21471428Y30237619D01*
X21376190Y30237619D01*
X21233333Y30285238D01*
X21138095Y30380476D01*
X21090476Y30475714D01*
X21042857Y30666190D01*
X21042857Y30809047D01*
X21090476Y30999523D01*
X21138095Y31094761D01*
X21233333Y31190000D01*
X21376190Y31237619D01*
X21471428Y31237619D01*
X21614285Y31190000D01*
X21661904Y31142380D01*
X22233333Y30237619D02*
X22138095Y30285238D01*
X22090476Y30332857D01*
X22042857Y30428095D01*
X22042857Y30713809D01*
X22090476Y30809047D01*
X22138095Y30856666D01*
X22233333Y30904285D01*
X22376190Y30904285D01*
X22471428Y30856666D01*
X22519047Y30809047D01*
X22566666Y30713809D01*
X22566666Y30428095D01*
X22519047Y30332857D01*
X22471428Y30285238D01*
X22376190Y30237619D01*
X22233333Y30237619D01*
X22995238Y30904285D02*
X22995238Y30237619D01*
X22995238Y30809047D02*
X23042857Y30856666D01*
X23138095Y30904285D01*
X23280952Y30904285D01*
X23376190Y30856666D01*
X23423809Y30761428D01*
X23423809Y30237619D01*
X23900000Y30904285D02*
X23900000Y30237619D01*
X23900000Y30809047D02*
X23947619Y30856666D01*
X24042857Y30904285D01*
X24185714Y30904285D01*
X24280952Y30856666D01*
X24328571Y30761428D01*
X24328571Y30237619D01*
X24566666Y30142380D02*
X25328571Y30142380D01*
X25757142Y31237619D02*
X25852380Y31237619D01*
X25947619Y31190000D01*
X25995238Y31142380D01*
X26042857Y31047142D01*
X26090476Y30856666D01*
X26090476Y30618571D01*
X26042857Y30428095D01*
X25995238Y30332857D01*
X25947619Y30285238D01*
X25852380Y30237619D01*
X25757142Y30237619D01*
X25661904Y30285238D01*
X25614285Y30332857D01*
X25566666Y30428095D01*
X25519047Y30618571D01*
X25519047Y30856666D01*
X25566666Y31047142D01*
X25614285Y31142380D01*
X25661904Y31190000D01*
X25757142Y31237619D01*
X27042857Y30237619D02*
X26471428Y30237619D01*
X26757142Y30237619D02*
X26757142Y31237619D01*
X26661904Y31094761D01*
X26566666Y30999523D01*
X26471428Y30951904D01*
X27376190Y30237619D02*
X27900000Y30904285D01*
X27376190Y30904285D02*
X27900000Y30237619D01*
X28471428Y31237619D02*
X28566666Y31237619D01*
X28661904Y31190000D01*
X28709523Y31142380D01*
X28757142Y31047142D01*
X28804761Y30856666D01*
X28804761Y30618571D01*
X28757142Y30428095D01*
X28709523Y30332857D01*
X28661904Y30285238D01*
X28566666Y30237619D01*
X28471428Y30237619D01*
X28376190Y30285238D01*
X28328571Y30332857D01*
X28280952Y30428095D01*
X28233333Y30618571D01*
X28233333Y30856666D01*
X28280952Y31047142D01*
X28328571Y31142380D01*
X28376190Y31190000D01*
X28471428Y31237619D01*
X29185714Y31142380D02*
X29233333Y31190000D01*
X29328571Y31237619D01*
X29566666Y31237619D01*
X29661904Y31190000D01*
X29709523Y31142380D01*
X29757142Y31047142D01*
X29757142Y30951904D01*
X29709523Y30809047D01*
X29138095Y30237619D01*
X29757142Y30237619D01*
X25852380Y31456666D02*
X24852380Y31456666D01*
X25328571Y31456666D02*
X25328571Y32028095D01*
X25852380Y32028095D02*
X24852380Y32028095D01*
X25804761Y32885238D02*
X25852380Y32790000D01*
X25852380Y32599523D01*
X25804761Y32504285D01*
X25709523Y32456666D01*
X25328571Y32456666D01*
X25233333Y32504285D01*
X25185714Y32599523D01*
X25185714Y32790000D01*
X25233333Y32885238D01*
X25328571Y32932857D01*
X25423809Y32932857D01*
X25519047Y32456666D01*
X25852380Y33790000D02*
X25328571Y33790000D01*
X25233333Y33742380D01*
X25185714Y33647142D01*
X25185714Y33456666D01*
X25233333Y33361428D01*
X25804761Y33790000D02*
X25852380Y33694761D01*
X25852380Y33456666D01*
X25804761Y33361428D01*
X25709523Y33313809D01*
X25614285Y33313809D01*
X25519047Y33361428D01*
X25471428Y33456666D01*
X25471428Y33694761D01*
X25423809Y33790000D01*
X25852380Y34694761D02*
X24852380Y34694761D01*
X25804761Y34694761D02*
X25852380Y34599523D01*
X25852380Y34409047D01*
X25804761Y34313809D01*
X25757142Y34266190D01*
X25661904Y34218571D01*
X25376190Y34218571D01*
X25280952Y34266190D01*
X25233333Y34313809D01*
X25185714Y34409047D01*
X25185714Y34599523D01*
X25233333Y34694761D01*
X25804761Y35551904D02*
X25852380Y35456666D01*
X25852380Y35266190D01*
X25804761Y35170952D01*
X25709523Y35123333D01*
X25328571Y35123333D01*
X25233333Y35170952D01*
X25185714Y35266190D01*
X25185714Y35456666D01*
X25233333Y35551904D01*
X25328571Y35599523D01*
X25423809Y35599523D01*
X25519047Y35123333D01*
X25852380Y36028095D02*
X25185714Y36028095D01*
X25376190Y36028095D02*
X25280952Y36075714D01*
X25233333Y36123333D01*
X25185714Y36218571D01*
X25185714Y36313809D01*
X25852380Y37170952D02*
X25852380Y36599523D01*
X25852380Y36885238D02*
X24852380Y36885238D01*
X24995238Y36790000D01*
X25090476Y36694761D01*
X25138095Y36599523D01*
X32752380Y32734285D02*
X32752380Y32162857D01*
X32752380Y32448571D02*
X31752380Y32448571D01*
X31895238Y32353333D01*
X31990476Y32258095D01*
X32038095Y32162857D01*
X32752380Y33162857D02*
X31752380Y33162857D01*
X32466666Y33496190D01*
X31752380Y33829523D01*
X32752380Y33829523D01*
D11*
X30841904Y32505714D02*
X30460952Y32239047D01*
X30841904Y32048571D02*
X30041904Y32048571D01*
X30041904Y32353333D01*
X30080000Y32429523D01*
X30118095Y32467619D01*
X30194285Y32505714D01*
X30308571Y32505714D01*
X30384761Y32467619D01*
X30422857Y32429523D01*
X30460952Y32353333D01*
X30460952Y32048571D01*
X30841904Y33267619D02*
X30841904Y32810476D01*
X30841904Y33039047D02*
X30041904Y33039047D01*
X30156190Y32962857D01*
X30232380Y32886666D01*
X30270476Y32810476D01*
X30308571Y33953333D02*
X30841904Y33953333D01*
X30003809Y33762857D02*
X30575238Y33572380D01*
X30575238Y34067619D01*
D10*
X9993333Y24127619D02*
X9517142Y24127619D01*
X9469523Y23651428D01*
X9517142Y23699047D01*
X9612380Y23746666D01*
X9850476Y23746666D01*
X9945714Y23699047D01*
X9993333Y23651428D01*
X10040952Y23556190D01*
X10040952Y23318095D01*
X9993333Y23222857D01*
X9945714Y23175238D01*
X9850476Y23127619D01*
X9612380Y23127619D01*
X9517142Y23175238D01*
X9469523Y23222857D01*
X10469523Y23127619D02*
X10469523Y24127619D01*
X10564761Y23508571D02*
X10850476Y23127619D01*
X10850476Y23794285D02*
X10469523Y23413333D01*
D11*
X9283809Y25038095D02*
X9017142Y25419047D01*
X8826666Y25038095D02*
X8826666Y25838095D01*
X9131428Y25838095D01*
X9207619Y25800000D01*
X9245714Y25761904D01*
X9283809Y25685714D01*
X9283809Y25571428D01*
X9245714Y25495238D01*
X9207619Y25457142D01*
X9131428Y25419047D01*
X8826666Y25419047D01*
X9626666Y25038095D02*
X9626666Y25838095D01*
X9931428Y25838095D01*
X10007619Y25800000D01*
X10045714Y25761904D01*
X10083809Y25685714D01*
X10083809Y25571428D01*
X10045714Y25495238D01*
X10007619Y25457142D01*
X9931428Y25419047D01*
X9626666Y25419047D01*
X10312380Y25838095D02*
X10579047Y25038095D01*
X10845714Y25838095D01*
X11531428Y25038095D02*
X11074285Y25038095D01*
X11302857Y25038095D02*
X11302857Y25838095D01*
X11226666Y25723809D01*
X11150476Y25647619D01*
X11074285Y25609523D01*
D10*
X21809516Y9348418D02*
X22380944Y9348418D01*
X22095230Y8348418D02*
X22095230Y9348418D01*
X23095230Y8396037D02*
X22999992Y8348418D01*
X22809516Y8348418D01*
X22714278Y8396037D01*
X22666659Y8491275D01*
X22666659Y8872227D01*
X22714278Y8967465D01*
X22809516Y9015084D01*
X22999992Y9015084D01*
X23095230Y8967465D01*
X23142849Y8872227D01*
X23142849Y8776989D01*
X22666659Y8681751D01*
X23523801Y8396037D02*
X23619039Y8348418D01*
X23809516Y8348418D01*
X23904754Y8396037D01*
X23952373Y8491275D01*
X23952373Y8538894D01*
X23904754Y8634132D01*
X23809516Y8681751D01*
X23666659Y8681751D01*
X23571420Y8729370D01*
X23523801Y8824608D01*
X23523801Y8872227D01*
X23571420Y8967465D01*
X23666659Y9015084D01*
X23809516Y9015084D01*
X23904754Y8967465D01*
X24238087Y9015084D02*
X24619039Y9015084D01*
X24380944Y9348418D02*
X24380944Y8491275D01*
X24428563Y8396037D01*
X24523801Y8348418D01*
X24619039Y8348418D01*
X24952373Y8348418D02*
X24952373Y9348418D01*
X25333325Y9348418D01*
X25428563Y9300799D01*
X25476182Y9253179D01*
X25523801Y9157941D01*
X25523801Y9015084D01*
X25476182Y8919846D01*
X25428563Y8872227D01*
X25333325Y8824608D01*
X24952373Y8824608D01*
X26095230Y8348418D02*
X25999992Y8396037D01*
X25952373Y8443656D01*
X25904754Y8538894D01*
X25904754Y8824608D01*
X25952373Y8919846D01*
X25999992Y8967465D01*
X26095230Y9015084D01*
X26238087Y9015084D01*
X26333325Y8967465D01*
X26380944Y8919846D01*
X26428563Y8824608D01*
X26428563Y8538894D01*
X26380944Y8443656D01*
X26333325Y8396037D01*
X26238087Y8348418D01*
X26095230Y8348418D01*
X26857135Y8348418D02*
X26857135Y9015084D01*
X26857135Y9348418D02*
X26809516Y9300799D01*
X26857135Y9253179D01*
X26904754Y9300799D01*
X26857135Y9348418D01*
X26857135Y9253179D01*
X27333325Y9015084D02*
X27333325Y8348418D01*
X27333325Y8919846D02*
X27380944Y8967465D01*
X27476182Y9015084D01*
X27619039Y9015084D01*
X27714278Y8967465D01*
X27761897Y8872227D01*
X27761897Y8348418D01*
X28095230Y9015084D02*
X28476182Y9015084D01*
X28238087Y9348418D02*
X28238087Y8491275D01*
X28285706Y8396037D01*
X28380944Y8348418D01*
X28476182Y8348418D01*
X29333325Y9300799D02*
X29238087Y9348418D01*
X29095230Y9348418D01*
X28952373Y9300799D01*
X28857135Y9205560D01*
X28809516Y9110322D01*
X28761897Y8919846D01*
X28761897Y8776989D01*
X28809516Y8586513D01*
X28857135Y8491275D01*
X28952373Y8396037D01*
X29095230Y8348418D01*
X29190468Y8348418D01*
X29333325Y8396037D01*
X29380944Y8443656D01*
X29380944Y8776989D01*
X29190468Y8776989D01*
X29809516Y8348418D02*
X29809516Y9348418D01*
X30380944Y8348418D01*
X30380944Y9348418D01*
X30857135Y8348418D02*
X30857135Y9348418D01*
X31095230Y9348418D01*
X31238087Y9300799D01*
X31333325Y9205560D01*
X31380944Y9110322D01*
X31428563Y8919846D01*
X31428563Y8776989D01*
X31380944Y8586513D01*
X31333325Y8491275D01*
X31238087Y8396037D01*
X31095230Y8348418D01*
X30857135Y8348418D01*
X26166659Y9892703D02*
X26119039Y9797465D01*
X26119039Y9654608D01*
X26166659Y9511751D01*
X26261897Y9416513D01*
X26357135Y9368894D01*
X26547611Y9321275D01*
X26690468Y9321275D01*
X26880944Y9368894D01*
X26976182Y9416513D01*
X27071420Y9511751D01*
X27119039Y9654608D01*
X27119039Y9749846D01*
X27071420Y9892703D01*
X27023801Y9940322D01*
X26690468Y9940322D01*
X26690468Y9749846D01*
X27119039Y10368894D02*
X26119039Y10368894D01*
X27119039Y10940322D01*
X26119039Y10940322D01*
X27119039Y11416513D02*
X26119039Y11416513D01*
X26119039Y11654608D01*
X26166659Y11797465D01*
X26261897Y11892703D01*
X26357135Y11940322D01*
X26547611Y11987941D01*
X26690468Y11987941D01*
X26880944Y11940322D01*
X26976182Y11892703D01*
X27071420Y11797465D01*
X27119039Y11654608D01*
X27119039Y11416513D01*
X26119039Y12321275D02*
X26119039Y12940322D01*
X26499992Y12606989D01*
X26499992Y12749846D01*
X26547611Y12845084D01*
X26595230Y12892703D01*
X26690468Y12940322D01*
X26928563Y12940322D01*
X27023801Y12892703D01*
X27071420Y12845084D01*
X27119039Y12749846D01*
X27119039Y12464132D01*
X27071420Y12368894D01*
X27023801Y12321275D01*
X21590069Y34698105D02*
X21637688Y34650486D01*
X21685307Y34507629D01*
X21685307Y34412391D01*
X21637688Y34269534D01*
X21542450Y34174296D01*
X21447212Y34126677D01*
X21256736Y34079058D01*
X21113879Y34079058D01*
X20923403Y34126677D01*
X20828165Y34174296D01*
X20732927Y34269534D01*
X20685307Y34412391D01*
X20685307Y34507629D01*
X20732927Y34650486D01*
X20780546Y34698105D01*
X21685307Y35269534D02*
X21637688Y35174296D01*
X21590069Y35126677D01*
X21494831Y35079058D01*
X21209117Y35079058D01*
X21113879Y35126677D01*
X21066260Y35174296D01*
X21018641Y35269534D01*
X21018641Y35412391D01*
X21066260Y35507629D01*
X21113879Y35555248D01*
X21209117Y35602867D01*
X21494831Y35602867D01*
X21590069Y35555248D01*
X21637688Y35507629D01*
X21685307Y35412391D01*
X21685307Y35269534D01*
X21018641Y36031439D02*
X21685307Y36031439D01*
X21113879Y36031439D02*
X21066260Y36079058D01*
X21018641Y36174296D01*
X21018641Y36317153D01*
X21066260Y36412391D01*
X21161498Y36460010D01*
X21685307Y36460010D01*
X21018641Y36936201D02*
X21685307Y36936201D01*
X21113879Y36936201D02*
X21066260Y36983820D01*
X21018641Y37079058D01*
X21018641Y37221915D01*
X21066260Y37317153D01*
X21161498Y37364772D01*
X21685307Y37364772D01*
X21780546Y37602867D02*
X21780546Y38364772D01*
X20685307Y38793343D02*
X20685307Y38888582D01*
X20732927Y38983820D01*
X20780546Y39031439D01*
X20875784Y39079058D01*
X21066260Y39126677D01*
X21304355Y39126677D01*
X21494831Y39079058D01*
X21590069Y39031439D01*
X21637688Y38983820D01*
X21685307Y38888582D01*
X21685307Y38793343D01*
X21637688Y38698105D01*
X21590069Y38650486D01*
X21494831Y38602867D01*
X21304355Y38555248D01*
X21066260Y38555248D01*
X20875784Y38602867D01*
X20780546Y38650486D01*
X20732927Y38698105D01*
X20685307Y38793343D01*
X20780546Y39507629D02*
X20732927Y39555248D01*
X20685307Y39650486D01*
X20685307Y39888582D01*
X20732927Y39983820D01*
X20780546Y40031439D01*
X20875784Y40079058D01*
X20971022Y40079058D01*
X21113879Y40031439D01*
X21685307Y39460010D01*
X21685307Y40079058D01*
X21685307Y40412391D02*
X21018641Y40936201D01*
X21018641Y40412391D02*
X21685307Y40936201D01*
X20685307Y41507629D02*
X20685307Y41602867D01*
X20732927Y41698105D01*
X20780546Y41745724D01*
X20875784Y41793343D01*
X21066260Y41840963D01*
X21304355Y41840963D01*
X21494831Y41793343D01*
X21590069Y41745724D01*
X21637688Y41698105D01*
X21685307Y41602867D01*
X21685307Y41507629D01*
X21637688Y41412391D01*
X21590069Y41364772D01*
X21494831Y41317153D01*
X21304355Y41269534D01*
X21066260Y41269534D01*
X20875784Y41317153D01*
X20780546Y41364772D01*
X20732927Y41412391D01*
X20685307Y41507629D01*
X21018641Y42698105D02*
X21685307Y42698105D01*
X20637688Y42460010D02*
X21351974Y42221915D01*
X21351974Y42840963D01*
X21780546Y42983820D02*
X21780546Y43745724D01*
X20685307Y44174296D02*
X20685307Y44364772D01*
X20732927Y44460010D01*
X20828165Y44555248D01*
X21018641Y44602867D01*
X21351974Y44602867D01*
X21542450Y44555248D01*
X21637688Y44460010D01*
X21685307Y44364772D01*
X21685307Y44174296D01*
X21637688Y44079058D01*
X21542450Y43983820D01*
X21351974Y43936201D01*
X21018641Y43936201D01*
X20828165Y43983820D01*
X20732927Y44079058D01*
X20685307Y44174296D01*
X21685307Y45460010D02*
X20685307Y45460010D01*
X21637688Y45460010D02*
X21685307Y45364772D01*
X21685307Y45174296D01*
X21637688Y45079058D01*
X21590069Y45031439D01*
X21494831Y44983820D01*
X21209117Y44983820D01*
X21113879Y45031439D01*
X21066260Y45079058D01*
X21018641Y45174296D01*
X21018641Y45364772D01*
X21066260Y45460010D01*
X21685307Y46364772D02*
X20685307Y46364772D01*
X21637688Y46364772D02*
X21685307Y46269534D01*
X21685307Y46079058D01*
X21637688Y45983820D01*
X21590069Y45936201D01*
X21494831Y45888582D01*
X21209117Y45888582D01*
X21113879Y45936201D01*
X21066260Y45983820D01*
X21018641Y46079058D01*
X21018641Y46269534D01*
X21066260Y46364772D01*
X21780546Y46602867D02*
X21780546Y47364772D01*
X21161498Y47602867D02*
X21161498Y47936201D01*
X21685307Y48079058D02*
X21685307Y47602867D01*
X20685307Y47602867D01*
X20685307Y48079058D01*
X21018641Y48412391D02*
X21685307Y48650486D01*
X21018641Y48888582D01*
X21637688Y49650486D02*
X21685307Y49555248D01*
X21685307Y49364772D01*
X21637688Y49269534D01*
X21542450Y49221915D01*
X21161498Y49221915D01*
X21066260Y49269534D01*
X21018641Y49364772D01*
X21018641Y49555248D01*
X21066260Y49650486D01*
X21161498Y49698105D01*
X21256736Y49698105D01*
X21351974Y49221915D01*
X21018641Y50126677D02*
X21685307Y50126677D01*
X21113879Y50126677D02*
X21066260Y50174296D01*
X21018641Y50269534D01*
X21018641Y50412391D01*
X21066260Y50507629D01*
X21161498Y50555248D01*
X21685307Y50555248D01*
X24468165Y41888582D02*
X24134831Y42364772D01*
X23896736Y41888582D02*
X23896736Y42888582D01*
X24277688Y42888582D01*
X24372927Y42840963D01*
X24420546Y42793343D01*
X24468165Y42698105D01*
X24468165Y42555248D01*
X24420546Y42460010D01*
X24372927Y42412391D01*
X24277688Y42364772D01*
X23896736Y42364772D01*
X25420546Y41888582D02*
X24849117Y41888582D01*
X25134831Y41888582D02*
X25134831Y42888582D01*
X25039593Y42745724D01*
X24944355Y42650486D01*
X24849117Y42602867D01*
X25801498Y42174296D02*
X26277688Y42174296D01*
X25706260Y41888582D02*
X26039593Y42888582D01*
X26372927Y41888582D01*
X27134831Y41888582D02*
X27134831Y42888582D01*
X27134831Y41936201D02*
X27039593Y41888582D01*
X26849117Y41888582D01*
X26753879Y41936201D01*
X26706260Y41983820D01*
X26658641Y42079058D01*
X26658641Y42364772D01*
X26706260Y42460010D01*
X26753879Y42507629D01*
X26849117Y42555248D01*
X27039593Y42555248D01*
X27134831Y42507629D01*
X27611022Y42555248D02*
X27611022Y41698105D01*
X27563403Y41602867D01*
X27468165Y41555248D01*
X27420546Y41555248D01*
X27611022Y42888582D02*
X27563403Y42840963D01*
X27611022Y42793343D01*
X27658641Y42840963D01*
X27611022Y42888582D01*
X27611022Y42793343D01*
X28515784Y42555248D02*
X28515784Y41888582D01*
X28087212Y42555248D02*
X28087212Y42031439D01*
X28134831Y41936201D01*
X28230069Y41888582D01*
X28372927Y41888582D01*
X28468165Y41936201D01*
X28515784Y41983820D01*
X28944355Y41936201D02*
X29039593Y41888582D01*
X29230069Y41888582D01*
X29325307Y41936201D01*
X29372927Y42031439D01*
X29372927Y42079058D01*
X29325307Y42174296D01*
X29230069Y42221915D01*
X29087212Y42221915D01*
X28991974Y42269534D01*
X28944355Y42364772D01*
X28944355Y42412391D01*
X28991974Y42507629D01*
X29087212Y42555248D01*
X29230069Y42555248D01*
X29325307Y42507629D01*
X29658641Y42555248D02*
X30039593Y42555248D01*
X29801498Y42888582D02*
X29801498Y42031439D01*
X29849117Y41936201D01*
X29944355Y41888582D01*
X30039593Y41888582D01*
X30896736Y41888582D02*
X30325307Y41888582D01*
X30611022Y41888582D02*
X30611022Y42888582D01*
X30515784Y42745724D01*
X30420546Y42650486D01*
X30325307Y42602867D01*
X31662155Y20761342D02*
X32233583Y20761342D01*
X31947869Y19761342D02*
X31947869Y20761342D01*
X32947869Y19808961D02*
X32852631Y19761342D01*
X32662155Y19761342D01*
X32566917Y19808961D01*
X32519298Y19904199D01*
X32519298Y20285151D01*
X32566917Y20380389D01*
X32662155Y20428008D01*
X32852631Y20428008D01*
X32947869Y20380389D01*
X32995488Y20285151D01*
X32995488Y20189913D01*
X32519298Y20094675D01*
X33376440Y19808961D02*
X33471678Y19761342D01*
X33662155Y19761342D01*
X33757393Y19808961D01*
X33805012Y19904199D01*
X33805012Y19951818D01*
X33757393Y20047056D01*
X33662155Y20094675D01*
X33519298Y20094675D01*
X33424059Y20142294D01*
X33376440Y20237532D01*
X33376440Y20285151D01*
X33424059Y20380389D01*
X33519298Y20428008D01*
X33662155Y20428008D01*
X33757393Y20380389D01*
X34090726Y20428008D02*
X34471678Y20428008D01*
X34233583Y20761342D02*
X34233583Y19904199D01*
X34281202Y19808961D01*
X34376440Y19761342D01*
X34471678Y19761342D01*
X34805012Y19761342D02*
X34805012Y20761342D01*
X35185964Y20761342D01*
X35281202Y20713723D01*
X35328821Y20666103D01*
X35376440Y20570865D01*
X35376440Y20428008D01*
X35328821Y20332770D01*
X35281202Y20285151D01*
X35185964Y20237532D01*
X34805012Y20237532D01*
X35947869Y19761342D02*
X35852631Y19808961D01*
X35805012Y19856580D01*
X35757393Y19951818D01*
X35757393Y20237532D01*
X35805012Y20332770D01*
X35852631Y20380389D01*
X35947869Y20428008D01*
X36090726Y20428008D01*
X36185964Y20380389D01*
X36233583Y20332770D01*
X36281202Y20237532D01*
X36281202Y19951818D01*
X36233583Y19856580D01*
X36185964Y19808961D01*
X36090726Y19761342D01*
X35947869Y19761342D01*
X36709774Y19761342D02*
X36709774Y20428008D01*
X36709774Y20761342D02*
X36662155Y20713723D01*
X36709774Y20666103D01*
X36757393Y20713723D01*
X36709774Y20761342D01*
X36709774Y20666103D01*
X37185964Y20428008D02*
X37185964Y19761342D01*
X37185964Y20332770D02*
X37233583Y20380389D01*
X37328821Y20428008D01*
X37471678Y20428008D01*
X37566917Y20380389D01*
X37614536Y20285151D01*
X37614536Y19761342D01*
X37947869Y20428008D02*
X38328821Y20428008D01*
X38090726Y20761342D02*
X38090726Y19904199D01*
X38138345Y19808961D01*
X38233583Y19761342D01*
X38328821Y19761342D01*
X39185964Y20713723D02*
X39090726Y20761342D01*
X38947869Y20761342D01*
X38805012Y20713723D01*
X38709774Y20618484D01*
X38662155Y20523246D01*
X38614536Y20332770D01*
X38614536Y20189913D01*
X38662155Y19999437D01*
X38709774Y19904199D01*
X38805012Y19808961D01*
X38947869Y19761342D01*
X39043107Y19761342D01*
X39185964Y19808961D01*
X39233583Y19856580D01*
X39233583Y20189913D01*
X39043107Y20189913D01*
X39662155Y19761342D02*
X39662155Y20761342D01*
X40233583Y19761342D01*
X40233583Y20761342D01*
X40709774Y19761342D02*
X40709774Y20761342D01*
X40947869Y20761342D01*
X41090726Y20713723D01*
X41185964Y20618484D01*
X41233583Y20523246D01*
X41281202Y20332770D01*
X41281202Y20189913D01*
X41233583Y19999437D01*
X41185964Y19904199D01*
X41090726Y19808961D01*
X40947869Y19761342D01*
X40709774Y19761342D01*
X36019298Y21305627D02*
X35971678Y21210389D01*
X35971678Y21067532D01*
X36019298Y20924675D01*
X36114536Y20829437D01*
X36209774Y20781818D01*
X36400250Y20734199D01*
X36543107Y20734199D01*
X36733583Y20781818D01*
X36828821Y20829437D01*
X36924059Y20924675D01*
X36971678Y21067532D01*
X36971678Y21162770D01*
X36924059Y21305627D01*
X36876440Y21353246D01*
X36543107Y21353246D01*
X36543107Y21162770D01*
X36971678Y21781818D02*
X35971678Y21781818D01*
X36971678Y22353246D01*
X35971678Y22353246D01*
X36971678Y22829437D02*
X35971678Y22829437D01*
X35971678Y23067532D01*
X36019298Y23210389D01*
X36114536Y23305627D01*
X36209774Y23353246D01*
X36400250Y23400865D01*
X36543107Y23400865D01*
X36733583Y23353246D01*
X36828821Y23305627D01*
X36924059Y23210389D01*
X36971678Y23067532D01*
X36971678Y22829437D01*
X36066917Y23781818D02*
X36019298Y23829437D01*
X35971678Y23924675D01*
X35971678Y24162770D01*
X36019298Y24258008D01*
X36066917Y24305627D01*
X36162155Y24353246D01*
X36257393Y24353246D01*
X36400250Y24305627D01*
X36971678Y23734199D01*
X36971678Y24353246D01*
X37832380Y31948571D02*
X37832380Y31377142D01*
X37832380Y31662857D02*
X36832380Y31662857D01*
X36975238Y31567619D01*
X37070476Y31472380D01*
X37118095Y31377142D01*
X36832380Y32567619D02*
X36832380Y32662857D01*
X36880000Y32758095D01*
X36927619Y32805714D01*
X37022857Y32853333D01*
X37213333Y32900952D01*
X37451428Y32900952D01*
X37641904Y32853333D01*
X37737142Y32805714D01*
X37784761Y32758095D01*
X37832380Y32662857D01*
X37832380Y32567619D01*
X37784761Y32472380D01*
X37737142Y32424761D01*
X37641904Y32377142D01*
X37451428Y32329523D01*
X37213333Y32329523D01*
X37022857Y32377142D01*
X36927619Y32424761D01*
X36880000Y32472380D01*
X36832380Y32567619D01*
X36832380Y33520000D02*
X36832380Y33615238D01*
X36880000Y33710476D01*
X36927619Y33758095D01*
X37022857Y33805714D01*
X37213333Y33853333D01*
X37451428Y33853333D01*
X37641904Y33805714D01*
X37737142Y33758095D01*
X37784761Y33710476D01*
X37832380Y33615238D01*
X37832380Y33520000D01*
X37784761Y33424761D01*
X37737142Y33377142D01*
X37641904Y33329523D01*
X37451428Y33281904D01*
X37213333Y33281904D01*
X37022857Y33329523D01*
X36927619Y33377142D01*
X36880000Y33424761D01*
X36832380Y33520000D01*
X37832380Y34281904D02*
X36832380Y34281904D01*
X37451428Y34377142D02*
X37832380Y34662857D01*
X37165714Y34662857D02*
X37546666Y34281904D01*
D11*
X35921904Y32505714D02*
X35540952Y32239047D01*
X35921904Y32048571D02*
X35121904Y32048571D01*
X35121904Y32353333D01*
X35160000Y32429523D01*
X35198095Y32467619D01*
X35274285Y32505714D01*
X35388571Y32505714D01*
X35464761Y32467619D01*
X35502857Y32429523D01*
X35540952Y32353333D01*
X35540952Y32048571D01*
X35921904Y33267619D02*
X35921904Y32810476D01*
X35921904Y33039047D02*
X35121904Y33039047D01*
X35236190Y32962857D01*
X35312380Y32886666D01*
X35350476Y32810476D01*
X35198095Y33572380D02*
X35160000Y33610476D01*
X35121904Y33686666D01*
X35121904Y33877142D01*
X35160000Y33953333D01*
X35198095Y33991428D01*
X35274285Y34029523D01*
X35350476Y34029523D01*
X35464761Y33991428D01*
X35921904Y33534285D01*
X35921904Y34029523D01*
D10*
X34625714Y31853333D02*
X35292380Y31853333D01*
X34244761Y31615238D02*
X34959047Y31377142D01*
X34959047Y31996190D01*
X34292380Y32281904D02*
X34292380Y32948571D01*
X35292380Y32520000D01*
X34292380Y33805714D02*
X34292380Y33329523D01*
X34768571Y33281904D01*
X34720952Y33329523D01*
X34673333Y33424761D01*
X34673333Y33662857D01*
X34720952Y33758095D01*
X34768571Y33805714D01*
X34863809Y33853333D01*
X35101904Y33853333D01*
X35197142Y33805714D01*
X35244761Y33758095D01*
X35292380Y33662857D01*
X35292380Y33424761D01*
X35244761Y33329523D01*
X35197142Y33281904D01*
X35292380Y34281904D02*
X34292380Y34281904D01*
X34911428Y34377142D02*
X35292380Y34662857D01*
X34625714Y34662857D02*
X35006666Y34281904D01*
D11*
X33381904Y32505714D02*
X33000952Y32239047D01*
X33381904Y32048571D02*
X32581904Y32048571D01*
X32581904Y32353333D01*
X32620000Y32429523D01*
X32658095Y32467619D01*
X32734285Y32505714D01*
X32848571Y32505714D01*
X32924761Y32467619D01*
X32962857Y32429523D01*
X33000952Y32353333D01*
X33000952Y32048571D01*
X33381904Y33267619D02*
X33381904Y32810476D01*
X33381904Y33039047D02*
X32581904Y33039047D01*
X32696190Y32962857D01*
X32772380Y32886666D01*
X32810476Y32810476D01*
X32581904Y33534285D02*
X32581904Y34029523D01*
X32886666Y33762857D01*
X32886666Y33877142D01*
X32924761Y33953333D01*
X32962857Y33991428D01*
X33039047Y34029523D01*
X33229523Y34029523D01*
X33305714Y33991428D01*
X33343809Y33953333D01*
X33381904Y33877142D01*
X33381904Y33648571D01*
X33343809Y33572380D01*
X33305714Y33534285D01*
D10*
X21416616Y37220387D02*
X21464235Y37363244D01*
X21464235Y37601340D01*
X21416616Y37696578D01*
X21368997Y37744197D01*
X21273759Y37791816D01*
X21178521Y37791816D01*
X21083283Y37744197D01*
X21035664Y37696578D01*
X20988045Y37601340D01*
X20940426Y37410863D01*
X20892807Y37315625D01*
X20845188Y37268006D01*
X20749950Y37220387D01*
X20654712Y37220387D01*
X20559474Y37268006D01*
X20511855Y37315625D01*
X20464235Y37410863D01*
X20464235Y37648959D01*
X20511855Y37791816D01*
X21416616Y38648959D02*
X21464235Y38553721D01*
X21464235Y38363244D01*
X21416616Y38268006D01*
X21368997Y38220387D01*
X21273759Y38172768D01*
X20988045Y38172768D01*
X20892807Y38220387D01*
X20845188Y38268006D01*
X20797569Y38363244D01*
X20797569Y38553721D01*
X20845188Y38648959D01*
X21464235Y39077530D02*
X20797569Y39077530D01*
X20988045Y39077530D02*
X20892807Y39125149D01*
X20845188Y39172768D01*
X20797569Y39268006D01*
X20797569Y39363244D01*
X21416616Y40077530D02*
X21464235Y39982292D01*
X21464235Y39791816D01*
X21416616Y39696578D01*
X21321378Y39648959D01*
X20940426Y39648959D01*
X20845188Y39696578D01*
X20797569Y39791816D01*
X20797569Y39982292D01*
X20845188Y40077530D01*
X20940426Y40125149D01*
X21035664Y40125149D01*
X21130902Y39648959D01*
X20797569Y40458483D02*
X21464235Y40648959D01*
X20988045Y40839435D01*
X21464235Y41029911D01*
X20797569Y41220387D01*
X21559474Y41363244D02*
X21559474Y42125149D01*
X20464235Y42220387D02*
X20464235Y42791816D01*
X21464235Y42506102D02*
X20464235Y42506102D01*
X21416616Y43506102D02*
X21464235Y43410863D01*
X21464235Y43220387D01*
X21416616Y43125149D01*
X21321378Y43077530D01*
X20940426Y43077530D01*
X20845188Y43125149D01*
X20797569Y43220387D01*
X20797569Y43410863D01*
X20845188Y43506102D01*
X20940426Y43553721D01*
X21035664Y43553721D01*
X21130902Y43077530D01*
X21464235Y43982292D02*
X20797569Y43982292D01*
X20988045Y43982292D02*
X20892807Y44029911D01*
X20845188Y44077530D01*
X20797569Y44172768D01*
X20797569Y44268006D01*
X21464235Y44601340D02*
X20797569Y44601340D01*
X20892807Y44601340D02*
X20845188Y44648959D01*
X20797569Y44744197D01*
X20797569Y44887054D01*
X20845188Y44982292D01*
X20940426Y45029911D01*
X21464235Y45029911D01*
X20940426Y45029911D02*
X20845188Y45077530D01*
X20797569Y45172768D01*
X20797569Y45315625D01*
X20845188Y45410863D01*
X20940426Y45458483D01*
X21464235Y45458483D01*
X21464235Y45934673D02*
X20797569Y45934673D01*
X20464235Y45934673D02*
X20511855Y45887054D01*
X20559474Y45934673D01*
X20511855Y45982292D01*
X20464235Y45934673D01*
X20559474Y45934673D01*
X20797569Y46410863D02*
X21464235Y46410863D01*
X20892807Y46410863D02*
X20845188Y46458483D01*
X20797569Y46553721D01*
X20797569Y46696578D01*
X20845188Y46791816D01*
X20940426Y46839435D01*
X21464235Y46839435D01*
X21464235Y47744197D02*
X20940426Y47744197D01*
X20845188Y47696578D01*
X20797569Y47601340D01*
X20797569Y47410863D01*
X20845188Y47315625D01*
X21416616Y47744197D02*
X21464235Y47648959D01*
X21464235Y47410863D01*
X21416616Y47315625D01*
X21321378Y47268006D01*
X21226140Y47268006D01*
X21130902Y47315625D01*
X21083283Y47410863D01*
X21083283Y47648959D01*
X21035664Y47744197D01*
X21464235Y48363244D02*
X21416616Y48268006D01*
X21321378Y48220387D01*
X20464235Y48220387D01*
X21559474Y48506102D02*
X21559474Y49268006D01*
X20464235Y49696578D02*
X20464235Y49791816D01*
X20511855Y49887054D01*
X20559474Y49934673D01*
X20654712Y49982292D01*
X20845188Y50029911D01*
X21083283Y50029911D01*
X21273759Y49982292D01*
X21368997Y49934673D01*
X21416616Y49887054D01*
X21464235Y49791816D01*
X21464235Y49696578D01*
X21416616Y49601340D01*
X21368997Y49553721D01*
X21273759Y49506102D01*
X21083283Y49458483D01*
X20845188Y49458483D01*
X20654712Y49506102D01*
X20559474Y49553721D01*
X20511855Y49601340D01*
X20464235Y49696578D01*
X21464235Y50982292D02*
X21464235Y50410863D01*
X21464235Y50696578D02*
X20464235Y50696578D01*
X20607093Y50601340D01*
X20702331Y50506102D01*
X20749950Y50410863D01*
X21464235Y51315625D02*
X20797569Y51839435D01*
X20797569Y51315625D02*
X21464235Y51839435D01*
X20464235Y52410863D02*
X20464235Y52506102D01*
X20511855Y52601340D01*
X20559474Y52648959D01*
X20654712Y52696578D01*
X20845188Y52744197D01*
X21083283Y52744197D01*
X21273759Y52696578D01*
X21368997Y52648959D01*
X21416616Y52601340D01*
X21464235Y52506102D01*
X21464235Y52410863D01*
X21416616Y52315625D01*
X21368997Y52268006D01*
X21273759Y52220387D01*
X21083283Y52172768D01*
X20845188Y52172768D01*
X20654712Y52220387D01*
X20559474Y52268006D01*
X20511855Y52315625D01*
X20464235Y52410863D01*
X20559474Y53125149D02*
X20511855Y53172768D01*
X20464235Y53268006D01*
X20464235Y53506102D01*
X20511855Y53601340D01*
X20559474Y53648959D01*
X20654712Y53696578D01*
X20749950Y53696578D01*
X20892807Y53648959D01*
X21464235Y53077530D01*
X21464235Y53696578D01*
X16173759Y45006102D02*
X16173759Y46006102D01*
X16411855Y46006102D01*
X16554712Y45958483D01*
X16649950Y45863244D01*
X16697569Y45768006D01*
X16745188Y45577530D01*
X16745188Y45434673D01*
X16697569Y45244197D01*
X16649950Y45148959D01*
X16554712Y45053721D01*
X16411855Y45006102D01*
X16173759Y45006102D01*
X17745188Y45101340D02*
X17697569Y45053721D01*
X17554712Y45006102D01*
X17459474Y45006102D01*
X17316616Y45053721D01*
X17221378Y45148959D01*
X17173759Y45244197D01*
X17126140Y45434673D01*
X17126140Y45577530D01*
X17173759Y45768006D01*
X17221378Y45863244D01*
X17316616Y45958483D01*
X17459474Y46006102D01*
X17554712Y46006102D01*
X17697569Y45958483D01*
X17745188Y45910863D01*
X18126140Y45910863D02*
X18173759Y45958483D01*
X18268997Y46006102D01*
X18507093Y46006102D01*
X18602331Y45958483D01*
X18649950Y45910863D01*
X18697569Y45815625D01*
X18697569Y45720387D01*
X18649950Y45577530D01*
X18078521Y45006102D01*
X18697569Y45006102D01*
X1247142Y27792857D02*
X1199523Y27745238D01*
X1056666Y27697619D01*
X961428Y27697619D01*
X818571Y27745238D01*
X723333Y27840476D01*
X675714Y27935714D01*
X628095Y28126190D01*
X628095Y28269047D01*
X675714Y28459523D01*
X723333Y28554761D01*
X818571Y28650000D01*
X961428Y28697619D01*
X1056666Y28697619D01*
X1199523Y28650000D01*
X1247142Y28602380D01*
X1818571Y27697619D02*
X1723333Y27745238D01*
X1675714Y27792857D01*
X1628095Y27888095D01*
X1628095Y28173809D01*
X1675714Y28269047D01*
X1723333Y28316666D01*
X1818571Y28364285D01*
X1961428Y28364285D01*
X2056666Y28316666D01*
X2104285Y28269047D01*
X2151904Y28173809D01*
X2151904Y27888095D01*
X2104285Y27792857D01*
X2056666Y27745238D01*
X1961428Y27697619D01*
X1818571Y27697619D01*
X2580476Y28364285D02*
X2580476Y27697619D01*
X2580476Y28269047D02*
X2628095Y28316666D01*
X2723333Y28364285D01*
X2866190Y28364285D01*
X2961428Y28316666D01*
X3009047Y28221428D01*
X3009047Y27697619D01*
X3485238Y28364285D02*
X3485238Y27697619D01*
X3485238Y28269047D02*
X3532857Y28316666D01*
X3628095Y28364285D01*
X3770952Y28364285D01*
X3866190Y28316666D01*
X3913809Y28221428D01*
X3913809Y27697619D01*
X4151904Y27602380D02*
X4913809Y27602380D01*
X5342380Y28697619D02*
X5437619Y28697619D01*
X5532857Y28650000D01*
X5580476Y28602380D01*
X5628095Y28507142D01*
X5675714Y28316666D01*
X5675714Y28078571D01*
X5628095Y27888095D01*
X5580476Y27792857D01*
X5532857Y27745238D01*
X5437619Y27697619D01*
X5342380Y27697619D01*
X5247142Y27745238D01*
X5199523Y27792857D01*
X5151904Y27888095D01*
X5104285Y28078571D01*
X5104285Y28316666D01*
X5151904Y28507142D01*
X5199523Y28602380D01*
X5247142Y28650000D01*
X5342380Y28697619D01*
X6056666Y28602380D02*
X6104285Y28650000D01*
X6199523Y28697619D01*
X6437619Y28697619D01*
X6532857Y28650000D01*
X6580476Y28602380D01*
X6628095Y28507142D01*
X6628095Y28411904D01*
X6580476Y28269047D01*
X6009047Y27697619D01*
X6628095Y27697619D01*
X6961428Y27697619D02*
X7485238Y28364285D01*
X6961428Y28364285D02*
X7485238Y27697619D01*
X8056666Y28697619D02*
X8151904Y28697619D01*
X8247142Y28650000D01*
X8294761Y28602380D01*
X8342380Y28507142D01*
X8389999Y28316666D01*
X8389999Y28078571D01*
X8342380Y27888095D01*
X8294761Y27792857D01*
X8247142Y27745238D01*
X8151904Y27697619D01*
X8056666Y27697619D01*
X7961428Y27745238D01*
X7913809Y27792857D01*
X7866190Y27888095D01*
X7818571Y28078571D01*
X7818571Y28316666D01*
X7866190Y28507142D01*
X7913809Y28602380D01*
X7961428Y28650000D01*
X8056666Y28697619D01*
X9247142Y28364285D02*
X9247142Y27697619D01*
X9009047Y28745238D02*
X8770952Y28030952D01*
X9389999Y28030952D01*
X9532857Y27602380D02*
X10294761Y27602380D01*
X10723333Y28697619D02*
X10913809Y28697619D01*
X11009047Y28650000D01*
X11104285Y28554761D01*
X11151904Y28364285D01*
X11151904Y28030952D01*
X11104285Y27840476D01*
X11009047Y27745238D01*
X10913809Y27697619D01*
X10723333Y27697619D01*
X10628095Y27745238D01*
X10532857Y27840476D01*
X10485238Y28030952D01*
X10485238Y28364285D01*
X10532857Y28554761D01*
X10628095Y28650000D01*
X10723333Y28697619D01*
X12009047Y27697619D02*
X12009047Y28697619D01*
X12009047Y27745238D02*
X11913809Y27697619D01*
X11723333Y27697619D01*
X11628095Y27745238D01*
X11580476Y27792857D01*
X11532857Y27888095D01*
X11532857Y28173809D01*
X11580476Y28269047D01*
X11628095Y28316666D01*
X11723333Y28364285D01*
X11913809Y28364285D01*
X12009047Y28316666D01*
X12913809Y27697619D02*
X12913809Y28697619D01*
X12913809Y27745238D02*
X12818571Y27697619D01*
X12628095Y27697619D01*
X12532857Y27745238D01*
X12485238Y27792857D01*
X12437619Y27888095D01*
X12437619Y28173809D01*
X12485238Y28269047D01*
X12532857Y28316666D01*
X12628095Y28364285D01*
X12818571Y28364285D01*
X12913809Y28316666D01*
X13151904Y27602380D02*
X13913809Y27602380D01*
X14151904Y28221428D02*
X14485238Y28221428D01*
X14628095Y27697619D02*
X14151904Y27697619D01*
X14151904Y28697619D01*
X14628095Y28697619D01*
X14961428Y28364285D02*
X15199523Y27697619D01*
X15437619Y28364285D01*
X16199523Y27745238D02*
X16104285Y27697619D01*
X15913809Y27697619D01*
X15818571Y27745238D01*
X15770952Y27840476D01*
X15770952Y28221428D01*
X15818571Y28316666D01*
X15913809Y28364285D01*
X16104285Y28364285D01*
X16199523Y28316666D01*
X16247142Y28221428D01*
X16247142Y28126190D01*
X15770952Y28030952D01*
X16675714Y28364285D02*
X16675714Y27697619D01*
X16675714Y28269047D02*
X16723333Y28316666D01*
X16818571Y28364285D01*
X16961428Y28364285D01*
X17056666Y28316666D01*
X17104285Y28221428D01*
X17104285Y27697619D01*
X9342380Y30980476D02*
X8866190Y30647142D01*
X9342380Y30409047D02*
X8342380Y30409047D01*
X8342380Y30790000D01*
X8390000Y30885238D01*
X8437619Y30932857D01*
X8532857Y30980476D01*
X8675714Y30980476D01*
X8770952Y30932857D01*
X8818571Y30885238D01*
X8866190Y30790000D01*
X8866190Y30409047D01*
X8675714Y31409047D02*
X9675714Y31409047D01*
X8723333Y31409047D02*
X8675714Y31504285D01*
X8675714Y31694761D01*
X8723333Y31790000D01*
X8770952Y31837619D01*
X8866190Y31885238D01*
X9151904Y31885238D01*
X9247142Y31837619D01*
X9294761Y31790000D01*
X9342380Y31694761D01*
X9342380Y31504285D01*
X9294761Y31409047D01*
X9294761Y32742380D02*
X9342380Y32647142D01*
X9342380Y32456666D01*
X9294761Y32361428D01*
X9247142Y32313809D01*
X9151904Y32266190D01*
X8866190Y32266190D01*
X8770952Y32313809D01*
X8723333Y32361428D01*
X8675714Y32456666D01*
X8675714Y32647142D01*
X8723333Y32742380D01*
X9056666Y33123333D02*
X9056666Y33599523D01*
X9342380Y33028095D02*
X8342380Y33361428D01*
X9342380Y33694761D01*
X9342380Y34456666D02*
X8342380Y34456666D01*
X9294761Y34456666D02*
X9342380Y34361428D01*
X9342380Y34170952D01*
X9294761Y34075714D01*
X9247142Y34028095D01*
X9151904Y33980476D01*
X8866190Y33980476D01*
X8770952Y34028095D01*
X8723333Y34075714D01*
X8675714Y34170952D01*
X8675714Y34361428D01*
X8723333Y34456666D01*
X8675714Y34932857D02*
X9532857Y34932857D01*
X9628095Y34885238D01*
X9675714Y34790000D01*
X9675714Y34742380D01*
X8342380Y34932857D02*
X8390000Y34885238D01*
X8437619Y34932857D01*
X8390000Y34980476D01*
X8342380Y34932857D01*
X8437619Y34932857D01*
X8675714Y35837619D02*
X9342380Y35837619D01*
X8675714Y35409047D02*
X9199523Y35409047D01*
X9294761Y35456666D01*
X9342380Y35551904D01*
X9342380Y35694761D01*
X9294761Y35790000D01*
X9247142Y35837619D01*
X9294761Y36266190D02*
X9342380Y36361428D01*
X9342380Y36551904D01*
X9294761Y36647142D01*
X9199523Y36694761D01*
X9151904Y36694761D01*
X9056666Y36647142D01*
X9009047Y36551904D01*
X9009047Y36409047D01*
X8961428Y36313809D01*
X8866190Y36266190D01*
X8818571Y36266190D01*
X8723333Y36313809D01*
X8675714Y36409047D01*
X8675714Y36551904D01*
X8723333Y36647142D01*
X8675714Y36980476D02*
X8675714Y37361428D01*
X8342380Y37123333D02*
X9199523Y37123333D01*
X9294761Y37170952D01*
X9342380Y37266190D01*
X9342380Y37361428D01*
X9342380Y38218571D02*
X9342380Y37647142D01*
X9342380Y37932857D02*
X8342380Y37932857D01*
X8485238Y37837619D01*
X8580476Y37742380D01*
X8628095Y37647142D01*
X17660952Y19147619D02*
X17089523Y19147619D01*
X17375238Y19147619D02*
X17375238Y20147619D01*
X17280000Y20004761D01*
X17184761Y19909523D01*
X17089523Y19861904D01*
X18089523Y19147619D02*
X18089523Y20147619D01*
X18184761Y19528571D02*
X18470476Y19147619D01*
X18470476Y19814285D02*
X18089523Y19433333D01*
D11*
X16960952Y17418095D02*
X16694285Y17799047D01*
X16503809Y17418095D02*
X16503809Y18218095D01*
X16808571Y18218095D01*
X16884761Y18180000D01*
X16922857Y18141904D01*
X16960952Y18065714D01*
X16960952Y17951428D01*
X16922857Y17875238D01*
X16884761Y17837142D01*
X16808571Y17799047D01*
X16503809Y17799047D01*
X17265714Y17456190D02*
X17341904Y17418095D01*
X17494285Y17418095D01*
X17570476Y17456190D01*
X17608571Y17532380D01*
X17608571Y17570476D01*
X17570476Y17646666D01*
X17494285Y17684761D01*
X17380000Y17684761D01*
X17303809Y17722857D01*
X17265714Y17799047D01*
X17265714Y17837142D01*
X17303809Y17913333D01*
X17380000Y17951428D01*
X17494285Y17951428D01*
X17570476Y17913333D01*
X18294285Y17418095D02*
X18294285Y17837142D01*
X18256190Y17913333D01*
X18180000Y17951428D01*
X18027619Y17951428D01*
X17951428Y17913333D01*
X18294285Y17456190D02*
X18218095Y17418095D01*
X18027619Y17418095D01*
X17951428Y17456190D01*
X17913333Y17532380D01*
X17913333Y17608571D01*
X17951428Y17684761D01*
X18027619Y17722857D01*
X18218095Y17722857D01*
X18294285Y17760952D01*
X19094285Y17418095D02*
X18637142Y17418095D01*
X18865714Y17418095D02*
X18865714Y18218095D01*
X18789523Y18103809D01*
X18713333Y18027619D01*
X18637142Y17989523D01*
D10*
X28105964Y20761342D02*
X28677393Y20761342D01*
X28391678Y19761342D02*
X28391678Y20761342D01*
X29391678Y19808961D02*
X29296440Y19761342D01*
X29105964Y19761342D01*
X29010726Y19808961D01*
X28963107Y19904199D01*
X28963107Y20285151D01*
X29010726Y20380389D01*
X29105964Y20428008D01*
X29296440Y20428008D01*
X29391678Y20380389D01*
X29439298Y20285151D01*
X29439298Y20189913D01*
X28963107Y20094675D01*
X29820250Y19808961D02*
X29915488Y19761342D01*
X30105964Y19761342D01*
X30201202Y19808961D01*
X30248821Y19904199D01*
X30248821Y19951818D01*
X30201202Y20047056D01*
X30105964Y20094675D01*
X29963107Y20094675D01*
X29867869Y20142294D01*
X29820250Y20237532D01*
X29820250Y20285151D01*
X29867869Y20380389D01*
X29963107Y20428008D01*
X30105964Y20428008D01*
X30201202Y20380389D01*
X30534536Y20428008D02*
X30915488Y20428008D01*
X30677393Y20761342D02*
X30677393Y19904199D01*
X30725012Y19808961D01*
X30820250Y19761342D01*
X30915488Y19761342D01*
X31248821Y19761342D02*
X31248821Y20761342D01*
X31629774Y20761342D01*
X31725012Y20713723D01*
X31772631Y20666103D01*
X31820250Y20570865D01*
X31820250Y20428008D01*
X31772631Y20332770D01*
X31725012Y20285151D01*
X31629774Y20237532D01*
X31248821Y20237532D01*
X32391678Y19761342D02*
X32296440Y19808961D01*
X32248821Y19856580D01*
X32201202Y19951818D01*
X32201202Y20237532D01*
X32248821Y20332770D01*
X32296440Y20380389D01*
X32391678Y20428008D01*
X32534536Y20428008D01*
X32629774Y20380389D01*
X32677393Y20332770D01*
X32725012Y20237532D01*
X32725012Y19951818D01*
X32677393Y19856580D01*
X32629774Y19808961D01*
X32534536Y19761342D01*
X32391678Y19761342D01*
X33153583Y19761342D02*
X33153583Y20428008D01*
X33153583Y20761342D02*
X33105964Y20713723D01*
X33153583Y20666103D01*
X33201202Y20713723D01*
X33153583Y20761342D01*
X33153583Y20666103D01*
X33629774Y20428008D02*
X33629774Y19761342D01*
X33629774Y20332770D02*
X33677393Y20380389D01*
X33772631Y20428008D01*
X33915488Y20428008D01*
X34010726Y20380389D01*
X34058345Y20285151D01*
X34058345Y19761342D01*
X34391678Y20428008D02*
X34772631Y20428008D01*
X34534536Y20761342D02*
X34534536Y19904199D01*
X34582155Y19808961D01*
X34677393Y19761342D01*
X34772631Y19761342D01*
X30891678Y20662770D02*
X30891678Y21234199D01*
X31891678Y20948484D02*
X30891678Y20948484D01*
X31844059Y21948484D02*
X31891678Y21853246D01*
X31891678Y21662770D01*
X31844059Y21567532D01*
X31748821Y21519913D01*
X31367869Y21519913D01*
X31272631Y21567532D01*
X31225012Y21662770D01*
X31225012Y21853246D01*
X31272631Y21948484D01*
X31367869Y21996103D01*
X31463107Y21996103D01*
X31558345Y21519913D01*
X31844059Y22377056D02*
X31891678Y22472294D01*
X31891678Y22662770D01*
X31844059Y22758008D01*
X31748821Y22805627D01*
X31701202Y22805627D01*
X31605964Y22758008D01*
X31558345Y22662770D01*
X31558345Y22519913D01*
X31510726Y22424675D01*
X31415488Y22377056D01*
X31367869Y22377056D01*
X31272631Y22424675D01*
X31225012Y22519913D01*
X31225012Y22662770D01*
X31272631Y22758008D01*
X31225012Y23091342D02*
X31225012Y23472294D01*
X30891678Y23234199D02*
X31748821Y23234199D01*
X31844059Y23281818D01*
X31891678Y23377056D01*
X31891678Y23472294D01*
X30891678Y23710389D02*
X30891678Y24329437D01*
X31272631Y23996103D01*
X31272631Y24138961D01*
X31320250Y24234199D01*
X31367869Y24281818D01*
X31463107Y24329437D01*
X31701202Y24329437D01*
X31796440Y24281818D01*
X31844059Y24234199D01*
X31891678Y24138961D01*
X31891678Y23853246D01*
X31844059Y23758008D01*
X31796440Y23710389D01*
X9231428Y21587619D02*
X9040952Y21587619D01*
X8945714Y21540000D01*
X8898095Y21492380D01*
X8802857Y21349523D01*
X8755238Y21159047D01*
X8755238Y20778095D01*
X8802857Y20682857D01*
X8850476Y20635238D01*
X8945714Y20587619D01*
X9136190Y20587619D01*
X9231428Y20635238D01*
X9279047Y20682857D01*
X9326666Y20778095D01*
X9326666Y21016190D01*
X9279047Y21111428D01*
X9231428Y21159047D01*
X9136190Y21206666D01*
X8945714Y21206666D01*
X8850476Y21159047D01*
X8802857Y21111428D01*
X8755238Y21016190D01*
X9755238Y20682857D02*
X9802857Y20635238D01*
X9755238Y20587619D01*
X9707619Y20635238D01*
X9755238Y20682857D01*
X9755238Y20587619D01*
X10374285Y21159047D02*
X10279047Y21206666D01*
X10231428Y21254285D01*
X10183809Y21349523D01*
X10183809Y21397142D01*
X10231428Y21492380D01*
X10279047Y21540000D01*
X10374285Y21587619D01*
X10564761Y21587619D01*
X10660000Y21540000D01*
X10707619Y21492380D01*
X10755238Y21397142D01*
X10755238Y21349523D01*
X10707619Y21254285D01*
X10660000Y21206666D01*
X10564761Y21159047D01*
X10374285Y21159047D01*
X10279047Y21111428D01*
X10231428Y21063809D01*
X10183809Y20968571D01*
X10183809Y20778095D01*
X10231428Y20682857D01*
X10279047Y20635238D01*
X10374285Y20587619D01*
X10564761Y20587619D01*
X10660000Y20635238D01*
X10707619Y20682857D01*
X10755238Y20778095D01*
X10755238Y20968571D01*
X10707619Y21063809D01*
X10660000Y21111428D01*
X10564761Y21159047D01*
X11183809Y20587619D02*
X11183809Y21587619D01*
X11279047Y20968571D02*
X11564761Y20587619D01*
X11564761Y21254285D02*
X11183809Y20873333D01*
D11*
X9226666Y22498095D02*
X8960000Y22879047D01*
X8769523Y22498095D02*
X8769523Y23298095D01*
X9074285Y23298095D01*
X9150476Y23260000D01*
X9188571Y23221904D01*
X9226666Y23145714D01*
X9226666Y23031428D01*
X9188571Y22955238D01*
X9150476Y22917142D01*
X9074285Y22879047D01*
X8769523Y22879047D01*
X10026666Y22574285D02*
X9988571Y22536190D01*
X9874285Y22498095D01*
X9798095Y22498095D01*
X9683809Y22536190D01*
X9607619Y22612380D01*
X9569523Y22688571D01*
X9531428Y22840952D01*
X9531428Y22955238D01*
X9569523Y23107619D01*
X9607619Y23183809D01*
X9683809Y23260000D01*
X9798095Y23298095D01*
X9874285Y23298095D01*
X9988571Y23260000D01*
X10026666Y23221904D01*
X10826666Y22574285D02*
X10788571Y22536190D01*
X10674285Y22498095D01*
X10598095Y22498095D01*
X10483809Y22536190D01*
X10407619Y22612380D01*
X10369523Y22688571D01*
X10331428Y22840952D01*
X10331428Y22955238D01*
X10369523Y23107619D01*
X10407619Y23183809D01*
X10483809Y23260000D01*
X10598095Y23298095D01*
X10674285Y23298095D01*
X10788571Y23260000D01*
X10826666Y23221904D01*
X11588571Y22498095D02*
X11131428Y22498095D01*
X11360000Y22498095D02*
X11360000Y23298095D01*
X11283809Y23183809D01*
X11207619Y23107619D01*
X11131428Y23069523D01*
D10*
X23032380Y27892380D02*
X23032380Y27987619D01*
X23080000Y28082857D01*
X23127619Y28130476D01*
X23222857Y28178095D01*
X23413333Y28225714D01*
X23651428Y28225714D01*
X23841904Y28178095D01*
X23937142Y28130476D01*
X23984761Y28082857D01*
X24032380Y27987619D01*
X24032380Y27892380D01*
X23984761Y27797142D01*
X23937142Y27749523D01*
X23841904Y27701904D01*
X23651428Y27654285D01*
X23413333Y27654285D01*
X23222857Y27701904D01*
X23127619Y27749523D01*
X23080000Y27797142D01*
X23032380Y27892380D01*
D11*
X25761904Y26720952D02*
X25380952Y26454285D01*
X25761904Y26263809D02*
X24961904Y26263809D01*
X24961904Y26568571D01*
X25000000Y26644761D01*
X25038095Y26682857D01*
X25114285Y26720952D01*
X25228571Y26720952D01*
X25304761Y26682857D01*
X25342857Y26644761D01*
X25380952Y26568571D01*
X25380952Y26263809D01*
X25228571Y27406666D02*
X25876190Y27406666D01*
X25952380Y27368571D01*
X25990476Y27330476D01*
X26028571Y27254285D01*
X26028571Y27140000D01*
X25990476Y27063809D01*
X25723809Y27406666D02*
X25761904Y27330476D01*
X25761904Y27178095D01*
X25723809Y27101904D01*
X25685714Y27063809D01*
X25609523Y27025714D01*
X25380952Y27025714D01*
X25304761Y27063809D01*
X25266666Y27101904D01*
X25228571Y27178095D01*
X25228571Y27330476D01*
X25266666Y27406666D01*
X25228571Y27787619D02*
X25761904Y27787619D01*
X25304761Y27787619D02*
X25266666Y27825714D01*
X25228571Y27901904D01*
X25228571Y28016190D01*
X25266666Y28092380D01*
X25342857Y28130476D01*
X25761904Y28130476D01*
X25761904Y28854285D02*
X24961904Y28854285D01*
X25723809Y28854285D02*
X25761904Y28778095D01*
X25761904Y28625714D01*
X25723809Y28549523D01*
X25685714Y28511428D01*
X25609523Y28473333D01*
X25380952Y28473333D01*
X25304761Y28511428D01*
X25266666Y28549523D01*
X25228571Y28625714D01*
X25228571Y28778095D01*
X25266666Y28854285D01*
X25761904Y29654285D02*
X25761904Y29197142D01*
X25761904Y29425714D02*
X24961904Y29425714D01*
X25076190Y29349523D01*
X25152380Y29273333D01*
X25190476Y29197142D01*
D10*
X18002857Y21077619D02*
X18574285Y21077619D01*
X18288571Y20077619D02*
X18288571Y21077619D01*
X19288571Y20125238D02*
X19193333Y20077619D01*
X19002857Y20077619D01*
X18907619Y20125238D01*
X18860000Y20220476D01*
X18860000Y20601428D01*
X18907619Y20696666D01*
X19002857Y20744285D01*
X19193333Y20744285D01*
X19288571Y20696666D01*
X19336190Y20601428D01*
X19336190Y20506190D01*
X18860000Y20410952D01*
X19717142Y20125238D02*
X19812380Y20077619D01*
X20002857Y20077619D01*
X20098095Y20125238D01*
X20145714Y20220476D01*
X20145714Y20268095D01*
X20098095Y20363333D01*
X20002857Y20410952D01*
X19860000Y20410952D01*
X19764761Y20458571D01*
X19717142Y20553809D01*
X19717142Y20601428D01*
X19764761Y20696666D01*
X19860000Y20744285D01*
X20002857Y20744285D01*
X20098095Y20696666D01*
X20431428Y20744285D02*
X20812380Y20744285D01*
X20574285Y21077619D02*
X20574285Y20220476D01*
X20621904Y20125238D01*
X20717142Y20077619D01*
X20812380Y20077619D01*
X21145714Y20077619D02*
X21145714Y21077619D01*
X21526666Y21077619D01*
X21621904Y21030000D01*
X21669523Y20982380D01*
X21717142Y20887142D01*
X21717142Y20744285D01*
X21669523Y20649047D01*
X21621904Y20601428D01*
X21526666Y20553809D01*
X21145714Y20553809D01*
X22288571Y20077619D02*
X22193333Y20125238D01*
X22145714Y20172857D01*
X22098095Y20268095D01*
X22098095Y20553809D01*
X22145714Y20649047D01*
X22193333Y20696666D01*
X22288571Y20744285D01*
X22431428Y20744285D01*
X22526666Y20696666D01*
X22574285Y20649047D01*
X22621904Y20553809D01*
X22621904Y20268095D01*
X22574285Y20172857D01*
X22526666Y20125238D01*
X22431428Y20077619D01*
X22288571Y20077619D01*
X23050476Y20077619D02*
X23050476Y20744285D01*
X23050476Y21077619D02*
X23002857Y21030000D01*
X23050476Y20982380D01*
X23098095Y21030000D01*
X23050476Y21077619D01*
X23050476Y20982380D01*
X23526666Y20744285D02*
X23526666Y20077619D01*
X23526666Y20649047D02*
X23574285Y20696666D01*
X23669523Y20744285D01*
X23812380Y20744285D01*
X23907619Y20696666D01*
X23955238Y20601428D01*
X23955238Y20077619D01*
X24288571Y20744285D02*
X24669523Y20744285D01*
X24431428Y21077619D02*
X24431428Y20220476D01*
X24479047Y20125238D01*
X24574285Y20077619D01*
X24669523Y20077619D01*
X25526666Y21030000D02*
X25431428Y21077619D01*
X25288571Y21077619D01*
X25145714Y21030000D01*
X25050476Y20934761D01*
X25002857Y20839523D01*
X24955238Y20649047D01*
X24955238Y20506190D01*
X25002857Y20315714D01*
X25050476Y20220476D01*
X25145714Y20125238D01*
X25288571Y20077619D01*
X25383809Y20077619D01*
X25526666Y20125238D01*
X25574285Y20172857D01*
X25574285Y20506190D01*
X25383809Y20506190D01*
X26002857Y20077619D02*
X26002857Y21077619D01*
X26574285Y20077619D01*
X26574285Y21077619D01*
X27050476Y20077619D02*
X27050476Y21077619D01*
X27288571Y21077619D01*
X27431428Y21030000D01*
X27526666Y20934761D01*
X27574285Y20839523D01*
X27621904Y20649047D01*
X27621904Y20506190D01*
X27574285Y20315714D01*
X27526666Y20220476D01*
X27431428Y20125238D01*
X27288571Y20077619D01*
X27050476Y20077619D01*
X22360000Y21621904D02*
X22312380Y21526666D01*
X22312380Y21383809D01*
X22360000Y21240952D01*
X22455238Y21145714D01*
X22550476Y21098095D01*
X22740952Y21050476D01*
X22883809Y21050476D01*
X23074285Y21098095D01*
X23169523Y21145714D01*
X23264761Y21240952D01*
X23312380Y21383809D01*
X23312380Y21479047D01*
X23264761Y21621904D01*
X23217142Y21669523D01*
X22883809Y21669523D01*
X22883809Y21479047D01*
X23312380Y22098095D02*
X22312380Y22098095D01*
X23312380Y22669523D01*
X22312380Y22669523D01*
X23312380Y23145714D02*
X22312380Y23145714D01*
X22312380Y23383809D01*
X22360000Y23526666D01*
X22455238Y23621904D01*
X22550476Y23669523D01*
X22740952Y23717142D01*
X22883809Y23717142D01*
X23074285Y23669523D01*
X23169523Y23621904D01*
X23264761Y23526666D01*
X23312380Y23383809D01*
X23312380Y23145714D01*
X22312380Y24621904D02*
X22312380Y24145714D01*
X22788571Y24098095D01*
X22740952Y24145714D01*
X22693333Y24240952D01*
X22693333Y24479047D01*
X22740952Y24574285D01*
X22788571Y24621904D01*
X22883809Y24669523D01*
X23121904Y24669523D01*
X23217142Y24621904D01*
X23264761Y24574285D01*
X23312380Y24479047D01*
X23312380Y24240952D01*
X23264761Y24145714D01*
X23217142Y24098095D01*
X-5698095Y40025238D02*
X-5555238Y39977619D01*
X-5317142Y39977619D01*
X-5221904Y40025238D01*
X-5174285Y40072857D01*
X-5126666Y40168095D01*
X-5126666Y40263333D01*
X-5174285Y40358571D01*
X-5221904Y40406190D01*
X-5317142Y40453809D01*
X-5507619Y40501428D01*
X-5602857Y40549047D01*
X-5650476Y40596666D01*
X-5698095Y40691904D01*
X-5698095Y40787142D01*
X-5650476Y40882380D01*
X-5602857Y40930000D01*
X-5507619Y40977619D01*
X-5269523Y40977619D01*
X-5126666Y40930000D01*
X-4269523Y40025238D02*
X-4364761Y39977619D01*
X-4555238Y39977619D01*
X-4650476Y40025238D01*
X-4698095Y40072857D01*
X-4745714Y40168095D01*
X-4745714Y40453809D01*
X-4698095Y40549047D01*
X-4650476Y40596666D01*
X-4555238Y40644285D01*
X-4364761Y40644285D01*
X-4269523Y40596666D01*
X-3840952Y39977619D02*
X-3840952Y40644285D01*
X-3840952Y40453809D02*
X-3793333Y40549047D01*
X-3745714Y40596666D01*
X-3650476Y40644285D01*
X-3555238Y40644285D01*
X-2840952Y40025238D02*
X-2936190Y39977619D01*
X-3126666Y39977619D01*
X-3221904Y40025238D01*
X-3269523Y40120476D01*
X-3269523Y40501428D01*
X-3221904Y40596666D01*
X-3126666Y40644285D01*
X-2936190Y40644285D01*
X-2840952Y40596666D01*
X-2793333Y40501428D01*
X-2793333Y40406190D01*
X-3269523Y40310952D01*
X-2460000Y40644285D02*
X-2269523Y39977619D01*
X-2079047Y40453809D01*
X-1888571Y39977619D01*
X-1698095Y40644285D01*
X-1555238Y39882380D02*
X-793333Y39882380D01*
X-698095Y40977619D02*
X-126666Y40977619D01*
X-412380Y39977619D02*
X-412380Y40977619D01*
X587619Y40025238D02*
X492380Y39977619D01*
X301904Y39977619D01*
X206666Y40025238D01*
X159047Y40120476D01*
X159047Y40501428D01*
X206666Y40596666D01*
X301904Y40644285D01*
X492380Y40644285D01*
X587619Y40596666D01*
X635238Y40501428D01*
X635238Y40406190D01*
X159047Y40310952D01*
X1063809Y39977619D02*
X1063809Y40644285D01*
X1063809Y40453809D02*
X1111428Y40549047D01*
X1159047Y40596666D01*
X1254285Y40644285D01*
X1349523Y40644285D01*
X1682857Y39977619D02*
X1682857Y40644285D01*
X1682857Y40549047D02*
X1730476Y40596666D01*
X1825714Y40644285D01*
X1968571Y40644285D01*
X2063809Y40596666D01*
X2111428Y40501428D01*
X2111428Y39977619D01*
X2111428Y40501428D02*
X2159047Y40596666D01*
X2254285Y40644285D01*
X2397142Y40644285D01*
X2492380Y40596666D01*
X2540000Y40501428D01*
X2540000Y39977619D01*
X3016190Y39977619D02*
X3016190Y40644285D01*
X3016190Y40977619D02*
X2968571Y40930000D01*
X3016190Y40882380D01*
X3063809Y40930000D01*
X3016190Y40977619D01*
X3016190Y40882380D01*
X3492380Y40644285D02*
X3492380Y39977619D01*
X3492380Y40549047D02*
X3540000Y40596666D01*
X3635238Y40644285D01*
X3778095Y40644285D01*
X3873333Y40596666D01*
X3920952Y40501428D01*
X3920952Y39977619D01*
X4825714Y39977619D02*
X4825714Y40501428D01*
X4778095Y40596666D01*
X4682857Y40644285D01*
X4492380Y40644285D01*
X4397142Y40596666D01*
X4825714Y40025238D02*
X4730476Y39977619D01*
X4492380Y39977619D01*
X4397142Y40025238D01*
X4349523Y40120476D01*
X4349523Y40215714D01*
X4397142Y40310952D01*
X4492380Y40358571D01*
X4730476Y40358571D01*
X4825714Y40406190D01*
X5444761Y39977619D02*
X5349523Y40025238D01*
X5301904Y40120476D01*
X5301904Y40977619D01*
X5587619Y39882380D02*
X6349523Y39882380D01*
X6778095Y40977619D02*
X6873333Y40977619D01*
X6968571Y40930000D01*
X7016190Y40882380D01*
X7063809Y40787142D01*
X7111428Y40596666D01*
X7111428Y40358571D01*
X7063809Y40168095D01*
X7016190Y40072857D01*
X6968571Y40025238D01*
X6873333Y39977619D01*
X6778095Y39977619D01*
X6682857Y40025238D01*
X6635238Y40072857D01*
X6587619Y40168095D01*
X6540000Y40358571D01*
X6540000Y40596666D01*
X6587619Y40787142D01*
X6635238Y40882380D01*
X6682857Y40930000D01*
X6778095Y40977619D01*
X8063809Y39977619D02*
X7492380Y39977619D01*
X7778095Y39977619D02*
X7778095Y40977619D01*
X7682857Y40834761D01*
X7587619Y40739523D01*
X7492380Y40691904D01*
X8397142Y39977619D02*
X8920952Y40644285D01*
X8397142Y40644285D02*
X8920952Y39977619D01*
X9492380Y40977619D02*
X9587619Y40977619D01*
X9682857Y40930000D01*
X9730476Y40882380D01*
X9778095Y40787142D01*
X9825714Y40596666D01*
X9825714Y40358571D01*
X9778095Y40168095D01*
X9730476Y40072857D01*
X9682857Y40025238D01*
X9587619Y39977619D01*
X9492380Y39977619D01*
X9397142Y40025238D01*
X9349523Y40072857D01*
X9301904Y40168095D01*
X9254285Y40358571D01*
X9254285Y40596666D01*
X9301904Y40787142D01*
X9349523Y40882380D01*
X9397142Y40930000D01*
X9492380Y40977619D01*
X10682857Y40644285D02*
X10682857Y39977619D01*
X10444761Y41025238D02*
X10206666Y40310952D01*
X10825714Y40310952D01*
X2992380Y33051904D02*
X1992380Y33051904D01*
X1992380Y33290000D01*
X2040000Y33432857D01*
X2135238Y33528095D01*
X2230476Y33575714D01*
X2420952Y33623333D01*
X2563809Y33623333D01*
X2754285Y33575714D01*
X2849523Y33528095D01*
X2944761Y33432857D01*
X2992380Y33290000D01*
X2992380Y33051904D01*
X2897142Y34623333D02*
X2944761Y34575714D01*
X2992380Y34432857D01*
X2992380Y34337619D01*
X2944761Y34194761D01*
X2849523Y34099523D01*
X2754285Y34051904D01*
X2563809Y34004285D01*
X2420952Y34004285D01*
X2230476Y34051904D01*
X2135238Y34099523D01*
X2040000Y34194761D01*
X1992380Y34337619D01*
X1992380Y34432857D01*
X2040000Y34575714D01*
X2087619Y34623333D01*
X2992380Y35575714D02*
X2992380Y35004285D01*
X2992380Y35290000D02*
X1992380Y35290000D01*
X2135238Y35194761D01*
X2230476Y35099523D01*
X2278095Y35004285D01*
X14446666Y23617619D02*
X15018095Y23617619D01*
X14732380Y22617619D02*
X14732380Y23617619D01*
X15732380Y22665238D02*
X15637142Y22617619D01*
X15446666Y22617619D01*
X15351428Y22665238D01*
X15303809Y22760476D01*
X15303809Y23141428D01*
X15351428Y23236666D01*
X15446666Y23284285D01*
X15637142Y23284285D01*
X15732380Y23236666D01*
X15780000Y23141428D01*
X15780000Y23046190D01*
X15303809Y22950952D01*
X16160952Y22665238D02*
X16256190Y22617619D01*
X16446666Y22617619D01*
X16541904Y22665238D01*
X16589523Y22760476D01*
X16589523Y22808095D01*
X16541904Y22903333D01*
X16446666Y22950952D01*
X16303809Y22950952D01*
X16208571Y22998571D01*
X16160952Y23093809D01*
X16160952Y23141428D01*
X16208571Y23236666D01*
X16303809Y23284285D01*
X16446666Y23284285D01*
X16541904Y23236666D01*
X16875238Y23284285D02*
X17256190Y23284285D01*
X17018095Y23617619D02*
X17018095Y22760476D01*
X17065714Y22665238D01*
X17160952Y22617619D01*
X17256190Y22617619D01*
X17589523Y22617619D02*
X17589523Y23617619D01*
X17970476Y23617619D01*
X18065714Y23570000D01*
X18113333Y23522380D01*
X18160952Y23427142D01*
X18160952Y23284285D01*
X18113333Y23189047D01*
X18065714Y23141428D01*
X17970476Y23093809D01*
X17589523Y23093809D01*
X18732380Y22617619D02*
X18637142Y22665238D01*
X18589523Y22712857D01*
X18541904Y22808095D01*
X18541904Y23093809D01*
X18589523Y23189047D01*
X18637142Y23236666D01*
X18732380Y23284285D01*
X18875238Y23284285D01*
X18970476Y23236666D01*
X19018095Y23189047D01*
X19065714Y23093809D01*
X19065714Y22808095D01*
X19018095Y22712857D01*
X18970476Y22665238D01*
X18875238Y22617619D01*
X18732380Y22617619D01*
X19494285Y22617619D02*
X19494285Y23284285D01*
X19494285Y23617619D02*
X19446666Y23570000D01*
X19494285Y23522380D01*
X19541904Y23570000D01*
X19494285Y23617619D01*
X19494285Y23522380D01*
X19970476Y23284285D02*
X19970476Y22617619D01*
X19970476Y23189047D02*
X20018095Y23236666D01*
X20113333Y23284285D01*
X20256190Y23284285D01*
X20351428Y23236666D01*
X20399047Y23141428D01*
X20399047Y22617619D01*
X20732380Y23284285D02*
X21113333Y23284285D01*
X20875238Y23617619D02*
X20875238Y22760476D01*
X20922857Y22665238D01*
X21018095Y22617619D01*
X21113333Y22617619D01*
X17232380Y23519047D02*
X17232380Y24090476D01*
X18232380Y23804761D02*
X17232380Y23804761D01*
X18184761Y24804761D02*
X18232380Y24709523D01*
X18232380Y24519047D01*
X18184761Y24423809D01*
X18089523Y24376190D01*
X17708571Y24376190D01*
X17613333Y24423809D01*
X17565714Y24519047D01*
X17565714Y24709523D01*
X17613333Y24804761D01*
X17708571Y24852380D01*
X17803809Y24852380D01*
X17899047Y24376190D01*
X18184761Y25233333D02*
X18232380Y25328571D01*
X18232380Y25519047D01*
X18184761Y25614285D01*
X18089523Y25661904D01*
X18041904Y25661904D01*
X17946666Y25614285D01*
X17899047Y25519047D01*
X17899047Y25376190D01*
X17851428Y25280952D01*
X17756190Y25233333D01*
X17708571Y25233333D01*
X17613333Y25280952D01*
X17565714Y25376190D01*
X17565714Y25519047D01*
X17613333Y25614285D01*
X17565714Y25947619D02*
X17565714Y26328571D01*
X17232380Y26090476D02*
X18089523Y26090476D01*
X18184761Y26138095D01*
X18232380Y26233333D01*
X18232380Y26328571D01*
X18232380Y27185714D02*
X18232380Y26614285D01*
X18232380Y26900000D02*
X17232380Y26900000D01*
X17375238Y26804761D01*
X17470476Y26709523D01*
X17518095Y26614285D01*
X14644761Y28207619D02*
X14073333Y28207619D01*
X14359047Y28207619D02*
X14359047Y29207619D01*
X14263809Y29064761D01*
X14168571Y28969523D01*
X14073333Y28921904D01*
X15263809Y29207619D02*
X15359047Y29207619D01*
X15454285Y29160000D01*
X15501904Y29112380D01*
X15549523Y29017142D01*
X15597142Y28826666D01*
X15597142Y28588571D01*
X15549523Y28398095D01*
X15501904Y28302857D01*
X15454285Y28255238D01*
X15359047Y28207619D01*
X15263809Y28207619D01*
X15168571Y28255238D01*
X15120952Y28302857D01*
X15073333Y28398095D01*
X15025714Y28588571D01*
X15025714Y28826666D01*
X15073333Y29017142D01*
X15120952Y29112380D01*
X15168571Y29160000D01*
X15263809Y29207619D01*
X16025714Y28207619D02*
X16025714Y29207619D01*
X16120952Y28588571D02*
X16406666Y28207619D01*
X16406666Y28874285D02*
X16025714Y28493333D01*
D11*
X14306666Y30118095D02*
X14040000Y30499047D01*
X13849523Y30118095D02*
X13849523Y30918095D01*
X14154285Y30918095D01*
X14230476Y30880000D01*
X14268571Y30841904D01*
X14306666Y30765714D01*
X14306666Y30651428D01*
X14268571Y30575238D01*
X14230476Y30537142D01*
X14154285Y30499047D01*
X13849523Y30499047D01*
X14649523Y30118095D02*
X14649523Y30918095D01*
X14954285Y30918095D01*
X15030476Y30880000D01*
X15068571Y30841904D01*
X15106666Y30765714D01*
X15106666Y30651428D01*
X15068571Y30575238D01*
X15030476Y30537142D01*
X14954285Y30499047D01*
X14649523Y30499047D01*
X15906666Y30194285D02*
X15868571Y30156190D01*
X15754285Y30118095D01*
X15678095Y30118095D01*
X15563809Y30156190D01*
X15487619Y30232380D01*
X15449523Y30308571D01*
X15411428Y30460952D01*
X15411428Y30575238D01*
X15449523Y30727619D01*
X15487619Y30803809D01*
X15563809Y30880000D01*
X15678095Y30918095D01*
X15754285Y30918095D01*
X15868571Y30880000D01*
X15906666Y30841904D01*
X16592380Y30651428D02*
X16592380Y30118095D01*
X16401904Y30956190D02*
X16211428Y30384761D01*
X16706666Y30384761D01*
D10*
X33104777Y15299123D02*
X33771443Y15299123D01*
X32723824Y15061028D02*
X33438110Y14822933D01*
X33438110Y15441981D01*
X33676205Y15822933D02*
X33723824Y15870552D01*
X33771443Y15822933D01*
X33723824Y15775314D01*
X33676205Y15822933D01*
X33771443Y15822933D01*
X32771443Y16203885D02*
X32771443Y16870552D01*
X33771443Y16441981D01*
X33771443Y17251504D02*
X32771443Y17251504D01*
X33485729Y17584838D01*
X32771443Y17918171D01*
X33771443Y17918171D01*
D11*
X31860967Y15365790D02*
X31480015Y15099123D01*
X31860967Y14908647D02*
X31060967Y14908647D01*
X31060967Y15213409D01*
X31099063Y15289600D01*
X31137158Y15327695D01*
X31213348Y15365790D01*
X31327634Y15365790D01*
X31403824Y15327695D01*
X31441920Y15289600D01*
X31480015Y15213409D01*
X31480015Y14908647D01*
X31860967Y15708647D02*
X31327634Y15708647D01*
X31403824Y15708647D02*
X31365729Y15746742D01*
X31327634Y15822933D01*
X31327634Y15937219D01*
X31365729Y16013409D01*
X31441920Y16051504D01*
X31860967Y16051504D01*
X31441920Y16051504D02*
X31365729Y16089600D01*
X31327634Y16165790D01*
X31327634Y16280076D01*
X31365729Y16356266D01*
X31441920Y16394362D01*
X31860967Y16394362D01*
X31860967Y17118171D02*
X31441920Y17118171D01*
X31365729Y17080076D01*
X31327634Y17003885D01*
X31327634Y16851504D01*
X31365729Y16775314D01*
X31822872Y17118171D02*
X31860967Y17041981D01*
X31860967Y16851504D01*
X31822872Y16775314D01*
X31746682Y16737219D01*
X31670491Y16737219D01*
X31594301Y16775314D01*
X31556205Y16851504D01*
X31556205Y17041981D01*
X31518110Y17118171D01*
X31860967Y17918171D02*
X31860967Y17461028D01*
X31860967Y17689600D02*
X31060967Y17689600D01*
X31175253Y17613409D01*
X31251443Y17537219D01*
X31289539Y17461028D01*
D10*
X15073333Y36827619D02*
X14597142Y36827619D01*
X14549523Y36351428D01*
X14597142Y36399047D01*
X14692380Y36446666D01*
X14930476Y36446666D01*
X15025714Y36399047D01*
X15073333Y36351428D01*
X15120952Y36256190D01*
X15120952Y36018095D01*
X15073333Y35922857D01*
X15025714Y35875238D01*
X14930476Y35827619D01*
X14692380Y35827619D01*
X14597142Y35875238D01*
X14549523Y35922857D01*
X15549523Y35827619D02*
X15549523Y36827619D01*
X15644761Y36208571D02*
X15930476Y35827619D01*
X15930476Y36494285D02*
X15549523Y36113333D01*
D11*
X14306666Y37738095D02*
X14040000Y38119047D01*
X13849523Y37738095D02*
X13849523Y38538095D01*
X14154285Y38538095D01*
X14230476Y38500000D01*
X14268571Y38461904D01*
X14306666Y38385714D01*
X14306666Y38271428D01*
X14268571Y38195238D01*
X14230476Y38157142D01*
X14154285Y38119047D01*
X13849523Y38119047D01*
X14649523Y37738095D02*
X14649523Y38538095D01*
X14954285Y38538095D01*
X15030476Y38500000D01*
X15068571Y38461904D01*
X15106666Y38385714D01*
X15106666Y38271428D01*
X15068571Y38195238D01*
X15030476Y38157142D01*
X14954285Y38119047D01*
X14649523Y38119047D01*
X15906666Y37814285D02*
X15868571Y37776190D01*
X15754285Y37738095D01*
X15678095Y37738095D01*
X15563809Y37776190D01*
X15487619Y37852380D01*
X15449523Y37928571D01*
X15411428Y38080952D01*
X15411428Y38195238D01*
X15449523Y38347619D01*
X15487619Y38423809D01*
X15563809Y38500000D01*
X15678095Y38538095D01*
X15754285Y38538095D01*
X15868571Y38500000D01*
X15906666Y38461904D01*
X16668571Y37738095D02*
X16211428Y37738095D01*
X16440000Y37738095D02*
X16440000Y38538095D01*
X16363809Y38423809D01*
X16287619Y38347619D01*
X16211428Y38309523D01*
D10*
X3787142Y7472857D02*
X3739523Y7425238D01*
X3596666Y7377619D01*
X3501428Y7377619D01*
X3358571Y7425238D01*
X3263333Y7520476D01*
X3215714Y7615714D01*
X3168095Y7806190D01*
X3168095Y7949047D01*
X3215714Y8139523D01*
X3263333Y8234761D01*
X3358571Y8330000D01*
X3501428Y8377619D01*
X3596666Y8377619D01*
X3739523Y8330000D01*
X3787142Y8282380D01*
X4358571Y7377619D02*
X4263333Y7425238D01*
X4215714Y7472857D01*
X4168095Y7568095D01*
X4168095Y7853809D01*
X4215714Y7949047D01*
X4263333Y7996666D01*
X4358571Y8044285D01*
X4501428Y8044285D01*
X4596666Y7996666D01*
X4644285Y7949047D01*
X4691904Y7853809D01*
X4691904Y7568095D01*
X4644285Y7472857D01*
X4596666Y7425238D01*
X4501428Y7377619D01*
X4358571Y7377619D01*
X5120476Y8044285D02*
X5120476Y7377619D01*
X5120476Y7949047D02*
X5168095Y7996666D01*
X5263333Y8044285D01*
X5406190Y8044285D01*
X5501428Y7996666D01*
X5549047Y7901428D01*
X5549047Y7377619D01*
X6025238Y8044285D02*
X6025238Y7377619D01*
X6025238Y7949047D02*
X6072857Y7996666D01*
X6168095Y8044285D01*
X6310952Y8044285D01*
X6406190Y7996666D01*
X6453809Y7901428D01*
X6453809Y7377619D01*
X6691904Y7282380D02*
X7453809Y7282380D01*
X7882380Y8377619D02*
X7977619Y8377619D01*
X8072857Y8330000D01*
X8120476Y8282380D01*
X8168095Y8187142D01*
X8215714Y7996666D01*
X8215714Y7758571D01*
X8168095Y7568095D01*
X8120476Y7472857D01*
X8072857Y7425238D01*
X7977619Y7377619D01*
X7882380Y7377619D01*
X7787142Y7425238D01*
X7739523Y7472857D01*
X7691904Y7568095D01*
X7644285Y7758571D01*
X7644285Y7996666D01*
X7691904Y8187142D01*
X7739523Y8282380D01*
X7787142Y8330000D01*
X7882380Y8377619D01*
X8596666Y8282380D02*
X8644285Y8330000D01*
X8739523Y8377619D01*
X8977619Y8377619D01*
X9072857Y8330000D01*
X9120476Y8282380D01*
X9168095Y8187142D01*
X9168095Y8091904D01*
X9120476Y7949047D01*
X8549047Y7377619D01*
X9168095Y7377619D01*
X9501428Y7377619D02*
X10025238Y8044285D01*
X9501428Y8044285D02*
X10025238Y7377619D01*
X10596666Y8377619D02*
X10691904Y8377619D01*
X10787142Y8330000D01*
X10834761Y8282380D01*
X10882380Y8187142D01*
X10929999Y7996666D01*
X10929999Y7758571D01*
X10882380Y7568095D01*
X10834761Y7472857D01*
X10787142Y7425238D01*
X10691904Y7377619D01*
X10596666Y7377619D01*
X10501428Y7425238D01*
X10453809Y7472857D01*
X10406190Y7568095D01*
X10358571Y7758571D01*
X10358571Y7996666D01*
X10406190Y8187142D01*
X10453809Y8282380D01*
X10501428Y8330000D01*
X10596666Y8377619D01*
X11787142Y8044285D02*
X11787142Y7377619D01*
X11549047Y8425238D02*
X11310952Y7710952D01*
X11929999Y7710952D01*
X12072857Y7282380D02*
X12834761Y7282380D01*
X13263333Y8377619D02*
X13453809Y8377619D01*
X13549047Y8330000D01*
X13644285Y8234761D01*
X13691904Y8044285D01*
X13691904Y7710952D01*
X13644285Y7520476D01*
X13549047Y7425238D01*
X13453809Y7377619D01*
X13263333Y7377619D01*
X13168095Y7425238D01*
X13072857Y7520476D01*
X13025238Y7710952D01*
X13025238Y8044285D01*
X13072857Y8234761D01*
X13168095Y8330000D01*
X13263333Y8377619D01*
X14549047Y7377619D02*
X14549047Y8377619D01*
X14549047Y7425238D02*
X14453809Y7377619D01*
X14263333Y7377619D01*
X14168095Y7425238D01*
X14120476Y7472857D01*
X14072857Y7568095D01*
X14072857Y7853809D01*
X14120476Y7949047D01*
X14168095Y7996666D01*
X14263333Y8044285D01*
X14453809Y8044285D01*
X14549047Y7996666D01*
X15453809Y7377619D02*
X15453809Y8377619D01*
X15453809Y7425238D02*
X15358571Y7377619D01*
X15168095Y7377619D01*
X15072857Y7425238D01*
X15025238Y7472857D01*
X14977619Y7568095D01*
X14977619Y7853809D01*
X15025238Y7949047D01*
X15072857Y7996666D01*
X15168095Y8044285D01*
X15358571Y8044285D01*
X15453809Y7996666D01*
X15691904Y7282380D02*
X16453809Y7282380D01*
X16691904Y7901428D02*
X17025238Y7901428D01*
X17168095Y7377619D02*
X16691904Y7377619D01*
X16691904Y8377619D01*
X17168095Y8377619D01*
X17501428Y8044285D02*
X17739523Y7377619D01*
X17977619Y8044285D01*
X18739523Y7425238D02*
X18644285Y7377619D01*
X18453809Y7377619D01*
X18358571Y7425238D01*
X18310952Y7520476D01*
X18310952Y7901428D01*
X18358571Y7996666D01*
X18453809Y8044285D01*
X18644285Y8044285D01*
X18739523Y7996666D01*
X18787142Y7901428D01*
X18787142Y7806190D01*
X18310952Y7710952D01*
X19215714Y8044285D02*
X19215714Y7377619D01*
X19215714Y7949047D02*
X19263333Y7996666D01*
X19358571Y8044285D01*
X19501428Y8044285D01*
X19596666Y7996666D01*
X19644285Y7901428D01*
X19644285Y7377619D01*
X11834761Y7803333D02*
X11882380Y7946190D01*
X11882380Y8184285D01*
X11834761Y8279523D01*
X11787142Y8327142D01*
X11691904Y8374761D01*
X11596666Y8374761D01*
X11501428Y8327142D01*
X11453809Y8279523D01*
X11406190Y8184285D01*
X11358571Y7993809D01*
X11310952Y7898571D01*
X11263333Y7850952D01*
X11168095Y7803333D01*
X11072857Y7803333D01*
X10977619Y7850952D01*
X10930000Y7898571D01*
X10882380Y7993809D01*
X10882380Y8231904D01*
X10930000Y8374761D01*
X11834761Y9184285D02*
X11882380Y9089047D01*
X11882380Y8898571D01*
X11834761Y8803333D01*
X11739523Y8755714D01*
X11358571Y8755714D01*
X11263333Y8803333D01*
X11215714Y8898571D01*
X11215714Y9089047D01*
X11263333Y9184285D01*
X11358571Y9231904D01*
X11453809Y9231904D01*
X11549047Y8755714D01*
X11882380Y9660476D02*
X11215714Y9660476D01*
X11406190Y9660476D02*
X11310952Y9708095D01*
X11263333Y9755714D01*
X11215714Y9850952D01*
X11215714Y9946190D01*
X11882380Y10279523D02*
X11215714Y10279523D01*
X10882380Y10279523D02*
X10930000Y10231904D01*
X10977619Y10279523D01*
X10930000Y10327142D01*
X10882380Y10279523D01*
X10977619Y10279523D01*
X11834761Y11136666D02*
X11882380Y11041428D01*
X11882380Y10850952D01*
X11834761Y10755714D01*
X11739523Y10708095D01*
X11358571Y10708095D01*
X11263333Y10755714D01*
X11215714Y10850952D01*
X11215714Y11041428D01*
X11263333Y11136666D01*
X11358571Y11184285D01*
X11453809Y11184285D01*
X11549047Y10708095D01*
X11834761Y11565238D02*
X11882380Y11660476D01*
X11882380Y11850952D01*
X11834761Y11946190D01*
X11739523Y11993809D01*
X11691904Y11993809D01*
X11596666Y11946190D01*
X11549047Y11850952D01*
X11549047Y11708095D01*
X11501428Y11612857D01*
X11406190Y11565238D01*
X11358571Y11565238D01*
X11263333Y11612857D01*
X11215714Y11708095D01*
X11215714Y11850952D01*
X11263333Y11946190D01*
X11882380Y12993809D02*
X11406190Y12660476D01*
X11882380Y12422380D02*
X10882380Y12422380D01*
X10882380Y12803333D01*
X10930000Y12898571D01*
X10977619Y12946190D01*
X11072857Y12993809D01*
X11215714Y12993809D01*
X11310952Y12946190D01*
X11358571Y12898571D01*
X11406190Y12803333D01*
X11406190Y12422380D01*
X11834761Y13803333D02*
X11882380Y13708095D01*
X11882380Y13517619D01*
X11834761Y13422380D01*
X11739523Y13374761D01*
X11358571Y13374761D01*
X11263333Y13422380D01*
X11215714Y13517619D01*
X11215714Y13708095D01*
X11263333Y13803333D01*
X11358571Y13850952D01*
X11453809Y13850952D01*
X11549047Y13374761D01*
X11834761Y14231904D02*
X11882380Y14327142D01*
X11882380Y14517619D01*
X11834761Y14612857D01*
X11739523Y14660476D01*
X11691904Y14660476D01*
X11596666Y14612857D01*
X11549047Y14517619D01*
X11549047Y14374761D01*
X11501428Y14279523D01*
X11406190Y14231904D01*
X11358571Y14231904D01*
X11263333Y14279523D01*
X11215714Y14374761D01*
X11215714Y14517619D01*
X11263333Y14612857D01*
X11596666Y15041428D02*
X11596666Y15517619D01*
X11882380Y14946190D02*
X10882380Y15279523D01*
X11882380Y15612857D01*
X11882380Y16374761D02*
X10882380Y16374761D01*
X11834761Y16374761D02*
X11882380Y16279523D01*
X11882380Y16089047D01*
X11834761Y15993809D01*
X11787142Y15946190D01*
X11691904Y15898571D01*
X11406190Y15898571D01*
X11310952Y15946190D01*
X11263333Y15993809D01*
X11215714Y16089047D01*
X11215714Y16279523D01*
X11263333Y16374761D01*
X11215714Y16850952D02*
X12072857Y16850952D01*
X12168095Y16803333D01*
X12215714Y16708095D01*
X12215714Y16660476D01*
X10882380Y16850952D02*
X10930000Y16803333D01*
X10977619Y16850952D01*
X10930000Y16898571D01*
X10882380Y16850952D01*
X10977619Y16850952D01*
X11215714Y17755714D02*
X11882380Y17755714D01*
X11215714Y17327142D02*
X11739523Y17327142D01*
X11834761Y17374761D01*
X11882380Y17470000D01*
X11882380Y17612857D01*
X11834761Y17708095D01*
X11787142Y17755714D01*
X11834761Y18184285D02*
X11882380Y18279523D01*
X11882380Y18470000D01*
X11834761Y18565238D01*
X11739523Y18612857D01*
X11691904Y18612857D01*
X11596666Y18565238D01*
X11549047Y18470000D01*
X11549047Y18327142D01*
X11501428Y18231904D01*
X11406190Y18184285D01*
X11358571Y18184285D01*
X11263333Y18231904D01*
X11215714Y18327142D01*
X11215714Y18470000D01*
X11263333Y18565238D01*
X11215714Y18898571D02*
X11215714Y19279523D01*
X10882380Y19041428D02*
X11739523Y19041428D01*
X11834761Y19089047D01*
X11882380Y19184285D01*
X11882380Y19279523D01*
X11882380Y20136666D02*
X11882380Y19565238D01*
X11882380Y19850952D02*
X10882380Y19850952D01*
X11025238Y19755714D01*
X11120476Y19660476D01*
X11168095Y19565238D01*
X13311428Y31747619D02*
X13978095Y31747619D01*
X13549523Y30747619D01*
X14359047Y30842857D02*
X14406666Y30795238D01*
X14359047Y30747619D01*
X14311428Y30795238D01*
X14359047Y30842857D01*
X14359047Y30747619D01*
X14740000Y31747619D02*
X15359047Y31747619D01*
X15025714Y31366666D01*
X15168571Y31366666D01*
X15263809Y31319047D01*
X15311428Y31271428D01*
X15359047Y31176190D01*
X15359047Y30938095D01*
X15311428Y30842857D01*
X15263809Y30795238D01*
X15168571Y30747619D01*
X14882857Y30747619D01*
X14787619Y30795238D01*
X14740000Y30842857D01*
X15740000Y31652380D02*
X15787619Y31700000D01*
X15882857Y31747619D01*
X16120952Y31747619D01*
X16216190Y31700000D01*
X16263809Y31652380D01*
X16311428Y31557142D01*
X16311428Y31461904D01*
X16263809Y31319047D01*
X15692380Y30747619D01*
X16311428Y30747619D01*
X16740000Y30747619D02*
X16740000Y31747619D01*
X16835238Y31128571D02*
X17120952Y30747619D01*
X17120952Y31414285D02*
X16740000Y31033333D01*
D11*
X14306666Y32658095D02*
X14040000Y33039047D01*
X13849523Y32658095D02*
X13849523Y33458095D01*
X14154285Y33458095D01*
X14230476Y33420000D01*
X14268571Y33381904D01*
X14306666Y33305714D01*
X14306666Y33191428D01*
X14268571Y33115238D01*
X14230476Y33077142D01*
X14154285Y33039047D01*
X13849523Y33039047D01*
X14649523Y32658095D02*
X14649523Y33458095D01*
X14954285Y33458095D01*
X15030476Y33420000D01*
X15068571Y33381904D01*
X15106666Y33305714D01*
X15106666Y33191428D01*
X15068571Y33115238D01*
X15030476Y33077142D01*
X14954285Y33039047D01*
X14649523Y33039047D01*
X15906666Y32734285D02*
X15868571Y32696190D01*
X15754285Y32658095D01*
X15678095Y32658095D01*
X15563809Y32696190D01*
X15487619Y32772380D01*
X15449523Y32848571D01*
X15411428Y33000952D01*
X15411428Y33115238D01*
X15449523Y33267619D01*
X15487619Y33343809D01*
X15563809Y33420000D01*
X15678095Y33458095D01*
X15754285Y33458095D01*
X15868571Y33420000D01*
X15906666Y33381904D01*
X16173333Y33458095D02*
X16668571Y33458095D01*
X16401904Y33153333D01*
X16516190Y33153333D01*
X16592380Y33115238D01*
X16630476Y33077142D01*
X16668571Y33000952D01*
X16668571Y32810476D01*
X16630476Y32734285D01*
X16592380Y32696190D01*
X16516190Y32658095D01*
X16287619Y32658095D01*
X16211428Y32696190D01*
X16173333Y32734285D01*
D10*
X23333325Y14428418D02*
X23904754Y14428418D01*
X23619039Y13428418D02*
X23619039Y14428418D01*
X24619039Y13476037D02*
X24523801Y13428418D01*
X24333325Y13428418D01*
X24238087Y13476037D01*
X24190468Y13571275D01*
X24190468Y13952227D01*
X24238087Y14047465D01*
X24333325Y14095084D01*
X24523801Y14095084D01*
X24619039Y14047465D01*
X24666659Y13952227D01*
X24666659Y13856989D01*
X24190468Y13761751D01*
X25047611Y13476037D02*
X25142849Y13428418D01*
X25333325Y13428418D01*
X25428563Y13476037D01*
X25476182Y13571275D01*
X25476182Y13618894D01*
X25428563Y13714132D01*
X25333325Y13761751D01*
X25190468Y13761751D01*
X25095230Y13809370D01*
X25047611Y13904608D01*
X25047611Y13952227D01*
X25095230Y14047465D01*
X25190468Y14095084D01*
X25333325Y14095084D01*
X25428563Y14047465D01*
X25761897Y14095084D02*
X26142849Y14095084D01*
X25904754Y14428418D02*
X25904754Y13571275D01*
X25952373Y13476037D01*
X26047611Y13428418D01*
X26142849Y13428418D01*
X26476182Y13428418D02*
X26476182Y14428418D01*
X26857135Y14428418D01*
X26952373Y14380799D01*
X26999992Y14333179D01*
X27047611Y14237941D01*
X27047611Y14095084D01*
X26999992Y13999846D01*
X26952373Y13952227D01*
X26857135Y13904608D01*
X26476182Y13904608D01*
X27619039Y13428418D02*
X27523801Y13476037D01*
X27476182Y13523656D01*
X27428563Y13618894D01*
X27428563Y13904608D01*
X27476182Y13999846D01*
X27523801Y14047465D01*
X27619039Y14095084D01*
X27761897Y14095084D01*
X27857135Y14047465D01*
X27904754Y13999846D01*
X27952373Y13904608D01*
X27952373Y13618894D01*
X27904754Y13523656D01*
X27857135Y13476037D01*
X27761897Y13428418D01*
X27619039Y13428418D01*
X28380944Y13428418D02*
X28380944Y14095084D01*
X28380944Y14428418D02*
X28333325Y14380799D01*
X28380944Y14333179D01*
X28428563Y14380799D01*
X28380944Y14428418D01*
X28380944Y14333179D01*
X28857135Y14095084D02*
X28857135Y13428418D01*
X28857135Y13999846D02*
X28904754Y14047465D01*
X28999992Y14095084D01*
X29142849Y14095084D01*
X29238087Y14047465D01*
X29285706Y13952227D01*
X29285706Y13428418D01*
X29619039Y14095084D02*
X29999992Y14095084D01*
X29761897Y14428418D02*
X29761897Y13571275D01*
X29809516Y13476037D01*
X29904754Y13428418D01*
X29999992Y13428418D01*
X26119039Y14329846D02*
X26119039Y14901275D01*
X27119039Y14615560D02*
X26119039Y14615560D01*
X27071420Y15615560D02*
X27119039Y15520322D01*
X27119039Y15329846D01*
X27071420Y15234608D01*
X26976182Y15186989D01*
X26595230Y15186989D01*
X26499992Y15234608D01*
X26452373Y15329846D01*
X26452373Y15520322D01*
X26499992Y15615560D01*
X26595230Y15663179D01*
X26690468Y15663179D01*
X26785706Y15186989D01*
X27071420Y16044132D02*
X27119039Y16139370D01*
X27119039Y16329846D01*
X27071420Y16425084D01*
X26976182Y16472703D01*
X26928563Y16472703D01*
X26833325Y16425084D01*
X26785706Y16329846D01*
X26785706Y16186989D01*
X26738087Y16091751D01*
X26642849Y16044132D01*
X26595230Y16044132D01*
X26499992Y16091751D01*
X26452373Y16186989D01*
X26452373Y16329846D01*
X26499992Y16425084D01*
X26452373Y16758418D02*
X26452373Y17139370D01*
X26119039Y16901275D02*
X26976182Y16901275D01*
X27071420Y16948894D01*
X27119039Y17044132D01*
X27119039Y17139370D01*
X26214278Y17425084D02*
X26166659Y17472703D01*
X26119039Y17567941D01*
X26119039Y17806037D01*
X26166659Y17901275D01*
X26214278Y17948894D01*
X26309516Y17996513D01*
X26404754Y17996513D01*
X26547611Y17948894D01*
X27119039Y17377465D01*
X27119039Y17996513D01*
X13191110Y42967727D02*
X13191110Y42396298D01*
X13191110Y42682013D02*
X12191110Y42682013D01*
X12333968Y42586775D01*
X12429206Y42491536D01*
X12476825Y42396298D01*
X12191110Y43586775D02*
X12191110Y43682013D01*
X12238730Y43777251D01*
X12286349Y43824870D01*
X12381587Y43872489D01*
X12572063Y43920108D01*
X12810158Y43920108D01*
X13000634Y43872489D01*
X13095872Y43824870D01*
X13143491Y43777251D01*
X13191110Y43682013D01*
X13191110Y43586775D01*
X13143491Y43491536D01*
X13095872Y43443917D01*
X13000634Y43396298D01*
X12810158Y43348679D01*
X12572063Y43348679D01*
X12381587Y43396298D01*
X12286349Y43443917D01*
X12238730Y43491536D01*
X12191110Y43586775D01*
X12191110Y44539156D02*
X12191110Y44634394D01*
X12238730Y44729632D01*
X12286349Y44777251D01*
X12381587Y44824870D01*
X12572063Y44872489D01*
X12810158Y44872489D01*
X13000634Y44824870D01*
X13095872Y44777251D01*
X13143491Y44729632D01*
X13191110Y44634394D01*
X13191110Y44539156D01*
X13143491Y44443917D01*
X13095872Y44396298D01*
X13000634Y44348679D01*
X12810158Y44301060D01*
X12572063Y44301060D01*
X12381587Y44348679D01*
X12286349Y44396298D01*
X12238730Y44443917D01*
X12191110Y44539156D01*
X13191110Y45301060D02*
X12191110Y45301060D01*
X12810158Y45396298D02*
X13191110Y45682013D01*
X12524444Y45682013D02*
X12905396Y45301060D01*
D11*
X11280634Y43715346D02*
X10899682Y43448679D01*
X11280634Y43258203D02*
X10480634Y43258203D01*
X10480634Y43562965D01*
X10518730Y43639156D01*
X10556825Y43677251D01*
X10633015Y43715346D01*
X10747301Y43715346D01*
X10823491Y43677251D01*
X10861587Y43639156D01*
X10899682Y43562965D01*
X10899682Y43258203D01*
X11280634Y44058203D02*
X10480634Y44058203D01*
X11280634Y44858203D02*
X11280634Y44401060D01*
X11280634Y44629632D02*
X10480634Y44629632D01*
X10594920Y44553441D01*
X10671110Y44477251D01*
X10709206Y44401060D01*
D10*
X39467619Y31377142D02*
X39420000Y31424761D01*
X39372380Y31520000D01*
X39372380Y31758095D01*
X39420000Y31853333D01*
X39467619Y31900952D01*
X39562857Y31948571D01*
X39658095Y31948571D01*
X39800952Y31900952D01*
X40372380Y31329523D01*
X40372380Y31948571D01*
X39372380Y32567619D02*
X39372380Y32662857D01*
X39420000Y32758095D01*
X39467619Y32805714D01*
X39562857Y32853333D01*
X39753333Y32900952D01*
X39991428Y32900952D01*
X40181904Y32853333D01*
X40277142Y32805714D01*
X40324761Y32758095D01*
X40372380Y32662857D01*
X40372380Y32567619D01*
X40324761Y32472380D01*
X40277142Y32424761D01*
X40181904Y32377142D01*
X39991428Y32329523D01*
X39753333Y32329523D01*
X39562857Y32377142D01*
X39467619Y32424761D01*
X39420000Y32472380D01*
X39372380Y32567619D01*
X39372380Y33520000D02*
X39372380Y33615238D01*
X39420000Y33710476D01*
X39467619Y33758095D01*
X39562857Y33805714D01*
X39753333Y33853333D01*
X39991428Y33853333D01*
X40181904Y33805714D01*
X40277142Y33758095D01*
X40324761Y33710476D01*
X40372380Y33615238D01*
X40372380Y33520000D01*
X40324761Y33424761D01*
X40277142Y33377142D01*
X40181904Y33329523D01*
X39991428Y33281904D01*
X39753333Y33281904D01*
X39562857Y33329523D01*
X39467619Y33377142D01*
X39420000Y33424761D01*
X39372380Y33520000D01*
X40372380Y34281904D02*
X39372380Y34281904D01*
X39991428Y34377142D02*
X40372380Y34662857D01*
X39705714Y34662857D02*
X40086666Y34281904D01*
D11*
X38461904Y32505714D02*
X38080952Y32239047D01*
X38461904Y32048571D02*
X37661904Y32048571D01*
X37661904Y32353333D01*
X37700000Y32429523D01*
X37738095Y32467619D01*
X37814285Y32505714D01*
X37928571Y32505714D01*
X38004761Y32467619D01*
X38042857Y32429523D01*
X38080952Y32353333D01*
X38080952Y32048571D01*
X38461904Y33267619D02*
X38461904Y32810476D01*
X38461904Y33039047D02*
X37661904Y33039047D01*
X37776190Y32962857D01*
X37852380Y32886666D01*
X37890476Y32810476D01*
X38461904Y34029523D02*
X38461904Y33572380D01*
X38461904Y33800952D02*
X37661904Y33800952D01*
X37776190Y33724761D01*
X37852380Y33648571D01*
X37890476Y33572380D01*
D10*
X12652380Y1267619D02*
X12747619Y1267619D01*
X12842857Y1220000D01*
X12890476Y1172380D01*
X12938095Y1077142D01*
X12985714Y886666D01*
X12985714Y648571D01*
X12938095Y458095D01*
X12890476Y362857D01*
X12842857Y315238D01*
X12747619Y267619D01*
X12652380Y267619D01*
X12557142Y315238D01*
X12509523Y362857D01*
X12461904Y458095D01*
X12414285Y648571D01*
X12414285Y886666D01*
X12461904Y1077142D01*
X12509523Y1172380D01*
X12557142Y1220000D01*
X12652380Y1267619D01*
D11*
X12185714Y2178095D02*
X11919047Y2559047D01*
X11728571Y2178095D02*
X11728571Y2978095D01*
X12033333Y2978095D01*
X12109523Y2940000D01*
X12147619Y2901904D01*
X12185714Y2825714D01*
X12185714Y2711428D01*
X12147619Y2635238D01*
X12109523Y2597142D01*
X12033333Y2559047D01*
X11728571Y2559047D01*
X12452380Y2978095D02*
X12985714Y2978095D01*
X12642857Y2178095D01*
X13709523Y2178095D02*
X13252380Y2178095D01*
X13480952Y2178095D02*
X13480952Y2978095D01*
X13404761Y2863809D01*
X13328571Y2787619D01*
X13252380Y2749523D01*
D10*
X13311428Y34287619D02*
X13930476Y34287619D01*
X13597142Y33906666D01*
X13740000Y33906666D01*
X13835238Y33859047D01*
X13882857Y33811428D01*
X13930476Y33716190D01*
X13930476Y33478095D01*
X13882857Y33382857D01*
X13835238Y33335238D01*
X13740000Y33287619D01*
X13454285Y33287619D01*
X13359047Y33335238D01*
X13311428Y33382857D01*
X14359047Y33382857D02*
X14406666Y33335238D01*
X14359047Y33287619D01*
X14311428Y33335238D01*
X14359047Y33382857D01*
X14359047Y33287619D01*
X14740000Y34287619D02*
X15359047Y34287619D01*
X15025714Y33906666D01*
X15168571Y33906666D01*
X15263809Y33859047D01*
X15311428Y33811428D01*
X15359047Y33716190D01*
X15359047Y33478095D01*
X15311428Y33382857D01*
X15263809Y33335238D01*
X15168571Y33287619D01*
X14882857Y33287619D01*
X14787619Y33335238D01*
X14740000Y33382857D01*
X15740000Y34192380D02*
X15787619Y34240000D01*
X15882857Y34287619D01*
X16120952Y34287619D01*
X16216190Y34240000D01*
X16263809Y34192380D01*
X16311428Y34097142D01*
X16311428Y34001904D01*
X16263809Y33859047D01*
X15692380Y33287619D01*
X16311428Y33287619D01*
X16740000Y33287619D02*
X16740000Y34287619D01*
X16835238Y33668571D02*
X17120952Y33287619D01*
X17120952Y33954285D02*
X16740000Y33573333D01*
D11*
X14306666Y35198095D02*
X14040000Y35579047D01*
X13849523Y35198095D02*
X13849523Y35998095D01*
X14154285Y35998095D01*
X14230476Y35960000D01*
X14268571Y35921904D01*
X14306666Y35845714D01*
X14306666Y35731428D01*
X14268571Y35655238D01*
X14230476Y35617142D01*
X14154285Y35579047D01*
X13849523Y35579047D01*
X14649523Y35198095D02*
X14649523Y35998095D01*
X14954285Y35998095D01*
X15030476Y35960000D01*
X15068571Y35921904D01*
X15106666Y35845714D01*
X15106666Y35731428D01*
X15068571Y35655238D01*
X15030476Y35617142D01*
X14954285Y35579047D01*
X14649523Y35579047D01*
X15906666Y35274285D02*
X15868571Y35236190D01*
X15754285Y35198095D01*
X15678095Y35198095D01*
X15563809Y35236190D01*
X15487619Y35312380D01*
X15449523Y35388571D01*
X15411428Y35540952D01*
X15411428Y35655238D01*
X15449523Y35807619D01*
X15487619Y35883809D01*
X15563809Y35960000D01*
X15678095Y35998095D01*
X15754285Y35998095D01*
X15868571Y35960000D01*
X15906666Y35921904D01*
X16211428Y35921904D02*
X16249523Y35960000D01*
X16325714Y35998095D01*
X16516190Y35998095D01*
X16592380Y35960000D01*
X16630476Y35921904D01*
X16668571Y35845714D01*
X16668571Y35769523D01*
X16630476Y35655238D01*
X16173333Y35198095D01*
X16668571Y35198095D01*
D12*
X32080000Y3340000D02*
X32080000Y1740000D01*
X28880000Y3340000D02*
X32080000Y3340000D01*
X32080000Y1740000D02*
X28880000Y1740000D01*
X28880000Y1740000D02*
X28880000Y3340000D01*
X16180000Y11900000D02*
X16180000Y13500000D01*
X16180000Y13500000D02*
X19380000Y13500000D01*
X19380000Y13500000D02*
X19380000Y11900000D01*
X19380000Y11900000D02*
X16180000Y11900000D01*
X16180000Y9360000D02*
X16180000Y10960000D01*
X19380000Y9360000D02*
X16180000Y9360000D01*
X19380000Y10960000D02*
X19380000Y9360000D01*
X16180000Y10960000D02*
X19380000Y10960000D01*
X21590000Y1270000D02*
X21590000Y3810000D01*
X21590000Y3810000D02*
X23495000Y3810000D01*
X24130000Y3175000D02*
X24130000Y1270000D01*
X23495000Y3810000D02*
X24130000Y3175000D01*
X24130000Y1270000D02*
X21590000Y1270000D01*
X19380000Y16040000D02*
X19380000Y14440000D01*
X16180000Y16040000D02*
X19380000Y16040000D01*
X19380000Y14440000D02*
X16180000Y14440000D01*
X16180000Y14440000D02*
X16180000Y16040000D01*
X35779063Y14794362D02*
X35779063Y17994362D01*
X37379063Y17994362D02*
X37379063Y14794362D01*
X37379063Y14794362D02*
X35779063Y14794362D01*
X35779063Y17994362D02*
X37379063Y17994362D01*
X24130000Y31750000D02*
X24130000Y36195000D01*
X24130000Y36195000D02*
X24765000Y36830000D01*
X26670000Y31750000D02*
X24130000Y31750000D01*
X24765000Y36830000D02*
X26670000Y36830000D01*
X26670000Y36830000D02*
X26670000Y31750000D01*
X31280000Y31420000D02*
X29680000Y31420000D01*
X31280000Y34620000D02*
X31280000Y31420000D01*
X29680000Y31420000D02*
X29680000Y34620000D01*
X29680000Y34620000D02*
X31280000Y34620000D01*
X8560000Y24600000D02*
X8560000Y26200000D01*
X8560000Y26200000D02*
X11760000Y26200000D01*
X11760000Y26200000D02*
X11760000Y24600000D01*
X11760000Y24600000D02*
X8560000Y24600000D01*
X27936659Y12400799D02*
X27936659Y9860799D01*
X27936659Y9860799D02*
X25396659Y9860799D01*
X25396659Y9860799D02*
X25396659Y11765799D01*
X25396659Y11765799D02*
X26031659Y12400799D01*
X26031659Y12400799D02*
X27936659Y12400799D01*
X22292927Y39800963D02*
X22292927Y44880963D01*
X31182927Y44880963D02*
X32452927Y43610963D01*
X32452927Y39800963D02*
X22292927Y39800963D01*
X32452927Y43610963D02*
X32452927Y39800963D01*
X22292927Y44880963D02*
X31182927Y44880963D01*
X35249298Y23178723D02*
X35884298Y23813723D01*
X37789298Y23813723D02*
X37789298Y21273723D01*
X35249298Y21273723D02*
X35249298Y23178723D01*
X35884298Y23813723D02*
X37789298Y23813723D01*
X37789298Y21273723D02*
X35249298Y21273723D01*
X34760000Y34620000D02*
X36360000Y34620000D01*
X36360000Y31420000D02*
X34760000Y31420000D01*
X36360000Y34620000D02*
X36360000Y31420000D01*
X34760000Y31420000D02*
X34760000Y34620000D01*
X33820000Y31420000D02*
X32220000Y31420000D01*
X32220000Y34620000D02*
X33820000Y34620000D01*
X32220000Y31420000D02*
X32220000Y34620000D01*
X33820000Y34620000D02*
X33820000Y31420000D01*
X19951855Y44188483D02*
X15506855Y44188483D01*
X15506855Y44188483D02*
X14871855Y44823483D01*
X14871855Y46728483D02*
X19951855Y46728483D01*
X19951855Y46728483D02*
X19951855Y44188483D01*
X14871855Y44823483D02*
X14871855Y46728483D01*
X11430000Y39370000D02*
X11430000Y29210000D01*
X6350000Y29210000D02*
X6350000Y38100000D01*
X7620000Y39370000D02*
X11430000Y39370000D01*
X6350000Y38100000D02*
X7620000Y39370000D01*
X11430000Y29210000D02*
X6350000Y29210000D01*
X16180000Y18580000D02*
X19380000Y18580000D01*
X19380000Y18580000D02*
X19380000Y16980000D01*
X19380000Y16980000D02*
X16180000Y16980000D01*
X16180000Y16980000D02*
X16180000Y18580000D01*
X32709298Y23813723D02*
X32709298Y21273723D01*
X30169298Y23178723D02*
X30804298Y23813723D01*
X32709298Y21273723D02*
X30169298Y21273723D01*
X30169298Y21273723D02*
X30169298Y23178723D01*
X30804298Y23813723D02*
X32709298Y23813723D01*
X11760000Y23660000D02*
X11760000Y22060000D01*
X11760000Y22060000D02*
X8560000Y22060000D01*
X8560000Y23660000D02*
X11760000Y23660000D01*
X8560000Y22060000D02*
X8560000Y23660000D01*
X26200000Y29540000D02*
X26200000Y26340000D01*
X24600000Y29540000D02*
X26200000Y29540000D01*
X24600000Y26340000D02*
X24600000Y29540000D01*
X26200000Y26340000D02*
X24600000Y26340000D01*
X24130000Y24130000D02*
X24130000Y21590000D01*
X21590000Y21590000D02*
X21590000Y23495000D01*
X21590000Y23495000D02*
X22225000Y24130000D01*
X24130000Y21590000D02*
X21590000Y21590000D01*
X22225000Y24130000D02*
X24130000Y24130000D01*
X3175000Y29210000D02*
X1270000Y29210000D01*
X3810000Y29845000D02*
X3175000Y29210000D01*
X1270000Y39370000D02*
X3810000Y39370000D01*
X3810000Y39370000D02*
X3810000Y29845000D01*
X1270000Y29210000D02*
X1270000Y39370000D01*
X17145000Y26670000D02*
X19050000Y26670000D01*
X19050000Y26670000D02*
X19050000Y24130000D01*
X19050000Y24130000D02*
X16510000Y24130000D01*
X16510000Y24130000D02*
X16510000Y26035000D01*
X16510000Y26035000D02*
X17145000Y26670000D01*
X13640000Y31280000D02*
X16840000Y31280000D01*
X13640000Y29680000D02*
X13640000Y31280000D01*
X16840000Y31280000D02*
X16840000Y29680000D01*
X16840000Y29680000D02*
X13640000Y29680000D01*
X30699063Y14794362D02*
X30699063Y17994362D01*
X32299063Y14794362D02*
X30699063Y14794362D01*
X30699063Y17994362D02*
X32299063Y17994362D01*
X32299063Y17994362D02*
X32299063Y14794362D01*
X13640000Y37300000D02*
X13640000Y38900000D01*
X13640000Y38900000D02*
X16840000Y38900000D01*
X16840000Y37300000D02*
X13640000Y37300000D01*
X16840000Y38900000D02*
X16840000Y37300000D01*
X8890000Y8890000D02*
X8890000Y17780000D01*
X8890000Y17780000D02*
X10160000Y19050000D01*
X10160000Y19050000D02*
X13970000Y19050000D01*
X13970000Y8890000D02*
X8890000Y8890000D01*
X13970000Y19050000D02*
X13970000Y8890000D01*
X16840000Y33820000D02*
X16840000Y32220000D01*
X13640000Y32220000D02*
X13640000Y33820000D01*
X16840000Y32220000D02*
X13640000Y32220000D01*
X13640000Y33820000D02*
X16840000Y33820000D01*
X25396659Y14940799D02*
X25396659Y16845799D01*
X26031659Y17480799D02*
X27936659Y17480799D01*
X27936659Y17480799D02*
X27936659Y14940799D01*
X25396659Y16845799D02*
X26031659Y17480799D01*
X27936659Y14940799D02*
X25396659Y14940799D01*
X11718730Y42439156D02*
X10118730Y42439156D01*
X11718730Y45639156D02*
X11718730Y42439156D01*
X10118730Y45639156D02*
X11718730Y45639156D01*
X10118730Y42439156D02*
X10118730Y45639156D01*
X37300000Y31420000D02*
X37300000Y34620000D01*
X37300000Y34620000D02*
X38900000Y34620000D01*
X38900000Y31420000D02*
X37300000Y31420000D01*
X38900000Y34620000D02*
X38900000Y31420000D01*
X11100000Y3340000D02*
X14300000Y3340000D01*
X14300000Y3340000D02*
X14300000Y1740000D01*
X11100000Y1740000D02*
X11100000Y3340000D01*
X14300000Y1740000D02*
X11100000Y1740000D01*
X16840000Y34760000D02*
X13640000Y34760000D01*
X16840000Y36360000D02*
X16840000Y34760000D01*
X13640000Y36360000D02*
X16840000Y36360000D01*
X13640000Y34760000D02*
X13640000Y36360000D01*
M02*
