M48
; DRILL file {KiCad (6.0.4-0)} date Monday, August 14, 2023 at 03:40:46 PM
; FORMAT={-:-/ absolute / inch / decimal}
; #@! TF.CreationDate,2023-08-14T15:40:46-05:00
; #@! TF.GenerationSoftware,Kicad,Pcbnew,(6.0.4-0)
; #@! TF.FileFunction,Plated,1,2,PTH
FMAT,2
INCH
; #@! TA.AperFunction,Plated,PTH,ViaDrill
T1C0.0118
; #@! TA.AperFunction,Plated,PTH,ComponentDrill
T2C0.0394
; #@! TA.AperFunction,Plated,PTH,ComponentDrill
T3C0.0500
; #@! TA.AperFunction,Plated,PTH,ComponentDrill
T4C0.0520
; #@! TA.AperFunction,Plated,PTH,ComponentDrill
T5C0.0630
; #@! TA.AperFunction,Plated,PTH,ComponentDrill
T6C0.0700
%
G90
G05
T1
X2.34Y0.7425
X2.344Y0.4565
T2
X0.5878Y0.6901
X0.5878Y0.5901
X0.5878Y0.4901
X0.5878Y0.3901
X0.6878Y0.6901
X0.6878Y0.5901
X0.6878Y0.4901
X0.6878Y0.3901
X1.0616Y1.2707
X1.0616Y1.1707
X1.132Y0.6707
X1.132Y0.5707
X1.1616Y1.2707
X1.1616Y1.1707
X1.2616Y1.2707
X1.2616Y1.1707
X1.3616Y1.2707
X1.3616Y1.1707
X1.5676Y1.1807
X1.5676Y1.0807
X1.6676Y1.1807
X1.6676Y1.0807
X1.7676Y1.1807
X1.7676Y1.0807
X1.8676Y1.1807
X1.8676Y1.0807
T3
X2.315Y1.0925
T4
X0.05Y1.2625
X0.05Y1.025
X0.05Y0.7875
X0.05Y0.55
X0.05Y0.3125
X0.25Y1.2625
X0.25Y1.025
X0.25Y0.7875
X0.25Y0.55
X0.25Y0.3125
X2.25Y0.7875
X2.25Y0.55
X2.25Y0.3125
X2.45Y0.7875
X2.45Y0.55
X2.45Y0.3125
T5
X0.884Y1.1325
X0.96Y0.2175
X1.125Y0.2175
X1.295Y0.2175
X1.316Y0.6565
X1.582Y0.4665
T6
X2.2146Y1.1929
X2.2146Y0.9921
X2.4154Y1.1929
X2.4154Y0.9921
T0
M30
