%TF.GenerationSoftware,KiCad,Pcbnew,(6.0.4-0)*%
%TF.CreationDate,2023-08-14T15:40:46-05:00*%
%TF.ProjectId,model_cell,6d6f6465-6c5f-4636-956c-6c2e6b696361,rev?*%
%TF.SameCoordinates,Original*%
%TF.FileFunction,Copper,L2,Bot*%
%TF.FilePolarity,Positive*%
%FSLAX46Y46*%
G04 Gerber Fmt 4.6, Leading zero omitted, Abs format (unit mm)*
G04 Created by KiCad (PCBNEW (6.0.4-0)) date 2023-08-14 15:40:46*
%MOMM*%
%LPD*%
G01*
G04 APERTURE LIST*
%TA.AperFunction,ComponentPad*%
%ADD10C,2.082800*%
%TD*%
%TA.AperFunction,ComponentPad*%
%ADD11R,1.700000X1.700000*%
%TD*%
%TA.AperFunction,ComponentPad*%
%ADD12O,1.700000X1.700000*%
%TD*%
%TA.AperFunction,ComponentPad*%
%ADD13C,1.905000*%
%TD*%
%TA.AperFunction,ComponentPad*%
%ADD14C,2.667000*%
%TD*%
%TA.AperFunction,ComponentPad*%
%ADD15C,3.000000*%
%TD*%
%TA.AperFunction,ViaPad*%
%ADD16C,0.600000*%
%TD*%
%TA.AperFunction,Conductor*%
%ADD17C,0.127000*%
%TD*%
G04 APERTURE END LIST*
D10*
%TO.P,J9,1*%
%TO.N,Net-(J1-Pad1)*%
X62230000Y20002500D03*
X57150000Y20002500D03*
%TD*%
%TO.P,J4,1*%
%TO.N,Net-(J4-Pad1)*%
X6350000Y32067500D03*
X1270000Y32067500D03*
%TD*%
%TO.P,J2,1*%
%TO.N,Net-(J2-Pad1)*%
X6350000Y7937500D03*
X1270000Y7937500D03*
%TD*%
%TO.P,J8,1*%
%TO.N,Net-(J8-Pad1)*%
X57150000Y13970000D03*
X62230000Y13970000D03*
%TD*%
D11*
%TO.P,H2,1,Pin_1*%
%TO.N,Net-(Cma1-Pad2)*%
X28752800Y17035700D03*
D12*
%TO.P,H2,2,Pin_2*%
%TO.N,Net-(H2-Pad2)*%
X28752800Y14495700D03*
%TD*%
D13*
%TO.P,J1,1,In*%
%TO.N,Net-(J1-Pad1)*%
X58801000Y27749500D03*
D14*
%TO.P,J1,2,Ext*%
%TO.N,Net-(J1-Pad2)*%
X56251100Y30299400D03*
%TO.P,J1,3*%
%TO.N,N/C*%
X61350900Y30299400D03*
%TO.P,J1,4*%
X61350900Y25199600D03*
%TO.P,J1,5*%
X56251100Y25199600D03*
%TD*%
D10*
%TO.P,J7,1*%
%TO.N,GND*%
X57150000Y7937500D03*
X62230000Y7937500D03*
%TD*%
D15*
%TO.P,G3,1,1*%
%TO.N,GND*%
X28575000Y5524500D03*
%TD*%
D11*
%TO.P,REJ1,1,Pin_1*%
%TO.N,Net-(C20-Pad2)*%
X47437200Y29989700D03*
D12*
%TO.P,REJ1,2,Pin_2*%
%TO.N,Net-(R11-Pad2)*%
X47437200Y27449700D03*
%TO.P,REJ1,3,Pin_3*%
%TO.N,Net-(C20-Pad2)*%
X44897200Y29989700D03*
%TO.P,REJ1,4,Pin_4*%
%TO.N,Net-(R12-Pad2)*%
X44897200Y27449700D03*
%TO.P,REJ1,5,Pin_5*%
%TO.N,Net-(C20-Pad2)*%
X42357200Y29989700D03*
%TO.P,REJ1,6,Pin_6*%
%TO.N,Net-(R13-Pad2)*%
X42357200Y27449700D03*
%TO.P,REJ1,7,Pin_7*%
%TO.N,Net-(C20-Pad2)*%
X39817200Y29989700D03*
%TO.P,REJ1,8,Pin_8*%
%TO.N,Net-(R14-Pad2)*%
X39817200Y27449700D03*
%TD*%
D15*
%TO.P,T4,1,1*%
%TO.N,Net-(R2-Pad2)*%
X22453600Y28765500D03*
%TD*%
D10*
%TO.P,J6,1*%
%TO.N,Net-(J6-Pad1)*%
X1270000Y20002500D03*
X6350000Y20002500D03*
%TD*%
D11*
%TO.P,RpcJ1,1,Pin_1*%
%TO.N,Net-(J4-Pad1)*%
X34584800Y32275700D03*
D12*
%TO.P,RpcJ1,2,Pin_2*%
%TO.N,Net-(R6-Pad1)*%
X34584800Y29735700D03*
%TO.P,RpcJ1,3,Pin_3*%
%TO.N,Net-(J4-Pad1)*%
X32044800Y32275700D03*
%TO.P,RpcJ1,4,Pin_4*%
%TO.N,Net-(R7-Pad1)*%
X32044800Y29735700D03*
%TO.P,RpcJ1,5,Pin_5*%
%TO.N,Net-(J4-Pad1)*%
X29504800Y32275700D03*
%TO.P,RpcJ1,6,Pin_6*%
%TO.N,Net-(R8-Pad1)*%
X29504800Y29735700D03*
%TO.P,RpcJ1,7,Pin_7*%
%TO.N,Net-(J4-Pad1)*%
X26964800Y32275700D03*
%TO.P,RpcJ1,8,Pin_8*%
%TO.N,Net-(R9-Pad1)*%
X26964800Y29735700D03*
%TD*%
D15*
%TO.P,T3,1,1*%
%TO.N,Net-(Cma1-Pad2)*%
X40182800Y11849100D03*
%TD*%
%TO.P,G5,1,1*%
%TO.N,GND*%
X33426400Y16675100D03*
%TD*%
%TO.P,T1,1,1*%
%TO.N,Net-(C20-Pad1)*%
X24384000Y5524500D03*
%TD*%
D11*
%TO.P,SRJ1,1,Pin_1*%
%TO.N,Net-(C20-Pad1)*%
X14930200Y17528700D03*
D12*
%TO.P,SRJ1,2,Pin_2*%
%TO.N,Net-(R10-Pad2)*%
X17470200Y17528700D03*
%TO.P,SRJ1,3,Pin_3*%
%TO.N,Net-(C20-Pad1)*%
X14930200Y14988700D03*
%TO.P,SRJ1,4,Pin_4*%
%TO.N,Net-(R15-Pad2)*%
X17470200Y14988700D03*
%TO.P,SRJ1,5,Pin_5*%
%TO.N,Net-(C20-Pad1)*%
X14930200Y12448700D03*
%TO.P,SRJ1,6,Pin_6*%
%TO.N,Net-(R17-Pad2)*%
X17470200Y12448700D03*
%TO.P,SRJ1,7,Pin_7*%
%TO.N,Net-(C20-Pad1)*%
X14930200Y9908700D03*
%TO.P,SRJ1,8,Pin_8*%
%TO.N,Net-(R18-Pad2)*%
X17470200Y9908700D03*
%TD*%
D15*
%TO.P,T2,1,1*%
%TO.N,Net-(Cma1-Pad1)*%
X32893000Y5524500D03*
%TD*%
D10*
%TO.P,J5,1*%
%TO.N,Net-(J5-Pad1)*%
X6350000Y26035000D03*
X1270000Y26035000D03*
%TD*%
%TO.P,J3,1*%
%TO.N,Net-(J3-Pad1)*%
X1270000Y13970000D03*
X6350000Y13970000D03*
%TD*%
D16*
%TO.N,GND*%
X59537600Y11595100D03*
X59436000Y18859500D03*
%TD*%
D17*
%TO.N,Net-(J1-Pad1)*%
X60325000Y21907500D02*
X62230000Y20002500D01*
X58801000Y21907500D02*
X60325000Y21907500D01*
X58801000Y21907500D02*
X57150000Y20256500D01*
X57150000Y20256500D02*
X57150000Y20002500D01*
%TO.N,Net-(C20-Pad1)*%
X24384000Y5524500D02*
X18415000Y5524500D01*
X14930200Y9009300D02*
X14930200Y9908700D01*
X18415000Y5524500D02*
X14930200Y9009300D01*
%TO.N,GND*%
X33426400Y10375900D02*
X28575000Y5524500D01*
X59537600Y18757900D02*
X59436000Y18859500D01*
X33426400Y16675100D02*
X33426400Y10375900D01*
X59537600Y11595100D02*
X59537600Y18757900D01*
%TO.N,Net-(C20-Pad1)*%
X14930200Y12448700D02*
X14930200Y14988700D01*
X14930200Y9908700D02*
X14930200Y12448700D01*
X14930200Y14988700D02*
X14930200Y17528700D01*
%TO.N,Net-(J1-Pad1)*%
X58801000Y27749500D02*
X58801000Y21907500D01*
%TD*%
M02*
