%TF.GenerationSoftware,KiCad,Pcbnew,(6.0.4-0)*%
%TF.CreationDate,2023-08-14T15:40:46-05:00*%
%TF.ProjectId,model_cell,6d6f6465-6c5f-4636-956c-6c2e6b696361,rev?*%
%TF.SameCoordinates,Original*%
%TF.FileFunction,Soldermask,Top*%
%TF.FilePolarity,Negative*%
%FSLAX46Y46*%
G04 Gerber Fmt 4.6, Leading zero omitted, Abs format (unit mm)*
G04 Created by KiCad (PCBNEW (6.0.4-0)) date 2023-08-14 15:40:46*
%MOMM*%
%LPD*%
G01*
G04 APERTURE LIST*
G04 Aperture macros list*
%AMRoundRect*
0 Rectangle with rounded corners*
0 $1 Rounding radius*
0 $2 $3 $4 $5 $6 $7 $8 $9 X,Y pos of 4 corners*
0 Add a 4 corners polygon primitive as box body*
4,1,4,$2,$3,$4,$5,$6,$7,$8,$9,$2,$3,0*
0 Add four circle primitives for the rounded corners*
1,1,$1+$1,$2,$3*
1,1,$1+$1,$4,$5*
1,1,$1+$1,$6,$7*
1,1,$1+$1,$8,$9*
0 Add four rect primitives between the rounded corners*
20,1,$1+$1,$2,$3,$4,$5,0*
20,1,$1+$1,$4,$5,$6,$7,0*
20,1,$1+$1,$6,$7,$8,$9,0*
20,1,$1+$1,$8,$9,$2,$3,0*%
G04 Aperture macros list end*
%ADD10C,2.301600*%
%ADD11RoundRect,0.300800X0.312500X0.625000X-0.312500X0.625000X-0.312500X-0.625000X0.312500X-0.625000X0*%
%ADD12C,2.184400*%
%ADD13RoundRect,0.300800X-0.325000X-0.650000X0.325000X-0.650000X0.325000X0.650000X-0.325000X0.650000X0*%
%ADD14RoundRect,0.300800X-0.312500X-0.625000X0.312500X-0.625000X0.312500X0.625000X-0.312500X0.625000X0*%
%ADD15RoundRect,0.300800X0.650000X-0.325000X0.650000X0.325000X-0.650000X0.325000X-0.650000X-0.325000X0*%
%ADD16RoundRect,0.050800X-0.850000X-0.850000X0.850000X-0.850000X0.850000X0.850000X-0.850000X0.850000X0*%
%ADD17O,1.801600X1.801600*%
%ADD18RoundRect,0.300800X0.625000X-0.312500X0.625000X0.312500X-0.625000X0.312500X-0.625000X-0.312500X0*%
%ADD19C,2.108200*%
%ADD20C,2.870200*%
%ADD21RoundRect,0.300800X-0.625000X0.312500X-0.625000X-0.312500X0.625000X-0.312500X0.625000X0.312500X0*%
%ADD22C,3.101600*%
%ADD23RoundRect,0.050800X-0.850000X0.850000X-0.850000X-0.850000X0.850000X-0.850000X0.850000X0.850000X0*%
%ADD24RoundRect,0.300800X-0.650000X0.325000X-0.650000X-0.325000X0.650000X-0.325000X0.650000X0.325000X0*%
G04 APERTURE END LIST*
D10*
%TO.C,H3*%
X50800000Y35877500D03*
%TD*%
%TO.C,H5*%
X11430000Y4127500D03*
%TD*%
%TO.C,H7*%
X11430000Y35877500D03*
%TD*%
D11*
%TO.C,R51*%
X45353700Y6108700D03*
X42428700Y6108700D03*
%TD*%
D10*
%TO.C,H1*%
X50800000Y4127500D03*
%TD*%
D12*
%TO.C,J9*%
X62230000Y20002500D03*
X57150000Y20002500D03*
%TD*%
D11*
%TO.C,R17*%
X24246700Y11851800D03*
X21321700Y11851800D03*
%TD*%
%TO.C,R18*%
X24246700Y9311800D03*
X21321700Y9311800D03*
%TD*%
D12*
%TO.C,J4*%
X6350000Y32067500D03*
X1270000Y32067500D03*
%TD*%
D13*
%TO.C,C20*%
X45718200Y17335500D03*
X48668200Y17335500D03*
%TD*%
D11*
%TO.C,R15*%
X24246700Y14391800D03*
X21321700Y14391800D03*
%TD*%
D14*
%TO.C,Rsb1*%
X15199900Y26327100D03*
X18124900Y26327100D03*
%TD*%
D15*
%TO.C,Cma1*%
X36677600Y9612100D03*
X36677600Y12562100D03*
%TD*%
D12*
%TO.C,J2*%
X6350000Y7937500D03*
X1270000Y7937500D03*
%TD*%
%TO.C,J8*%
X57150000Y13970000D03*
X62230000Y13970000D03*
%TD*%
D16*
%TO.C,H2*%
X28752800Y17035700D03*
D17*
X28752800Y14495700D03*
%TD*%
D14*
%TO.C,RIa1*%
X15199900Y22263100D03*
X18124900Y22263100D03*
%TD*%
D18*
%TO.C,R14*%
X39725600Y21054600D03*
X39725600Y23979600D03*
%TD*%
D19*
%TO.C,J1*%
X58801000Y27749500D03*
D20*
X56251100Y30299400D03*
X61350900Y30299400D03*
X61350900Y25199600D03*
X56251100Y25199600D03*
%TD*%
D12*
%TO.C,J7*%
X57150000Y7937500D03*
X62230000Y7937500D03*
%TD*%
D14*
%TO.C,R4*%
X9967500Y25082500D03*
X12892500Y25082500D03*
%TD*%
D21*
%TO.C,R2*%
X10515600Y10924000D03*
X10515600Y7999000D03*
%TD*%
D22*
%TO.C,G3*%
X28575000Y5524500D03*
%TD*%
D23*
%TO.C,REJ1*%
X47437200Y29989700D03*
D17*
X47437200Y27449700D03*
X44897200Y29989700D03*
X44897200Y27449700D03*
X42357200Y29989700D03*
X42357200Y27449700D03*
X39817200Y29989700D03*
X39817200Y27449700D03*
%TD*%
D24*
%TO.C,Cmb1*%
X43738800Y12653000D03*
X43738800Y9703000D03*
%TD*%
D14*
%TO.C,R16*%
X50988500Y18605500D03*
X53913500Y18605500D03*
%TD*%
D22*
%TO.C,T4*%
X22453600Y28765500D03*
%TD*%
D18*
%TO.C,R12*%
X45313600Y21054600D03*
X45313600Y23979600D03*
%TD*%
D12*
%TO.C,J6*%
X1270000Y20002500D03*
X6350000Y20002500D03*
%TD*%
D18*
%TO.C,R13*%
X42519600Y21054600D03*
X42519600Y23979600D03*
%TD*%
D23*
%TO.C,RpcJ1*%
X34584800Y32275700D03*
D17*
X34584800Y29735700D03*
X32044800Y32275700D03*
X32044800Y29735700D03*
X29504800Y32275700D03*
X29504800Y29735700D03*
X26964800Y32275700D03*
X26964800Y29735700D03*
%TD*%
D11*
%TO.C,R10*%
X24246700Y16931800D03*
X21321700Y16931800D03*
%TD*%
D21*
%TO.C,Rmb1*%
X47650400Y12691300D03*
X47650400Y9766300D03*
%TD*%
D22*
%TO.C,T3*%
X40182800Y11849100D03*
%TD*%
D21*
%TO.C,R1*%
X52476400Y30329600D03*
X52476400Y27404600D03*
%TD*%
D14*
%TO.C,R5*%
X9967500Y22288500D03*
X12892500Y22288500D03*
%TD*%
%TO.C,R20*%
X21346700Y20942300D03*
X24271700Y20942300D03*
%TD*%
D22*
%TO.C,G5*%
X33426400Y16675100D03*
%TD*%
%TO.C,T1*%
X24384000Y5524500D03*
%TD*%
D21*
%TO.C,R9*%
X27432000Y25402000D03*
X27432000Y22477000D03*
%TD*%
D18*
%TO.C,Rma1*%
X32969200Y9675400D03*
X32969200Y12600400D03*
%TD*%
D21*
%TO.C,R6*%
X35052000Y25402000D03*
X35052000Y22477000D03*
%TD*%
D16*
%TO.C,SRJ1*%
X14930200Y17528700D03*
D17*
X17470200Y17528700D03*
X14930200Y14988700D03*
X17470200Y14988700D03*
X14930200Y12448700D03*
X17470200Y12448700D03*
X14930200Y9908700D03*
X17470200Y9908700D03*
%TD*%
D21*
%TO.C,R8*%
X29972000Y25402000D03*
X29972000Y22477000D03*
%TD*%
D22*
%TO.C,T2*%
X32893000Y5524500D03*
%TD*%
D14*
%TO.C,RI1*%
X50963100Y14084300D03*
X53888100Y14084300D03*
%TD*%
D11*
%TO.C,RI2*%
X18988500Y6311900D03*
X16063500Y6311900D03*
%TD*%
D18*
%TO.C,R11*%
X47853600Y21054600D03*
X47853600Y23979600D03*
%TD*%
D14*
%TO.C,R71*%
X36434300Y6108700D03*
X39359300Y6108700D03*
%TD*%
D18*
%TO.C,R3*%
X10871200Y15060200D03*
X10871200Y17985200D03*
%TD*%
D12*
%TO.C,J5*%
X6350000Y26035000D03*
X1270000Y26035000D03*
%TD*%
D21*
%TO.C,R7*%
X32512000Y25402000D03*
X32512000Y22477000D03*
%TD*%
D12*
%TO.C,J3*%
X1270000Y13970000D03*
X6350000Y13970000D03*
%TD*%
M02*
